<svg xmlns="http://www.w3.org/2000/svg" xmlns:xlink="http://www.w3.org/1999/xlink" width="1920" height="1080" viewBox="0 0 1920 1080">
  <defs>
    <clipPath id="clip-bg2">
      <rect width="1920" height="1080"/>
    </clipPath>
  </defs>
  <g id="bg2" clip-path="url(#clip-bg2)">
    <rect width="1920" height="1080" fill="#fff"/>
    <path id="Path_3240" data-name="Path 3240" d="M1035.515,789.655c48.142-68.488,58.407-167.871,119.646-193.8,80-34.136,143.363,8.21,319.647-10.37,66.549-6.914,161.062-16.852,223.718-54.877C1834.1,448.3,1801.181,244.778,1631.977,160.3c-120.354-60.062-206.018-8.21-509.736-45.154C789.5,74.963,750.558-4.544,506.31.21,438.7,1.506,197.99,6.259,74.45,116.876c-120.354,107.809-86.372,278.7,41.062,327.1,119.646,45.37,278.231-33.7,397.877,29.383,8.5,4.537,65.487,35.432,75.044,82.1,5.31,27.006-.354,45.586-20.177,68.92-132.744,154.907-46.018,246.729,69.381,287.13C753.036,952.124,929.674,940.241,1035.515,789.655Z" transform="matrix(0.921, 0.391, -0.391, 0.921, -187.268, 337.713)" fill="#4f8afc"/>
    <path id="Path_3046" data-name="Path 3046" d="M1035.515,850.613c48.142-73.775,58.407-180.83,119.646-208.757,80-36.771,143.363,8.844,319.647-11.171,66.549-7.447,161.062-18.153,223.718-59.113,135.576-88.669,102.655-307.9-66.549-398.9-120.354-64.7-206.018-8.844-509.736-48.64C789.5,80.749,750.558-4.895,506.31.225,438.7,1.622,197.99,6.742,74.45,125.9-45.9,242.03-11.922,426.117,115.512,478.248c119.646,48.873,302.542,75.779,397.877,31.651s65.487,38.167,75.044,88.437c5.31,29.091-.354,49.106-20.177,74.24-132.744,166.866-46.018,265.775,69.381,309.3C753.036,1025.624,929.674,1012.824,1035.515,850.613Z" transform="matrix(0.921, 0.391, -0.391, 0.921, 565.712, -816.52)" fill="#4f8afc"/>
  </g>
</svg>
