<svg id="Layer_1" data-name="Layer 1" xmlns="http://www.w3.org/2000/svg" xmlns:xlink="http://www.w3.org/1999/xlink" viewBox="0 0 533.43 211.51"><defs><style>.cls-1{fill:none;}.cls-2{clip-path:url(#clip-path);}.cls-3{fill:#ffb47d;}.cls-4{fill:#ff9164;}.cls-5{fill:#ff7d5a;}.cls-6{fill:#ededee;}.cls-7{fill:#504b5a;}.cls-8{fill:#dcdbde;}.cls-9{fill:#625d6b;}.cls-10{fill:#ff6464;}</style><clipPath id="clip-path" transform="translate(-582.3 -868.49)"><rect class="cls-1" width="1920" height="1080"/></clipPath></defs><title>car</title><g class="cls-2"><g id="car"><g id="automobile"><path id="Path_3346" data-name="Path 3346" class="cls-3" d="M1092.6,957.17c-17.32-10.67-73.19-24.31-151.6-24.31l-41.42-48.31a46,46,0,0,0-34.91-16.06h-124a55.19,55.19,0,0,0-35.91,13.28l-48.87,41.9-52.13,7.45a18.38,18.38,0,0,0-15.24,13.74l-6.2,24.79L720.29,1034h386.24V982A29.17,29.17,0,0,0,1092.6,957.17Z" transform="translate(-582.3 -868.49)"/><path id="Path_3347" data-name="Path 3347" class="cls-4" d="M1106.53,988c0-18.39-27.59-36.78-156.33-36.78H591.55a9.19,9.19,0,0,0-9.2,9.2v55.16l174.73,27.59h349.45V988Z" transform="translate(-582.3 -868.49)"/><path id="Path_3348" data-name="Path 3348" class="cls-5" d="M1106.53,1024.82H675.32l-81.78-18.17a9.2,9.2,0,1,0-4.09,17.93l.1,0,82.77,18.4a9.48,9.48,0,0,0,2,.22h432.22a9.2,9.2,0,0,0,0-18.4Z" transform="translate(-582.3 -868.49)"/><circle id="Ellipse_237" data-name="Ellipse 237" class="cls-6" cx="441.46" cy="156.33" r="45.98"/><path id="Path_3349" data-name="Path 3349" class="cls-7" d="M1023.77,1080a55.18,55.18,0,1,1,55.17-55.18A55.17,55.17,0,0,1,1023.77,1080Zm0-92a36.79,36.79,0,1,0,36.78,36.79h0A36.82,36.82,0,0,0,1023.77,988Z" transform="translate(-582.3 -868.49)"/><circle id="Ellipse_238" data-name="Ellipse 238" class="cls-8" cx="441.46" cy="156.33" r="18.39"/><circle id="Ellipse_239" data-name="Ellipse 239" class="cls-6" cx="92.01" cy="156.33" r="45.98"/><path id="Path_3350" data-name="Path 3350" class="cls-7" d="M674.31,1080a55.18,55.18,0,1,1,55.18-55.18A55.17,55.17,0,0,1,674.31,1080Zm0-92a36.79,36.79,0,1,0,36.79,36.79h0A36.82,36.82,0,0,0,674.31,988Z" transform="translate(-582.3 -868.49)"/><circle id="Ellipse_240" data-name="Ellipse 240" class="cls-8" cx="92.01" cy="156.33" r="18.39"/><g id="Group_3063" data-name="Group 3063"><path id="Path_3351" data-name="Path 3351" class="cls-5" d="M950.2,1006.43H757.08a9.2,9.2,0,0,1-9.2-9.2h0a9.2,9.2,0,0,1,9.2-9.2H950.2a9.2,9.2,0,0,1,9.2,9.2h0a9.19,9.19,0,0,1-9.19,9.2Z" transform="translate(-582.3 -868.49)"/><path id="Path_3352" data-name="Path 3352" class="cls-5" d="M1106.53,1006.43h-9.2a9.2,9.2,0,0,1-9.2-9.2h0a9.2,9.2,0,0,1,9.2-9.2h9.2a9.2,9.2,0,0,1,9.2,9.2h0A9.2,9.2,0,0,1,1106.53,1006.43Z" transform="translate(-582.3 -868.49)"/></g><path id="Path_3353" data-name="Path 3353" class="cls-4" d="M655.92,923.67l48.88-41.9a55.16,55.16,0,0,1,35.9-13.28h124a46,46,0,0,1,34.91,16.06L941,932.86H723.27a146.32,146.32,0,0,1-24.19-2Z" transform="translate(-582.3 -868.49)"/><path id="Path_3354" data-name="Path 3354" class="cls-9" d="M854.55,884.3a18.39,18.39,0,0,0-14.13-6.61H755.49a18.43,18.43,0,0,0-13,5.38l-27.58,27.59a13,13,0,0,0-3.81,9.2h0a13,13,0,0,0,13,13H885.21a4.61,4.61,0,0,0,3.53-7.55Z" transform="translate(-582.3 -868.49)"/><path id="Path_3355" data-name="Path 3355" class="cls-7" d="M775.47,932.86H747.88l18.39-55.17h18.4Z" transform="translate(-582.3 -868.49)"/><path id="Path_3356" data-name="Path 3356" class="cls-6" d="M1096.66,960.45h-8.52a9.2,9.2,0,1,0-.58,18.39h18.56A28.82,28.82,0,0,0,1096.66,960.45Z" transform="translate(-582.3 -868.49)"/><path id="Path_3357" data-name="Path 3357" class="cls-9" d="M899.58,884.55a45.37,45.37,0,0,0-7.33-6.86h-15a4.6,4.6,0,0,0-4.6,4.6,4.65,4.65,0,0,0,1.06,2.94l34.19,41A18.39,18.39,0,0,0,922,932.86h19Z" transform="translate(-582.3 -868.49)"/><path id="Path_3358" data-name="Path 3358" class="cls-10" d="M582.35,960.45v9.2h18.4a9.2,9.2,0,1,0,.57-18.39h-9.77a9.19,9.19,0,0,0-9.2,9.19Z" transform="translate(-582.3 -868.49)"/></g></g></g></svg>