<svg xmlns="http://www.w3.org/2000/svg" width="116.697" height="151.262" viewBox="0 0 116.697 151.262">
  <g id="chart" transform="translate(-808.473 -2087.844)">
    <path id="Path_3114" data-name="Path 3114" d="M110.9,151.262H6.1a6.079,6.079,0,0,1-6.1-6.1V6.1A6.079,6.079,0,0,1,6.1,0H110.564a6.079,6.079,0,0,1,6.1,6.1V145.157A5.607,5.607,0,0,1,110.9,151.262Z" transform="translate(808.473 2087.844)" fill="#4f8afc"/>
    <g id="Group_24050" data-name="Group 24050" transform="translate(818.473 2104.693)">
      <path id="Path_3115" data-name="Path 3115" d="M13.679,8.152h-7.8c-.339,0-.678-.678-.678-1.7h0c0-.678.339-1.357.678-1.357h7.8c.339,0,.678.678.678,1.357h0C14.357,7.474,14.018,8.152,13.679,8.152Z" transform="translate(12.436 -5.1)" fill="#fff"/>
      <path id="Path_3116" data-name="Path 3116" d="M53.707,8.152H9.278c-.339,0-.678-.678-.678-1.7h0c0-.678.339-1.357.678-1.357H53.707c.339,0,.678.678.678,1.357h0C54.386,7.474,54.046,8.152,53.707,8.152Z" transform="translate(20.567 -5.1)" fill="#fff"/>
      <path id="Path_3117" data-name="Path 3117" d="M23.523,9.713H9.278c-.339,0-.678-.678-.678-1.357h0C8.6,7.678,8.939,7,9.278,7H23.523c.339,0,.678.678.678,1.357h0C24.2,9.035,23.862,9.713,23.523,9.713Z" transform="translate(20.567 -0.556)" fill="#fff"/>
      <path id="Path_3118" data-name="Path 3118" d="M34.727,9.713H14.378c-.339,0-.678-.678-.678-1.357h0c0-.678.339-1.357.678-1.357H34.727c.339,0,.678.678.678,1.357h0C35.406,9.035,35.067,9.713,34.727,9.713Z" transform="translate(32.764 -0.556)" fill="#fff"/>
      <path id="Path_3119" data-name="Path 3119" d="M53.707,18.713H9.278c-.339,0-.678-.678-.678-1.357h0c0-.678.339-1.357.678-1.357H53.707c.339,0,.678.678.678,1.357h0C54.386,18.035,54.046,18.713,53.707,18.713Z" transform="translate(20.567 20.968)" fill="#fff"/>
      <path id="Path_3120" data-name="Path 3120" d="M13.679,20.513h-7.8c-.339,0-.678-.678-.678-1.357h0c0-.678.339-1.357.678-1.357h7.8c.339,0,.678.678.678,1.357h0C14.357,19.835,14.018,20.513,13.679,20.513Z" transform="translate(12.436 25.272)" fill="#fff"/>
      <path id="Path_3121" data-name="Path 3121" d="M23.523,20.513H9.278c-.339,0-.678-.678-.678-1.357h0c0-.678.339-1.357.678-1.357H23.523c.339,0,.678.678.678,1.357h0C24.2,19.835,23.862,20.513,23.523,20.513Z" transform="translate(20.567 25.272)" fill="#fff"/>
      <path id="Path_3122" data-name="Path 3122" d="M34.727,20.513H14.378c-.339,0-.678-.678-.678-1.357h0c0-.678.339-1.357.678-1.357H34.727c.339,0,.678.678.678,1.357h0C35.406,19.835,35.067,20.513,34.727,20.513Z" transform="translate(32.764 25.272)" fill="#fff"/>
      <path id="Path_3123" data-name="Path 3123" d="M64.9,11.513H9.278c-.339,0-.678-.678-.678-1.357h0c0-.678.339-1.357.678-1.357H64.9c.339,0,.678.678.678,1.357h0C65.578,10.835,65.238,11.513,64.9,11.513Z" transform="translate(20.567 3.749)" fill="#fff"/>
      <path id="Path_3124" data-name="Path 3124" d="M31.266,13.413H18.378a.729.729,0,0,1-.678-.678V11.378a.729.729,0,0,1,.678-.678H31.266a.729.729,0,0,1,.678.678v1.357C32.284,13.074,31.944,13.413,31.266,13.413Z" transform="translate(42.33 8.292)" fill="#fff"/>
      <path id="Path_3125" data-name="Path 3125" d="M27.593,13.413H9.278c-.339,0-.678-.678-.678-1.357h0c0-.678.339-1.357.678-1.357H27.593c.339,0,.678.678.678,1.357h0C28.61,12.735,28.271,13.413,27.593,13.413Z" transform="translate(20.567 8.292)" fill="#fff"/>
      <path id="Path_3126" data-name="Path 3126" d="M22.6,13.413H15.478c-.339,0-.678-.678-.678-1.357h0c0-.678.339-1.357.678-1.357H22.94c.339,0,.678.678.678,1.357h0C23.618,12.735,23.279,13.413,22.6,13.413Z" transform="translate(35.395 8.292)" fill="#fff"/>
      <path id="Path_3127" data-name="Path 3127" d="M13.679,15.213h-7.8c-.339,0-.678-.678-.678-1.357h0c0-.678.339-1.357.678-1.357h7.8c.339,0,.678.678.678,1.357h0C14.357,14.535,14.018,15.213,13.679,15.213Z" transform="translate(12.436 12.597)" fill="#fff"/>
      <path id="Path_3128" data-name="Path 3128" d="M64.9,15.213H9.278c-.339,0-.678-.678-.678-1.357h0c0-.678.339-1.357.678-1.357H64.9c.339,0,.678.678.678,1.357h0C65.578,14.535,65.238,15.213,64.9,15.213Z" transform="translate(20.567 12.597)" fill="#fff"/>
      <path id="Path_3129" data-name="Path 3129" d="M13.679,22.213h-7.8c-.339,0-.678-.678-.678-1.357h0c0-.678.339-1.357.678-1.357h7.8c.339,0,.678.678.678,1.357h0C14.357,21.535,14.018,22.213,13.679,22.213Z" transform="translate(12.436 29.338)" fill="#fff"/>
      <path id="Path_3130" data-name="Path 3130" d="M36.693,22.452H18.717A.9.9,0,0,1,17.7,21.435V20.417A.9.9,0,0,1,18.717,19.4H37.032a.9.9,0,0,1,1.017,1.017v1.017C37.71,22.113,37.371,22.452,36.693,22.452Z" transform="translate(42.33 29.099)" fill="#fff"/>
      <path id="Path_3131" data-name="Path 3131" d="M27.593,22.213H9.278c-.339,0-.678-.678-.678-1.357h0c0-.678.339-1.357.678-1.357H27.593c.339,0,.678.678.678,1.357h0C28.61,21.535,28.271,22.213,27.593,22.213Z" transform="translate(20.567 29.338)" fill="#fff"/>
      <path id="Path_3132" data-name="Path 3132" d="M22.6,22.213H15.478c-.339,0-.678-.678-.678-1.357h0c0-.678.339-1.357.678-1.357H22.94c.339,0,.678.678.678,1.357h0C23.618,21.535,23.279,22.213,22.6,22.213Z" transform="translate(35.395 29.338)" fill="#fff"/>
      <path id="Path_3133" data-name="Path 3133" d="M13.679,24.013h-7.8c-.339,0-.678-.678-.678-1.357h0c0-.678.339-1.357.678-1.357h7.8c.339,0,.678.678.678,1.357h0C14.357,23.335,14.018,24.013,13.679,24.013Z" transform="translate(12.436 33.643)" fill="#fff"/>
      <path id="Path_3134" data-name="Path 3134" d="M18.775,24.013h-9.5c-.339,0-.678-.678-.678-1.357h0c0-.678.339-1.357.678-1.357h9.5c.339,0,.678.678.678,1.357h0C19.453,23.335,19.114,24.013,18.775,24.013Z" transform="translate(20.567 33.643)" fill="#fff"/>
      <path id="Path_3135" data-name="Path 3135" d="M5.878,17.013c-.339,0-.678-.678-.678-1.357h0c0-.678.339-1.357.678-1.357h7.8c.339,0,.678.678.678,1.357h0c0,.678-.339,1.357-.678,1.357" transform="translate(12.436 16.902)" fill="#fff"/>
      <path id="Path_3136" data-name="Path 3136" d="M39.406,17.252H18.717A.9.9,0,0,1,17.7,16.235V15.217A.9.9,0,0,1,18.717,14.2H39.406a.9.9,0,0,1,1.017,1.017v1.017A.9.9,0,0,1,39.406,17.252Z" transform="translate(42.33 16.663)" fill="#fff"/>
      <path id="Path_3137" data-name="Path 3137" d="M27.593,17.013H9.278c-.339,0-.678-.678-.678-1.357h0c0-.678.339-1.357.678-1.357H27.593c.339,0,.678.678.678,1.357h0C28.61,16.335,28.271,17.013,27.593,17.013Z" transform="translate(20.567 16.902)" fill="#fff"/>
      <path id="Path_3138" data-name="Path 3138" d="M22.6,17.013H15.478c-.339,0-.678-.678-.678-1.357h0c0-.678.339-1.357.678-1.357H22.94c.339,0,.678.678.678,1.357h0C23.618,16.335,23.279,17.013,22.6,17.013Z" transform="translate(35.395 16.902)" fill="#fff"/>
      <path id="Path_3139" data-name="Path 3139" d="M53.707,25.813H9.278c-.339,0-.678-.678-.678-1.357h0c0-.678.339-1.357.678-1.357H53.707c.339,0,.678.678.678,1.357h0C54.386,25.135,54.046,25.813,53.707,25.813Z" transform="translate(20.567 37.947)" fill="#fff"/>
      <path id="Path_3140" data-name="Path 3140" d="M23.523,27.713H9.278c-.339,0-.678-.678-.678-1.357h0c0-.678.339-1.357.678-1.357H23.523c.339,0,.678.678.678,1.357h0C24.2,27.035,23.862,27.713,23.523,27.713Z" transform="translate(20.567 42.491)" fill="#fff"/>
      <path id="Path_3141" data-name="Path 3141" d="M34.727,27.713H14.378c-.339,0-.678-.678-.678-1.357h0c0-.678.339-1.357.678-1.357H34.727c.339,0,.678.678.678,1.357h0C35.406,27.035,35.067,27.713,34.727,27.713Z" transform="translate(32.764 42.491)" fill="#fff"/>
      <path id="Path_3142" data-name="Path 3142" d="M53.707,36.613H9.278c-.339,0-.678-.678-.678-1.357h0c0-.678.339-1.357.678-1.357H53.707c.339,0,.678.678.678,1.357h0C54.386,35.935,54.046,36.613,53.707,36.613Z" transform="translate(20.567 63.776)" fill="#fff"/>
      <path id="Path_3143" data-name="Path 3143" d="M13.679,38.513h-7.8c-.339,0-.678-.678-.678-1.357h0c0-.678.339-1.357.678-1.357h7.8c.339,0,.678.678.678,1.357h0C14.357,37.835,14.018,38.513,13.679,38.513Z" transform="translate(12.436 68.32)" fill="#fff"/>
      <path id="Path_3144" data-name="Path 3144" d="M23.523,38.513H9.278c-.339,0-.678-.678-.678-1.357h0c0-.678.339-1.357.678-1.357H23.523c.339,0,.678.678.678,1.357h0C24.2,37.835,23.862,38.513,23.523,38.513Z" transform="translate(20.567 68.32)" fill="#fff"/>
      <path id="Path_3145" data-name="Path 3145" d="M34.727,38.513H14.378c-.339,0-.678-.678-.678-1.357h0c0-.678.339-1.357.678-1.357H34.727c.339,0,.678.678.678,1.357h0C35.406,37.835,35.067,38.513,34.727,38.513Z" transform="translate(32.764 68.32)" fill="#fff"/>
      <path id="Path_3146" data-name="Path 3146" d="M13.679,29.513h-7.8c-.339,0-.678-.678-.678-1.357h0c0-.678.339-1.357.678-1.357h7.8c.339,0,.678.678.678,1.357h0C14.357,28.835,14.018,29.513,13.679,29.513Z" transform="translate(12.436 46.796)" fill="#fff"/>
      <path id="Path_3147" data-name="Path 3147" d="M49.2,29.752H9.517A1.083,1.083,0,0,1,8.5,28.735V27.717A1.083,1.083,0,0,1,9.517,26.7H49.2a1.083,1.083,0,0,1,1.017,1.017v1.357C50.216,29.413,49.877,29.752,49.2,29.752Z" transform="translate(20.328 46.557)" fill="#fff"/>
      <path id="Path_3148" data-name="Path 3148" d="M13.679,31.413h-7.8c-.339,0-.678-.678-.678-1.357h0c0-.678.339-1.357.678-1.357h7.8c.339,0,.678.678.678,1.357h0C14.357,30.735,14.018,31.413,13.679,31.413Z" transform="translate(12.436 51.34)" fill="#fff"/>
      <path id="Path_3149" data-name="Path 3149" d="M27.593,31.413H9.278c-.339,0-.678-.678-.678-1.357h0c0-.678.339-1.357.678-1.357H27.593c.339,0,.678.678.678,1.357h0C28.61,30.735,28.271,31.413,27.593,31.413Z" transform="translate(20.567 51.34)" fill="#fff"/>
      <path id="Path_3150" data-name="Path 3150" d="M22.6,31.413H15.478c-.339,0-.678-.678-.678-1.357h0c0-.678.339-1.357.678-1.357H22.94c.339,0,.678.678.678,1.357h0C23.618,30.735,23.279,31.413,22.6,31.413Z" transform="translate(35.395 51.34)" fill="#fff"/>
      <path id="Path_3151" data-name="Path 3151" d="M13.679,33.113h-7.8c-.339,0-.678-.678-.678-1.357h0c0-.678.339-1.357.678-1.357h7.8c.339,0,.678.678.678,1.357h0C14.357,32.435,14.018,33.113,13.679,33.113Z" transform="translate(12.436 55.405)" fill="#fff"/>
      <path id="Path_3152" data-name="Path 3152" d="M59.473,33.352H9.617A.9.9,0,0,1,8.6,32.335V31.317A.9.9,0,0,1,9.617,30.3H59.812a.9.9,0,0,1,1.017,1.017v1.017C60.49,33.013,60.151,33.352,59.473,33.352Z" transform="translate(20.567 55.166)" fill="#fff"/>
      <path id="Path_3153" data-name="Path 3153" d="M13.679,40.213h-7.8c-.339,0-.678-.678-.678-1.357h0c0-.678.339-1.357.678-1.357h7.8c.339,0,.678.678.678,1.357h0C14.357,39.535,14.018,40.213,13.679,40.213Z" transform="translate(12.436 72.385)" fill="#fff"/>
      <path id="Path_3154" data-name="Path 3154" d="M43.136,40.213H18.378c-.339,0-.678-.678-.678-1.357h0c0-.678.339-1.357.678-1.357H43.136c.339,0,.678.678.678,1.357h0C43.815,39.535,43.476,40.213,43.136,40.213Z" transform="translate(42.33 72.385)" fill="#fff"/>
      <path id="Path_3155" data-name="Path 3155" d="M27.593,40.213H9.278c-.339,0-.678-.678-.678-1.357h0c0-.678.339-1.357.678-1.357H27.593c.339,0,.678.678.678,1.357h0C28.61,39.535,28.271,40.213,27.593,40.213Z" transform="translate(20.567 72.385)" fill="#fff"/>
      <path id="Path_3156" data-name="Path 3156" d="M22.6,40.213H15.478c-.339,0-.678-.678-.678-1.357h0c0-.678.339-1.357.678-1.357H22.94c.339,0,.678.678.678,1.357h0C23.618,39.535,23.279,40.213,22.6,40.213Z" transform="translate(35.395 72.385)" fill="#fff"/>
      <path id="Path_3157" data-name="Path 3157" d="M42.176,41.913H9.278a.729.729,0,0,1-.678-.678V39.878a.729.729,0,0,1,.678-.678h32.9a.729.729,0,0,1,.678.678v1.357A.729.729,0,0,1,42.176,41.913Z" transform="translate(20.567 76.451)" fill="#fff"/>
      <path id="Path_3158" data-name="Path 3158" d="M40.762,35.252H18.717A.9.9,0,0,1,17.7,34.235V33.217A.9.9,0,0,1,18.717,32.2H40.762a.9.9,0,0,1,1.017,1.017v1.017A1.083,1.083,0,0,1,40.762,35.252Z" transform="translate(42.33 59.71)" fill="#fff"/>
      <path id="Path_3159" data-name="Path 3159" d="M27.593,35.013H9.278c-.339,0-.678-.678-.678-1.357h0c0-.678.339-1.357.678-1.357H27.593c.339,0,.678.678.678,1.357h0C28.61,34.335,28.271,35.013,27.593,35.013Z" transform="translate(20.567 59.949)" fill="#fff"/>
      <path id="Path_3160" data-name="Path 3160" d="M22.6,35.013H15.478c-.339,0-.678-.678-.678-1.357h0c0-.678.339-1.357.678-1.357H22.94c.339,0,.678.678.678,1.357h0C23.618,34.335,23.279,35.013,22.6,35.013Z" transform="translate(35.395 59.949)" fill="#fff"/>
      <path id="Path_3161" data-name="Path 3161" d="M0,88.386" transform="translate(0 -33.545)" fill="none" stroke="#4f8afc" stroke-width="1"/>
    </g>
  </g>
</svg>
