<svg xmlns="http://www.w3.org/2000/svg" width="166.506" height="117.022" viewBox="0 0 166.506 117.022">
  <g id="delivery-truck_2_" data-name="delivery-truck (2)" transform="translate(0 -90.94)">
    <path id="Path_9689" data-name="Path 9689" d="M5.842,168.909V98.067a7.128,7.128,0,0,1,7.128-7.128H83.776A7.128,7.128,0,0,1,90.9,98.067v70.843a2.376,2.376,0,0,1-2.376,2.376H8.218A2.376,2.376,0,0,1,5.842,168.909ZM63.02,193.178a14.784,14.784,0,1,1-14.784-14.784A14.784,14.784,0,0,1,63.02,193.178Zm-7.392,0a7.392,7.392,0,1,0-7.392,7.392A7.392,7.392,0,0,0,55.628,193.178ZM35.5,178.394H2.376A2.376,2.376,0,0,0,0,180.77v7.208a2.376,2.376,0,0,0,2.376,2.376H28.929A19.5,19.5,0,0,1,35.5,178.394Zm104.867,14.784a14.784,14.784,0,1,1-14.784-14.784A14.784,14.784,0,0,1,140.371,193.178Zm-7.392,0a7.392,7.392,0,1,0-7.392,7.392A7.392,7.392,0,0,0,132.979,193.178Zm33.527-12.408v7.208a2.376,2.376,0,0,1-2.376,2.376H144.894a19.509,19.509,0,0,0-38.615,0H67.544a19.5,19.5,0,0,0-6.574-11.96H97.7v-67.96a4.752,4.752,0,0,1,4.752-4.752H124.88a19.007,19.007,0,0,1,15.753,8.372l14.46,21.417a19.008,19.008,0,0,1,3.254,10.636v32.287h5.782A2.376,2.376,0,0,1,166.506,180.77ZM142.4,136.02,130.84,119.589a2.376,2.376,0,0,0-1.943-1.009H110.86a2.376,2.376,0,0,0-2.376,2.376v16.431a2.376,2.376,0,0,0,2.376,2.376h29.6A2.376,2.376,0,0,0,142.4,136.02Z" transform="translate(0 0)" fill="#4f8afc"/>
  </g>
</svg>
