<svg xmlns="http://www.w3.org/2000/svg" width="151.2" height="144.32" viewBox="0 0 151.2 144.32">
  <g id="Group_24052" data-name="Group 24052" transform="translate(0 0)">
    <path id="Path_9690" data-name="Path 9690" d="M264.007,249.183a5.446,5.446,0,0,0-3.978,2.221,12.427,12.427,0,0,0,0,14.609,4.673,4.673,0,0,0,7.955,0,12.427,12.427,0,0,0,0-14.609A5.443,5.443,0,0,0,264.007,249.183Z" transform="translate(-169.997 -168.231)" fill="#4f8afc"/>
    <path id="Path_9691" data-name="Path 9691" d="M155.781,160.006a5.447,5.447,0,0,0,3.978-2.221,12.427,12.427,0,0,0,0-14.61,4.673,4.673,0,0,0-7.955,0,12.427,12.427,0,0,0,0,14.61A5.445,5.445,0,0,0,155.781,160.006Z" transform="translate(-98.591 -96.638)" fill="#4f8afc"/>
    <path id="Path_9692" data-name="Path 9692" d="M149.244,78.264,130.735,64.277l6.754-22.2a4.925,4.925,0,0,0-4.621-6.358l-23.2-.423L102.1,13.352a4.926,4.926,0,0,0-7.481-2.43L75.6,24.23,56.579,10.922a4.926,4.926,0,0,0-7.48,2.43L41.534,35.294l-23.2.424a4.926,4.926,0,0,0-4.622,6.358l6.755,22.2L1.956,78.264a4.925,4.925,0,0,0,0,7.859l18.509,13.987-6.754,22.2a4.926,4.926,0,0,0,4.622,6.358l23.2.424L49.1,151.033a4.925,4.925,0,0,0,7.48,2.43L75.6,140.155l19.021,13.308a4.925,4.925,0,0,0,7.48-2.43l7.565-21.942,23.2-.424a4.926,4.926,0,0,0,4.621-6.358l-6.755-22.2,18.509-13.987a4.925,4.925,0,0,0,0-7.858Zm-92.2-30.181c6.988,0,12.652,6.965,12.652,15.557S64.034,79.2,57.047,79.2,44.395,72.232,44.395,63.639,50.059,48.082,57.047,48.082Zm-.8,68.287a4.234,4.234,0,0,1-3.43,1.757,4.218,4.218,0,0,1-3.42-6.679L94.958,48.015a4.233,4.233,0,0,1,3.43-1.757,4.218,4.218,0,0,1,3.42,6.679Zm37.911-.067c-6.988,0-12.652-6.965-12.652-15.557s5.664-15.557,12.652-15.557,12.652,6.965,12.652,15.557S101.141,116.3,94.154,116.3Z" transform="translate(0 -10.032)" fill="#4f8afc"/>
  </g>
</svg>
