<svg xmlns="http://www.w3.org/2000/svg" xmlns:xlink="http://www.w3.org/1999/xlink" width="569" height="569" viewBox="0 0 569 569">
  <defs>
    <style>
      .cls-1 {
        fill: #b8d1ff;
      }

      .cls-2 {
        fill: #fff;
      }

      .cls-3 {
        fill: #4f8afc;
      }

      .cls-4 {
        fill: #212121;
      }

      .cls-5 {
        fill: #c06c09;
      }

      .cls-6 {
        fill: #ff6963;
      }

      .cls-7 {
        fill: #4a484b;
      }

      .cls-8 {
        fill: #262529;
      }

      .cls-9 {
        fill: url(#linear-gradient);
      }

      .cls-10 {
        fill: #1c2426;
      }

      .cls-11 {
        fill: url(#linear-gradient-2);
      }

      .cls-12 {
        fill: #a6a6a6;
      }

      .cls-13 {
        filter: url(#Ellipse_662);
      }
    </style>
    <filter id="Ellipse_662" x="0" y="0" width="569" height="569" filterUnits="userSpaceOnUse">
      <feOffset dy="20" input="SourceAlpha"/>
      <feGaussianBlur stdDeviation="45" result="blur"/>
      <feFlood flood-color="#4953d4" flood-opacity="0.271"/>
      <feComposite operator="in" in2="blur"/>
      <feComposite in="SourceGraphic"/>
    </filter>
    <linearGradient id="linear-gradient" x1="0.499" y1="0.943" x2="0.499" y2="-0.023" gradientUnits="objectBoundingBox">
      <stop offset="0" stop-color="#5f5a5e"/>
      <stop offset="0.275" stop-color="#262529"/>
      <stop offset="0.476" stop-color="#29282c"/>
      <stop offset="0.629" stop-color="#333135"/>
      <stop offset="0.765" stop-color="#434144"/>
      <stop offset="0.809" stop-color="#4a484b"/>
    </linearGradient>
    <linearGradient id="linear-gradient-2" x1="0.515" y1="0.015" x2="0.515" y2="1.013" gradientUnits="objectBoundingBox">
      <stop offset="0" stop-color="#5f5a5e"/>
      <stop offset="0.275"/>
      <stop offset="0.754"/>
      <stop offset="0.809"/>
    </linearGradient>
  </defs>
  <g id="dollar-on-car" transform="translate(-93 -2905)">
    <g id="Group_23986" data-name="Group 23986">
      <g class="cls-13" transform="matrix(1, 0, 0, 1, 93, 2905)">
        <circle id="Ellipse_662-2" data-name="Ellipse 662" class="cls-1" cx="149.5" cy="149.5" r="149.5" transform="translate(135 115)"/>
      </g>
      <g id="Group_23985" data-name="Group 23985" transform="translate(221.694 2907.521)">
        <g id="Group_23984" data-name="Group 23984" transform="translate(21.199 194.5)">
          <g id="Group_23979" data-name="Group 23979" transform="translate(0 59.727)">
            <path id="Path_9595" data-name="Path 9595" class="cls-2" d="M8.006,304.392s-16.522-49.949,26.511-52.254c44.186-2.305,46.491-5.379,46.491-5.379s36.117-39.959,94.135-36.5c59.17,3.842,82.992,14.985,81.455,14.6,0,0,0,2.69-1.921,2.305-3.074-.384-7.3-2.69-4.611,3.074,3.842,9.606,23.822,21.516,24.59,35.733.768,14.6-5.763,37.654-5.763,37.654H8.006Z" transform="translate(-4.889 -210.045)"/>
            <path id="Path_9596" data-name="Path 9596" class="cls-1" d="M5,236.3c4.995,0,16.906,0,18.443-1.153,8.069-8.837,2.69-11.142,2.69-11.142H9.611A36.809,36.809,0,0,0,5,236.3Z" transform="translate(-4.573 -170.381)"/>
            <path id="Path_9597" data-name="Path 9597" class="cls-3" d="M26.9,244.333c1.921-10.374,33.043-28.432,56.481-31.122,24.206-1.537,38.422-.768,38.422-.768l-.768,31.506C120.65,244.333,38.042,244.333,26.9,244.333Z" transform="translate(57.672 -203.777)"/>
            <path id="Path_9598" data-name="Path 9598" class="cls-4" d="M28.037,246.58a1.358,1.358,0,0,1-1.537-1.537c2.305-11.527,34.58-29.585,57.633-32.275C93.355,212,102.192,212,110.261,212c7.684,0,11.911.384,12.3.384.768,0,1.153.768,1.153,1.537l-.768,31.506c0,.768-.768,1.153-1.537,1.153C121.787,246.2,39.179,246.58,28.037,246.58Zm82.608-32.275c-8.069,0-16.906.384-26.127.768-21.9,2.69-49.949,18.827-54.56,28.432h90.677l.768-28.817C119.482,214.305,115.64,214.305,110.645,214.305Z" transform="translate(56.535 -204.488)"/>
            <path id="Path_9599" data-name="Path 9599" class="cls-3" d="M52.6,212.3s41.5,3.074,49.949,9.221c0,0,1.153,20.364,8.453,22.285H52.6Z" transform="translate(130.717 -203.635)"/>
            <path id="Path_9600" data-name="Path 9600" class="cls-4" d="M112.523,246.864H53.737a1.653,1.653,0,0,1-1.537-1.537v-31.89a1.358,1.358,0,0,1,1.537-1.537c1.537,0,41.88,3.458,50.717,9.606a1.411,1.411,0,0,1,.384,1.153c.384,7.3,2.69,19.6,7.3,21.132.768,0,1.153.768,1.153,1.537C113.676,246.1,113.291,246.864,112.523,246.864Zm-57.633-2.69h53.023c-4.226-5.379-5.379-16.906-5.763-20.364-8.069-4.995-40.343-8.069-47.259-8.837v29.2Z" transform="translate(129.58 -204.772)"/>
            <g id="Group_23977" data-name="Group 23977" transform="translate(154.885 45.166)">
              <path id="Path_9601" data-name="Path 9601" class="cls-5" d="M50.963,221.8c-3.074,0-5.763,1.537-5.763,3.074s2.69,3.074,5.763,3.074,5.763-1.537,5.763-3.074S54.037,221.8,50.963,221.8Z" transform="translate(-45.2 -221.8)"/>
            </g>
            <g id="Group_23978" data-name="Group 23978" transform="translate(225.198 45.166)">
              <path id="Path_9602" data-name="Path 9602" class="cls-5" d="M69.263,221.8c-3.074,0-5.763,1.537-5.763,3.074s2.69,3.074,5.763,3.074,5.763-1.537,5.763-3.074S72.337,221.8,69.263,221.8Z" transform="translate(-63.5 -221.8)"/>
            </g>
            <path id="Path_9603" data-name="Path 9603" class="cls-4" d="M80.943,224.021a1.019,1.019,0,0,1-1.153,1.153H63.653a1.227,1.227,0,0,1-1.153-1.153h0a1.019,1.019,0,0,1,1.153-1.153L79.79,222.1c.768,0,1.921.384,1.153,1.921Z" transform="translate(158.855 -175.781)"/>
            <path id="Path_9606" data-name="Path 9606" class="cls-6" d="M74.826,224.5q.576,0,1.153,1.153c.384.768.384,1.537,0,1.537h0q-.576,0-1.153-1.153c0-.384-.384-1.153,0-1.537Zm.768,1.537c-.384-.768-.384-.768-.768-.768v1.153c.384.768.384.768.768.768S75.979,226.805,75.595,226.037Z" transform="translate(193.404 -168.96)"/>
            <path id="Path_9607" data-name="Path 9607" class="cls-6" d="M76.021,228.2c-.768.384-1.153.768-1.921,1.153a.376.376,0,0,0,.384.384c.384-.384,1.153-.769,1.537-1.537Z" transform="translate(191.825 -158.444)"/>
            <path id="Path_9608" data-name="Path 9608" class="cls-6" d="M76.021,227.6c-.768.384-1.153.768-1.921,1.153a.376.376,0,0,0,.384.384c.384-.384,1.153-.768,1.537-1.537Z" transform="translate(191.825 -160.149)"/>
            <path id="Path_9609" data-name="Path 9609" class="cls-6" d="M76.021,226.9c-.768.384-1.153.768-1.921,1.153a.376.376,0,0,0,.384.384c.384-.384,1.153-.768,1.537-1.537Z" transform="translate(191.825 -162.138)"/>
            <path id="Path_9610" data-name="Path 9610" class="cls-6" d="M75.921,226.3c-.768.384-1.153.768-1.921,1.153a.376.376,0,0,0,.384.384,3,3,0,0,0,1.537-1.537Z" transform="translate(191.541 -163.844)"/>
            <path id="Path_9611" data-name="Path 9611" class="cls-6" d="M75.921,225.6c-.768.384-1.153.768-1.921,1.153a.376.376,0,0,0,.384.384c.384-.384,1.153-.768,1.537-1.537Z" transform="translate(191.541 -165.833)"/>
            <path id="Path_9612" data-name="Path 9612" class="cls-7" d="M69.268,215.613h0l-.768,1.153s12.3,19.98,20.364,22.285C82.332,229.829,71.958,222.145,69.268,215.613Z" transform="translate(175.909 -195.037)"/>
            <path id="Path_9613" data-name="Path 9613" class="cls-8" d="M28.926,241.085c10.758-11.527,39.575-25.743,43.8-27.28,1.921-.768,2.305-1.537,1.921-2.305C43.143,221.874,24.7,242.238,24.7,242.238h0C25.853,243.391,27.39,243.391,28.926,241.085Z" transform="translate(51.419 -205.909)"/>
            <path id="Path_9614" data-name="Path 9614" class="cls-2" d="M20.6,231.048S32.511,224.9,61.328,224.9H181.205s33.427.384,33.427,27.664v9.99H20.6Z" transform="translate(39.766 -167.823)"/>
            <path id="Path_9615" data-name="Path 9615" class="cls-4" d="M58.853,246.48H50.4V211.9l8.453.384Z" transform="translate(124.464 -204.772)"/>
            <path id="Path_9616" data-name="Path 9616" d="M5,231.2a60.74,60.74,0,0,0,2.69,13.064H33.817V238.5H20.369v-5.379Z" transform="translate(-4.573 -149.917)"/>
            <path id="Path_9617" data-name="Path 9617" class="cls-9" d="M28.6,236.59h94.135V233.9H29.368Z" transform="translate(62.504 -142.243)"/>
            <path id="Path_9618" data-name="Path 9618" d="M84.106,226.5A31.67,31.67,0,0,0,52.6,258.006h63.013A31.4,31.4,0,0,0,84.106,226.5Z" transform="translate(130.717 -163.275)"/>
            <path id="Path_9619" data-name="Path 9619" class="cls-3" d="M107.591,254.6a26.9,26.9,0,1,1-26.9-26.9C95.68,227.322,107.591,239.617,107.591,254.6Z" transform="translate(134.128 -159.871)"/>
            <path id="Path_9620" data-name="Path 9620" class="cls-1" d="M72.453,262.106a15.753,15.753,0,1,1,15.753-15.753A15.824,15.824,0,0,1,72.453,262.106Z" transform="translate(142.37 -151.622)"/>
            <path id="Path_9621" data-name="Path 9621" class="cls-10" d="M64.211,242.621a4.439,4.439,0,0,1-4.611-4.611,4.611,4.611,0,1,1,9.221,0A4.439,4.439,0,0,1,64.211,242.621Z" transform="translate(150.613 -143.664)"/>
            <path id="Path_9622" data-name="Path 9622" d="M43.906,226.5A31.67,31.67,0,0,0,12.4,258.006H75.8A31.977,31.977,0,0,0,43.906,226.5Z" transform="translate(16.46 -163.275)"/>
            <path id="Path_9623" data-name="Path 9623" class="cls-3" d="M67.391,254.6a26.9,26.9,0,1,1-26.9-26.9C55.48,227.322,67.391,239.617,67.391,254.6Z" transform="translate(19.87 -159.871)"/>
            <path id="Path_9624" data-name="Path 9624" class="cls-1" d="M32.253,262.106a15.753,15.753,0,0,1,0-31.506,15.581,15.581,0,0,1,15.753,15.753A15.824,15.824,0,0,1,32.253,262.106Z" transform="translate(28.113 -151.622)"/>
            <path id="Path_9625" data-name="Path 9625" class="cls-10" d="M24.011,242.621a4.611,4.611,0,1,1,4.611-4.611A4.672,4.672,0,0,1,24.011,242.621Z" transform="translate(36.355 -143.664)"/>
            <path id="Path_9626" data-name="Path 9626" d="M88.311,234.305,76.784,232,69.1,241.99H86.39Z" transform="translate(177.614 -147.643)"/>
            <path id="Path_9627" data-name="Path 9627" class="cls-11" d="M30.258,219.4,26.8,222.858l2.305,1.921,4.226-1.537Z" transform="translate(57.388 -183.455)"/>
            <path id="Path_9628" data-name="Path 9628" class="cls-12" d="M40.464,229.029l-1.537-9.99c-.384-1.921-2.305-2.69-4.611-1.921-4.995,1.921-6.916,12.3-6.916,13.064,1.153,2.69,4.611,2.305,8.837,2.305C38.542,232.1,40.464,230.566,40.464,229.029Z" transform="translate(59.093 -190.779)"/>
            <path id="Path_9629" data-name="Path 9629" class="cls-4" d="M62.743,224.021a1.019,1.019,0,0,1-1.153,1.153H45.453a1.227,1.227,0,0,1-1.153-1.153h0a1.019,1.019,0,0,1,1.153-1.153L61.59,222.1c.384,0,1.537.384,1.153,1.921Z" transform="translate(107.127 -175.781)"/>
          </g>
          <path id="Path_9630" data-name="Path 9630" class="cls-2" d="M70.246,328.21a65.32,65.32,0,0,1-46.491-20.748A67.027,67.027,0,0,1,5.312,259.818C6.08,224.085,36.05,194.5,72.167,194.5H73.7a65.32,65.32,0,0,1,46.491,20.748,67.027,67.027,0,0,1,18.443,47.644c-.768,35.733-30.738,65.318-66.855,65.318Z" transform="translate(-3.732 -194.5)"/>
          <g id="Group_23983" data-name="Group 23983" transform="translate(6.175 4.595)">
            <g id="Group_23982" data-name="Group 23982">
              <g id="Group_23981" data-name="Group 23981">
                <path id="Path_9631" data-name="Path 9631" class="cls-1" d="M6.812,255.282a60.727,60.727,0,1,1,59.17,62.244C32.555,316.758,6.044,288.71,6.812,255.282Z" transform="translate(-5.644 -194.559)"/>
                <g id="Group_23980" data-name="Group 23980">
                  <path id="Path_9632" data-name="Path 9632" class="cls-3" d="M69.908,195.712a62.067,62.067,0,1,1-63.4,60.707C6.9,222.223,35.328,194.943,69.908,195.712ZM66.835,317.126a59.218,59.218,0,0,0,60.707-57.633c.768-32.659-25.359-59.939-57.633-60.707a59.19,59.19,0,0,0-3.074,118.341Z" transform="translate(-6.496 -195.696)"/>
                </g>
                <path id="Path_9633" data-name="Path 9633" class="cls-3" d="M8.313,251.12a54.768,54.768,0,1,1,53.407,56.1A54.621,54.621,0,0,1,8.313,251.12Z" transform="translate(-1.382 -190.013)"/>
              </g>
              <path id="Path_9634" data-name="Path 9634" class="cls-2" d="M67.47,259.586c0-13.832-11.142-18.443-21.132-22.285l.384-18.058c4.226,1.153,8.453,3.842,11.911,6.148l1.537,1.153,5.763-10.758-1.153-.768c-6.148-4.226-11.911-6.916-18.058-7.684V200.8H40.959v6.148c-11.911.384-21.132,8.837-21.132,19.6,0,12.679,11.527,17.674,20.364,20.748l-.384,20.364c-5.763-1.537-11.911-5.763-15.753-9.606l-1.537-1.537L15.6,266.886l1.153,1.153a44.609,44.609,0,0,0,23.053,11.142v6.532h5.763v-6.148C56.328,279.566,67.854,271.881,67.47,259.586Zm-34.2-32.659c0-4.995,4.226-8.069,8.069-8.453L40.959,235C36.732,233.459,33.274,230.769,33.274,226.927Zm12.679,41.5.384-18.827c4.611,1.921,8.453,4.611,8.453,10.374S50.564,268.039,45.954,268.423Z" transform="translate(19.38 -181.189)"/>
            </g>
          </g>
        </g>
      </g>
    </g>
  </g>
</svg>
