<svg xmlns="http://www.w3.org/2000/svg" width="1927.305" height="905.095" viewBox="0 0 1927.305 905.095">
  <g id="Group_23845" data-name="Group 23845" transform="translate(0 -175.187)">
    <g id="Group_23840" data-name="Group 23840" transform="translate(682 110)">
      <path id="Path_8355" data-name="Path 8355" d="M1245.273,970.281-.038,970.23c0-400.643,284.6-568.062,478.02-628.645,16.139-5.055-2.857,16.669,0,0C518.97,102.44,680.464-14.631,1245.3,125.563Z" fill="#e8f0ff"/>
      <path id="Path_8356" data-name="Path 8356" d="M397.713,878.688c-163.2-70-336.218,33.072-397.718,91.405l1245.215-3.905v-87.5c-104.4-150.4-275.83-62.667-348.5,0C714.713,773.888,488.213,835.021,397.713,878.688Z" fill="#d6e9f8"/>
      <path id="Path_8357" data-name="Path 8357" d="M47.476,728.645H1162.91v20H37.213Z" transform="translate(64 17)" fill="#d5e3ff"/>
      <rect id="Rectangle_1859" data-name="Rectangle 1859" width="7.059" height="84.167" transform="translate(1133.15 644.478)" fill="#5fdde3"/>
      <path id="Path_8358" data-name="Path 8358" d="M1124.09,579.068c-34.85,54.615-1.86,65.13,14.69,68.505a4.768,4.768,0,0,0,1.66.039c36.04-5.437,35.03-30.542,29.41-49.346,0-60.588-22.54-67.157-29.77-71.329a2.064,2.064,0,0,0-1.08-.284C1118.08,527.281,1112.39,561.51,1124.09,579.068Z" fill="#1d9ca2"/>
      <path id="Path_8359" data-name="Path 8359" d="M1135.2,646.956c3.2-20.292,9.16-66.238-3.78-75.063-5.34-7.316-12.4-23.086-6.69-37.272,3.45-4.577,8.23-7.563,14.28-7.744a2.054,2.054,0,0,1,1.07.284c.56.324,1.21.661,1.94,1.038,8.65,4.476,27.83,14.4,27.83,70.266,5.62,18.8,6.63,43.895-29.41,49.33a4.768,4.768,0,0,1-1.66-.039C1137.65,647.526,1136.45,647.263,1135.2,646.956Z" fill="#3db9bf" fill-rule="evenodd"/>
      <rect id="Rectangle_1860" data-name="Rectangle 1860" width="3.704" height="44.167" transform="translate(1171.54 922.478)" fill="#5fdde3"/>
      <path id="Path_8360" data-name="Path 8360" d="M1166.78,888.154c-18.01,28.227-1.49,34.005,7.31,35.865a4.577,4.577,0,0,0,1.67.041c18.51-2.977,17.96-16.034,15.04-25.832,0-31.155-11.36-35.091-15.39-37.3a2.016,2.016,0,0,0-1.08-.271C1163.58,861.279,1160.69,879.018,1166.78,888.154Z" fill="#1d9ca2"/>
      <path id="Path_8361" data-name="Path 8361" d="M1172.61,923.778c1.68-10.648,4.81-34.758-1.98-39.389-2.81-3.839-6.51-12.115-3.51-19.559a9.559,9.559,0,0,1,7.21-4.051,2.016,2.016,0,0,1,1.08.27c.24.13.5.265.78.411,4.54,2.349,14.61,7.555,14.61,36.873,2.92,9.794,3.47,22.847-15.04,25.823a4.577,4.577,0,0,1-1.67-.041C1173.62,924.015,1173.12,923.9,1172.61,923.778Z" fill="#3db9bf" fill-rule="evenodd"/>
      <rect id="Rectangle_1861" data-name="Rectangle 1861" width="3.704" height="44.167" transform="translate(83.535 922.478)" fill="#5fdde3"/>
      <path id="Path_8362" data-name="Path 8362" d="M78.781,888.154c-18.011,28.227-1.487,34.005,7.31,35.865a4.578,4.578,0,0,0,1.671.041c18.5-2.977,17.96-16.034,15.035-25.832,0-31.155-11.357-35.091-15.386-37.3a2.015,2.015,0,0,0-1.077-.271C75.577,861.279,72.692,879.018,78.781,888.154Z" fill="#1d9ca2"/>
      <path id="Path_8363" data-name="Path 8363" d="M84.61,923.778c1.683-10.648,4.808-34.758-1.984-39.389-2.8-3.839-6.5-12.115-3.507-19.559a9.559,9.559,0,0,1,7.214-4.051,2.013,2.013,0,0,1,1.077.27c.236.13.5.265.781.411,4.541,2.349,14.606,7.555,14.606,36.873,2.925,9.794,3.469,22.847-15.035,25.823a4.575,4.575,0,0,1-1.67-.041C85.618,924.015,85.122,923.9,84.61,923.778Z" fill="#3db9bf" fill-rule="evenodd"/>
      <path id="Path_8364" data-name="Path 8364" d="M183.136,649.657H300.655c3.586,0,4.141,2.173,6.515,5.659l15.5,26.325h21.665c3.586,0,6.515,2.425,6.515,5.457v34.459c0,2.981-2.929,5.457-6.515,5.457h-161.2a5.568,5.568,0,0,1-5.3-3.79c0-.05,0-.05-.051-.1,0-.05-.05-.1-.05-.151a4.376,4.376,0,0,1-.253-1.415V655.266A5.7,5.7,0,0,1,183.136,649.657Z" fill="#31a1f4"/>
      <path id="Path_8365" data-name="Path 8365" d="M275.455,719.738h31.816c4.04,0,7.272-4.295,7.272-9.6V680.933c0-5.3-3.282-9.6-7.272-9.6H275.455c-4.04,0-7.272,4.295-7.272,9.6v29.205C268.183,715.443,271.465,719.738,275.455,719.738Zm31.816-45.879c2.576,0,4.747,3.285,4.747,7.125v29.2c0,3.84-2.171,7.125-4.747,7.125H275.455c-2.576,0-4.747-3.234-4.747-7.125V680.933c0-3.84,2.171-7.124,4.747-7.124h31.816Z" fill="#99e3e9"/>
      <path id="Path_8366" data-name="Path 8366" d="M296.615,653.5c2.525,0,2.929,1.567,4.6,3.941,0,0,11.565,18.19,11.919,20.262.4,2.172-2.071,3.941-4.6,3.941H268.182V653.5Z" fill="#daf8f2"/>
      <path id="Path_8367" data-name="Path 8367" d="M268.182,682.651h40.5a5.953,5.953,0,0,0,4.545-2.071,3.749,3.749,0,0,0,.808-3.032c-.4-2.122-9.9-17.533-11.817-20.615-.3-.455-.556-.859-.808-1.263-1.061-1.769-1.919-3.133-4.445-3.133H268.182v30.114Zm28.786-28.244c1.516,0,1.869.606,2.93,2.273.252.405.505.809.808,1.264,5.4,8.741,11.312,18.7,11.565,19.958a1.668,1.668,0,0,1-.455,1.465,4.036,4.036,0,0,1-3.131,1.364H270.051V654.407Z" fill="#99e3e9"/>
      <path id="Path_8368" data-name="Path 8368" d="M350.349,689.472c0-.2-.05-.4-.05-.555a.85.85,0,0,1,.353-.051.98.98,0,0,1,1.061.91v9.65a.98.98,0,0,1-1.061.91.741.741,0,0,1-.353-.051,2.56,2.56,0,0,0,.1-.606V689.472Z" fill="#c6c6c6"/>
      <path id="Path_8369" data-name="Path 8369" d="M348.38,687.2a2.033,2.033,0,0,1,1.919,1.718,2.092,2.092,0,0,1,.05.556v10.155a2.508,2.508,0,0,1-.1.607,2.078,2.078,0,0,1-1.919,1.667,2.118,2.118,0,0,1-1.97-2.274V689.473A2.156,2.156,0,0,1,348.38,687.2Z" fill="#f6f6f6"/>
      <path id="Path_8370" data-name="Path 8370" d="M188.288,707.511h4.191a2.973,2.973,0,0,1,2.778,3.183,43.948,43.948,0,0,1-2.172,4.194c-.858,1.465-1.767,2.576-3.333,2.576H177.48v-10h10.808Z" fill="#dadada"/>
      <path id="Path_8371" data-name="Path 8371" d="M175.713,724.285a2.717,2.717,0,0,0,2.727,2.729H348.986a2.728,2.728,0,0,0,0-5.457H178.491A2.76,2.76,0,0,0,175.713,724.285Z" fill="#273438"/>
      <path id="Path_8372" data-name="Path 8372" d="M177.531,708.521h9.7V716.4h-9.7Z" fill="#de2d32"/>
      <path id="Path_8373" data-name="Path 8373" d="M191.015,708.521a2.5,2.5,0,0,1,2.525,2.526,35.207,35.207,0,0,1-1.97,3.335c-.808,1.162-1.616,2.072-3.03,2.072h-1.363v-7.882h3.838Z" fill="#ff9409"/>
      <path id="Path_8374" data-name="Path 8374" d="M318.079,708.066a18.95,18.95,0,0,1,18.938,18.948H299.191A18.875,18.875,0,0,1,318.079,708.066Z" fill="#037477"/>
      <path id="Path_8375" data-name="Path 8375" d="M301.514,726.964a16.565,16.565,0,1,0,16.564-16.573A16.577,16.577,0,0,0,301.514,726.964Z" fill="#273438"/>
      <path id="Path_8376" data-name="Path 8376" d="M213.438,708.066a18.95,18.95,0,0,1,18.938,18.948H194.55A18.907,18.907,0,0,1,213.438,708.066Z" fill="#037477"/>
      <path id="Path_8377" data-name="Path 8377" d="M196.874,726.964a16.565,16.565,0,1,0,16.564-16.573A16.577,16.577,0,0,0,196.874,726.964Z" fill="#273438"/>
      <path id="Path_8378" data-name="Path 8378" d="M305.755,726.964a12.322,12.322,0,1,0,12.323-12.329A12.31,12.31,0,0,0,305.755,726.964Z" fill="#00a9b8"/>
      <path id="Path_8379" data-name="Path 8379" d="M307.422,726.963a10.606,10.606,0,1,0,10.606-10.61A10.607,10.607,0,0,0,307.422,726.963Z" fill="#ededed"/>
      <path id="Path_8380" data-name="Path 8380" d="M315.149,726.964a2.929,2.929,0,1,0,2.929-2.931A2.931,2.931,0,0,0,315.149,726.964Z" fill="#273438"/>
      <path id="Path_8381" data-name="Path 8381" d="M201.065,726.964a12.323,12.323,0,1,0,12.322-12.329A12.31,12.31,0,0,0,201.065,726.964Z" fill="#00a9b8"/>
      <path id="Path_8382" data-name="Path 8382" d="M202.732,726.963a10.606,10.606,0,1,0,10.605-10.61A10.606,10.606,0,0,0,202.732,726.963Z" fill="#ededed"/>
      <path id="Path_8383" data-name="Path 8383" d="M210.459,726.964a2.929,2.929,0,1,0,2.929-2.931A2.931,2.931,0,0,0,210.459,726.964Z" fill="#273438"/>
      <path id="Path_8384" data-name="Path 8384" d="M207.58,671.485h10.908V660.622a2.049,2.049,0,0,1,2.071-2.072h6.919a2.049,2.049,0,0,1,2.07,2.072v10.913h10.909a2.049,2.049,0,0,1,2.07,2.072v6.922a2.049,2.049,0,0,1-2.07,2.072H229.548v10.914a2.048,2.048,0,0,1-2.07,2.071h-6.919a2.048,2.048,0,0,1-2.071-2.071V682.6H207.58a2.049,2.049,0,0,1-2.071-2.072v-6.972A2.081,2.081,0,0,1,207.58,671.485Z" fill="#fff"/>
      <path id="Path_8385" data-name="Path 8385" d="M285.707,643.645a3.031,3.031,0,0,1,0,6.063h-2.878l-4.647-6.063Z" fill="#1d15b7"/>
      <path id="Path_8386" data-name="Path 8386" d="M261.567,643.645h14.14l4.7,6.012H261.567a3.006,3.006,0,1,1,0-6.012Z" fill="#e50e28"/>
      <path id="Path_8387" data-name="Path 8387" d="M278.181,643.645l4.647,6.012H280.4l-4.7-6.012Z" fill="#9d9d9c"/>
      <path id="Path_8388" data-name="Path 8388" d="M832.557,207.949H776.78v499.76h55.777Z" fill="#e6e7e8"/>
      <path id="Path_8389" data-name="Path 8389" d="M953.874,635.521H850.686v87.458H953.874Z" fill="#8e5024"/>
      <path id="Path_8390" data-name="Path 8390" d="M953.873,520.3H850.685v87.458H953.873Z" fill="#8e5024"/>
      <path id="Path_8391" data-name="Path 8391" d="M814.429,516.136h-72.51V635.522h72.51Z" fill="#fff"/>
      <path id="Path_8392" data-name="Path 8392" d="M775.388,521.689H747.5V567.5h27.889Z" fill="#017d78"/>
      <path id="Path_8393" data-name="Path 8393" d="M808.852,521.689H780.964V567.5h27.888Z" fill="#017d78"/>
      <path id="Path_8394" data-name="Path 8394" d="M808.852,577.217H780.964v45.811h27.888Z" fill="#017d78"/>
      <path id="Path_8395" data-name="Path 8395" d="M775.388,577.217H747.5v45.811h27.889Z" fill="#017d78"/>
      <path id="Path_8396" data-name="Path 8396" d="M711.243,513.358h-72.51V635.521h72.51Z" fill="#fff"/>
      <path id="Path_8397" data-name="Path 8397" d="M672.2,518.911H644.31v47.2H672.2Z" fill="#017d78"/>
      <path id="Path_8398" data-name="Path 8398" d="M705.666,518.911H677.778v47.2h27.888Z" fill="#017d78"/>
      <path id="Path_8399" data-name="Path 8399" d="M705.666,575.828H677.778v47.2h27.888Z" fill="#017d78"/>
      <path id="Path_8400" data-name="Path 8400" d="M672.2,575.828H644.31v47.2H672.2Z" fill="#017d78"/>
      <path id="Path_8401" data-name="Path 8401" d="M611.539,450.23H999.19V436.348H611.539Z" fill="#22275a"/>
      <path id="Path_8402" data-name="Path 8402" d="M611.555,732.7l387.847.442-.2-470.247H611.555Z" fill="#c4d7fc"/>
      <path id="Path_8403" data-name="Path 8403" d="M610.845,271.808l195.22-109.669L999.891,271.808Z" fill="#a0bff8"/>
      <path id="Path_8404" data-name="Path 8404" d="M867.419,498.087V717.426H750.287V498.087ZM860.447,709.1V621.639H757.259V709.1Zm0-115.223V506.417H757.259v87.457Z" fill="#fff"/>
      <path id="Path_8405" data-name="Path 8405" d="M860.447,621.639H757.259V709.1H860.447Z" fill="#c4d7fc"/>
      <path id="Path_8406" data-name="Path 8406" d="M860.447,506.417H757.259v87.458H860.447Z" fill="#c4d7fc"/>
      <path id="Path_8407" data-name="Path 8407" d="M707.06,513.358H634.549V621.639H707.06Z" fill="#fff"/>
      <path id="Path_8408" data-name="Path 8408" d="M668.014,521.687H640.125v41.647h27.889Z" fill="#017d78"/>
      <path id="Path_8409" data-name="Path 8409" d="M701.482,521.687H673.593v41.647h27.889Z" fill="#017d78"/>
      <path id="Path_8410" data-name="Path 8410" d="M701.482,571.664H673.593V613.31h27.889Z" fill="#017d78"/>
      <path id="Path_8411" data-name="Path 8411" d="M668.014,571.664H640.125V613.31h27.889Z" fill="#017d78"/>
      <path id="Path_8412" data-name="Path 8412" d="M707.06,513.358H634.549V621.639H707.06Z" fill="#fff"/>
      <path id="Path_8413" data-name="Path 8413" d="M668.014,521.687H640.125v41.647h27.889Z" fill="#c4d7fc"/>
      <path id="Path_8414" data-name="Path 8414" d="M701.482,521.687H673.593v41.647h27.889Z" fill="#c4d7fc"/>
      <path id="Path_8415" data-name="Path 8415" d="M701.482,521.687l-13.944,20.824-13.945,20.823V521.687Z" fill="#c4d7fc"/>
      <path id="Path_8416" data-name="Path 8416" d="M701.482,571.664H673.593V613.31h27.889Z" fill="#017d78"/>
      <path id="Path_8417" data-name="Path 8417" d="M701.482,571.664H673.593V613.31h27.889Z" fill="#c4d7fc"/>
      <path id="Path_8418" data-name="Path 8418" d="M668.014,571.664H640.125V613.31h27.889Z" fill="#c4d7fc"/>
      <path id="Path_8419" data-name="Path 8419" d="M640.125,613.31V571.664h27.889L655.464,591.1Z" fill="#c4d7fc"/>
      <path id="Path_8420" data-name="Path 8420" d="M976.185,513.358H903.674V621.639h72.511Z" fill="#fff"/>
      <path id="Path_8421" data-name="Path 8421" d="M937.139,521.687H909.25v41.647h27.889Z" fill="#017d78"/>
      <path id="Path_8422" data-name="Path 8422" d="M970.608,521.687H942.719v41.647h27.889Z" fill="#017d78"/>
      <path id="Path_8423" data-name="Path 8423" d="M970.608,571.664H942.719V613.31h27.889Z" fill="#017d78"/>
      <path id="Path_8424" data-name="Path 8424" d="M937.139,571.664H909.25V613.31h27.889Z" fill="#017d78"/>
      <path id="Path_8425" data-name="Path 8425" d="M976.185,513.358H903.674V621.639h72.511Z" fill="#fff"/>
      <path id="Path_8426" data-name="Path 8426" d="M937.139,521.687H909.25v41.647h27.889Z" fill="#c4d7fc"/>
      <path id="Path_8427" data-name="Path 8427" d="M970.608,521.687H942.719v41.647h27.889Z" fill="#c4d7fc"/>
      <path id="Path_8428" data-name="Path 8428" d="M970.608,521.687l-13.944,20.824-13.945,20.823V521.687Z" fill="#c4d7fc"/>
      <path id="Path_8429" data-name="Path 8429" d="M970.608,571.664H942.719V613.31h27.889Z" fill="#017d78"/>
      <path id="Path_8430" data-name="Path 8430" d="M970.608,571.664H942.719V613.31h27.889Z" fill="#c4d7fc"/>
      <path id="Path_8431" data-name="Path 8431" d="M937.139,571.664H909.25V613.31h27.889Z" fill="#c4d7fc"/>
      <path id="Path_8432" data-name="Path 8432" d="M909.25,613.31V571.664h27.889L924.589,591.1Z" fill="#c4d7fc"/>
      <path id="Path_8433" data-name="Path 8433" d="M611.539,450.23H999.19V436.348H611.539Z" fill="#a0bff8"/>
      <path id="Path_8434" data-name="Path 8434" d="M808.852,149.645H801.88l-212.2,119a9.88,9.88,0,0,0-4.055,12.931,15.2,15.2,0,0,0,21.2,6.568L806.063,174.633,1014.63,292.114a4,4,0,0,0,5.39-1.421l7.34-12.18a6,6,0,0,0-2.22-8.338Z" fill="#6f9df5"/>
      <path id="Path_8435" data-name="Path 8435" d="M863.233,607.758a6.972,6.972,0,1,1-6.972-6.942A6.573,6.573,0,0,1,863.233,607.758Z" fill="#e3216a"/>
      <path id="Path_8436" data-name="Path 8436" d="M384.046,733.14H611.555V448.662H384.046Z" fill="#c1ddf2"/>
      <path id="Path_8437" data-name="Path 8437" d="M611.555,361.04h-158.8l-86.04,88.442H611.555Z" fill="#6f9df5"/>
      <rect id="Rectangle_1862" data-name="Rectangle 1862" width="46.585" height="281.502" transform="translate(430.632 449.73)" fill="#b3cbf9"/>
      <rect id="Rectangle_1863" data-name="Rectangle 1863" width="46.585" height="281.502" transform="translate(514.052 449.73)" fill="#b3cbf9"/>
      <path id="Path_8438" data-name="Path 8438" d="M1226.91,733.388,999.4,733.14V450.808H1226.91Z" fill="#c1ddf2"/>
      <path id="Path_8439" data-name="Path 8439" d="M999.4,362.119h158.8l86.04,88.441H999.4Z" fill="#6f9df5"/>
      <rect id="Rectangle_1864" data-name="Rectangle 1864" width="46.585" height="281.502" transform="translate(1180.33 732.31) rotate(180)" fill="#b3cbf9"/>
      <rect id="Rectangle_1865" data-name="Rectangle 1865" width="46.585" height="281.502" transform="translate(1096.91 732.31) rotate(180)" fill="#b3cbf9"/>
      <path id="Path_8440" data-name="Path 8440" d="M819.759,303.877H792.281v30H762.144v27.356h30.137v30h27.478v-30H849.9V333.88H819.759Z" fill="#e8efff" fill-rule="evenodd"/>
      <path id="Path_8441" data-name="Path 8441" d="M535.97,549.2l5.179-37.472,31.5-1.873c4.488,2.248,9.206,28.728,9.494,40.281C559.706,556.226,551.938,556.226,535.97,549.2Z" fill="#2d110d"/>
      <path id="Path_8442" data-name="Path 8442" d="M559.61,555.035c-33.408-4.806-30.775,62.394-23.908,94.633h49.969c22.6-94.633-8.8-94.633-26.061-94.633Z" fill="#a2e7ea"/>
      <path id="Path_8443" data-name="Path 8443" d="M551.074,537.959l-.834,17.082c9.926,29.977,18.988,8.431,21.578-.937l-2.187-18.487Z" fill="#f4b5ad"/>
      <path id="Path_8444" data-name="Path 8444" d="M519.378,627.793a239,239,0,0,0,5.355,25.538L512.92,701.869c5.344,3.663,16.988,9.891,20.814,5.495s12.844-5.495,16.876-5.495l9-118.75-9-28.085c-8.125,0-18.929,4.361-25.923,17.192l-2.2,3.261-20.872,59.061a9,9,0,0,0,4.777,11.2l2.594,1.173Z" fill="#3db9bf" fill-rule="evenodd"/>
      <path id="Path_8445" data-name="Path 8445" d="M528.4,666.914l-17.178-26.9a4.695,4.695,0,0,0-7.976,4.953l16.5,27.325a5.093,5.093,0,1,0,8.652-5.374Z" fill="#f4b5ad"/>
      <path id="Path_8446" data-name="Path 8446" d="M531.614,667.265c0,2.04.04,4.018-1.194,5.7a9.1,9.1,0,0,1-3.31,2.914c-1.415.753-2.886,1.369-4.327,2.057-.86.41-1.067.73-2.046.73" fill="none" stroke="#a2e7ea" stroke-linecap="round" stroke-linejoin="round" stroke-width="1"/>
      <path id="Path_8447" data-name="Path 8447" d="M544.211,536.741c7.768,16.455,21.657,12.314,25.812,5.768s4.712-17.962,4.124-19.21c-1.579-7.915-11.239-13.713-16.26-13.065a1.453,1.453,0,0,0-.454.142l-10.717,5.231C540.286,520.161,542.773,531.143,544.211,536.741Z" fill="#f4b5ad"/>
      <path id="Path_8448" data-name="Path 8448" d="M541.148,529.06c-3.6-10.929-2.589-33.724,26.325-25.762,4.6,2.03,12,10.773,6.474,27.635l-2.535-4.841c-7.488-4.26-12.638-9.712-13.955-14.132-1.74,8.141-7.655,14.715-14.895,14.431Z" fill="#2d110d" fill-rule="evenodd"/>
      <path id="Path_8449" data-name="Path 8449" d="M604.537,631.382c-1.062,6.262-2.519,13-4.425,20.239l11.813,48.538c-5.344,3.663-16.989,9.89-20.814,5.495s-12.844-5.495-16.876-5.495l-9-118.75,6.123-27.525c10.882,0,27.714,7.6,33.463,32.951l10.917,33.5a4,4,0,0,1-1.569,4.557Z" fill="#3db9bf" fill-rule="evenodd"/>
      <path id="Path_8450" data-name="Path 8450" d="M573.907,595.323a2.966,2.966,0,1,1-2.953-3.247A3.11,3.11,0,0,1,573.907,595.323Z" fill="none" stroke="#fff" stroke-width="1"/>
      <ellipse id="Ellipse_632" data-name="Ellipse 632" cx="1.726" cy="1.874" rx="1.726" ry="1.874" transform="translate(569.229 593.449)" fill="#fff"/>
      <rect id="Rectangle_1866" data-name="Rectangle 1866" width="2.589" height="1.874" rx="0.937" transform="translate(547.65 584.082)" fill="#c4d7fc"/>
      <path id="Path_8451" data-name="Path 8451" d="M520.567,653.332a206.479,206.479,0,0,1-6.365-25.539l-12.356,19.128-3.331-1.268a9,9,0,0,1-5.1-11.9l24.474-58.269,2.623-3.267a39.262,39.262,0,0,1,5.215-6.462l8.975-5.1c6.326,5.933,16.282,23.233,10.537,46.839-1.876,7.708-3.751,13.914-5.334,19.152-4.478,14.815-6.616,21.889.2,33.308,9.165,15.344-5.931,40.841-20.7,47.629a67.815,67.815,0,0,1-12.884-5.721Z" fill="#4bcdd3" fill-rule="evenodd"/>
      <path id="Path_8452" data-name="Path 8452" d="M542.9,585.018h-.661a3,3,0,0,1-2.943-3.585l2.161-10.876a4.145,4.145,0,0,1,4.065-3.338h0a4.144,4.144,0,0,1,4.045,3.24l2.441,10.9a3,3,0,0,1-2.928,3.655h-.238" fill="none" stroke="#fff" stroke-width="1"/>
      <path id="Path_8453" data-name="Path 8453" d="M545.924,567.235l-.948-2.477c-.784-2.049-1.089-4.423.11-6.261.95-1.456,2.438-2.6,5.154-3.456m21.578-1.405h0c12.185,3.607-4.557,18.143-3.8,30.827a21.08,21.08,0,0,0,2.07,7.581" fill="none" stroke="#fff" stroke-width="1"/>
      <rect id="Rectangle_1867" data-name="Rectangle 1867" width="2.589" height="1.874" rx="0.937" transform="translate(541.61 584.082)" fill="#c4d7fc"/>
      <path id="Path_8454" data-name="Path 8454" d="M600.111,651.621c1.906-7.241,3.363-13.976,4.425-20.239l9.632-6.489a4,4,0,0,0,1.569-4.556l-10.916-33.5c-3.8-16.738-12.423-25.738-20.979-29.921h-1.235c-4.172,7.962-9.322,28.01,3.453,44.5s.431,45.59-7.337,58.08c-.506,7.142,1.348,25.134,11.672,45.431a8.793,8.793,0,0,1,.715.731c3.825,4.4,15.47-1.832,20.814-5.495Z" fill="#4bcdd3" fill-rule="evenodd"/>
      <rect id="Rectangle_1868" data-name="Rectangle 1868" width="17.624" height="26.56" rx="2.995" transform="translate(579.941 618.323) rotate(34.997)" fill="#88c4ff"/>
      <rect id="Rectangle_1869" data-name="Rectangle 1869" width="14.42" height="23.005" rx="2.995" transform="translate(580.227 620.679) rotate(34.954)" fill="#fff"/>
      <rect id="Rectangle_1870" data-name="Rectangle 1870" width="9.613" height="4.424" rx="2.133" transform="translate(584.082 619.362) rotate(34.954)" fill="#c1d4ff"/>
      <rect id="Rectangle_1871" data-name="Rectangle 1871" width="11.216" height="1.77" rx="0.853" transform="translate(580.126 623.838) rotate(34.954)" fill="#88c4ff"/>
      <rect id="Rectangle_1872" data-name="Rectangle 1872" width="11.216" height="1.77" rx="0.853" transform="translate(577.771 627.402) rotate(34.954)" fill="#88c4ff"/>
      <rect id="Rectangle_1873" data-name="Rectangle 1873" width="11.216" height="1.77" rx="0.853" transform="translate(575.416 630.965) rotate(34.954)" fill="#88c4ff"/>
      <rect id="Rectangle_1874" data-name="Rectangle 1874" width="11.216" height="1.77" rx="0.853" transform="translate(573.531 633.815) rotate(34.954)" fill="#88c4ff"/>
      <rect id="Rectangle_1875" data-name="Rectangle 1875" width="11.216" height="1.77" rx="0.853" transform="translate(571.175 637.379) rotate(34.954)" fill="#88c4ff"/>
      <path id="Path_8455" data-name="Path 8455" d="M618.829,639.132l-3.716-14.521a3.005,3.005,0,0,0-2.839-2.341H608.96a3.018,3.018,0,0,0-2.669,4.054l5.633,17.96-20.283-4.175c-3.165-2.824-9.84-8.1-11.221-6.6s-.575.937,0,.469c.288,1.391,1.3,4.37,3.021,5.152l-1.295,1.4c-1.726,4.684,3.74,6.87,6.905,8.431l29.337,5.307a2.961,2.961,0,0,0,3.207-3.8Z" fill="#f4b5ad"/>
      <rect id="Rectangle_1876" data-name="Rectangle 1876" width="303" height="17.405" transform="translate(383.713 624.618)" fill="#88c4ff"/>
      <rect id="Rectangle_1877" data-name="Rectangle 1877" width="225.47" height="94.144" transform="translate(416.94 642.023)" fill="#f8faff"/>
      <rect id="Rectangle_1878" data-name="Rectangle 1878" width="49.841" height="35.6" transform="translate(423.269 586.645)" fill="#fff"/>
      <rect id="Rectangle_1879" data-name="Rectangle 1879" width="54.588" height="3.164" transform="translate(420.896 621.454)" fill="#b1cafa"/>
      <circle id="Ellipse_633" data-name="Ellipse 633" cx="2.769" cy="2.769" r="2.769" transform="translate(445.42 603.258)" fill="#b3cbf9"/>
      <path id="Path_8456" data-name="Path 8456" d="M538.717,661.01H520.633v19.746H500.8v18h19.834v19.746h18.084V698.759h19.834v-18H538.717Z" fill="#b1cafa" fill-rule="evenodd"/>
      <ellipse id="Ellipse_634" data-name="Ellipse 634" cx="31.5" cy="9" rx="31.5" ry="9" transform="translate(909.713 931.645)" fill="#abd9ff"/>
      <path id="Path_8457" data-name="Path 8457" d="M935.734,903.232l-8.462,1.975,1.016,32.357,5.644-1.691Z" fill="#e7b28b"/>
      <path id="Path_8458" data-name="Path 8458" d="M927.835,934.7c2.257-1.058,4.882-1.018,5.642-1.852,1.128,0,1.128,1.058,1.128,5.536-.3,1.429-4.686,2.262-6.838,2.5-5.6.823-7.941.344-8.679-.484-.953-1.068,1.151-1.962,2.561-2.2C925.173,937.6,927.306,935.7,927.835,934.7Z" fill="#3da2f6"/>
      <path id="Path_8459" data-name="Path 8459" d="M919.168,939.24c8.55.964,13.932-.716,15.437-1.628v.774a.962.962,0,0,1-.193.393c-1.858,1-7.077,2.226-15.548,1.221A.81.81,0,0,1,919.168,939.24Z" fill="#fff" fill-rule="evenodd"/>
      <path id="Path_8460" data-name="Path 8460" d="M937.99,910.848l4.226-86.026L914.922,818.3l10.88,92.549Z" fill="#9a1898"/>
      <path id="Path_8461" data-name="Path 8461" d="M916.083,828.173l9.719,82.675h11.53l.05-.113c-2.65-1.937-7.706-8.317-6.727-18.347a67.417,67.417,0,0,0,1.457-10.19c.36-5.671-1.906-11.683-4.168-17.686-2.1-5.566-4.192-11.124-4.187-16.392,0-2.513,1.006-4.986,2-7.439,1.253-3.086,2.492-6.141,1.709-9.2a5.538,5.538,0,0,0-2.012-3.3Z" fill="#a917a7" fill-rule="evenodd"/>
      <path id="Path_8462" data-name="Path 8462" d="M951.761,901.719l-7.943,3.224,2.029,29.472,6.405-1.619Z" fill="#e7b28b"/>
      <path id="Path_8463" data-name="Path 8463" d="M945.889,930.881c2.256-1.128,4.881-1.085,5.641-1.974,1.129,0,1.129,1.128,1.129,5.9-.3,1.524-4.686,2.413-6.839,2.667-5.639.884-7.975.359-8.7-.536-.931-1.158,1.211-2.069,2.672-2.346C943.265,933.938,945.364,931.933,945.889,930.881Z" fill="#3da2f6"/>
      <path id="Path_8464" data-name="Path 8464" d="M937.219,935.72c8.554,1.03,13.937-.764,15.441-1.736v.828a1.067,1.067,0,0,1-.192.416c-1.856,1.063-7.077,2.376-15.552,1.3A.877.877,0,0,1,937.219,935.72Z" fill="#fff" fill-rule="evenodd"/>
      <path id="Path_8465" data-name="Path 8465" d="M955.648,909.267l1.67-87.535-27.295-6.523,9.661,95.357Z" fill="#a917a7"/>
      <path id="Path_8466" data-name="Path 8466" d="M955.656,908.854c-2.774-1.795-8.12-7.937-7.878-18.606,0-.128.007-.363.016-.69.029-1.072.084-3.13.03-5.6a105.535,105.535,0,0,0-2-15.79c-1.092-6.17-2.188-12.355-2-18.337.4-12.625,1.744-24.825,5.177-23.19h8.222Z" fill="#9a1898" fill-rule="evenodd"/>
      <path id="Path_8467" data-name="Path 8467" d="M878.332,761.558l10.92,7.822.045.046a2.052,2.052,0,0,0,2.7.176l11.873-8.6,4,2.552c3.336,2.4,2.111,8.2,1.081,10.8l-11.385,5.9a10,10,0,0,1-12.159-2.329l-11.979-13.822c-5.381.011-3.955-6.263-2.637-7.252l-2.443-3.054a.4.4,0,0,1,.472-.611l5.268,2.347C877.887,754.905,878.536,759.442,878.332,761.558Z" fill="#f4b5ad"/>
      <path id="Path_8468" data-name="Path 8468" d="M931.6,721.45c-4.211,2.19-12.307,15.692-.615,19.692l9.388-.507C944.079,727.323,941.075,721.45,931.6,721.45Z" fill="#f4b5ad"/>
      <path id="Path_8469" data-name="Path 8469" d="M962.853,744.625c-3.566-4.889-9.434-13.847-7.981-24.045-1.357-3.322-6.112-8.222-14.4-1.8q-.21-.114-.415-.213c-9.3-3.059-10.855,2.705-11.614,5.51-.07.258-.132.49-.194.688l3.069,1.577,4.555,2.823c5.284-3.705,6.377.353,3.28,3.529l2.366,3.683a16.033,16.033,0,0,0,3.919-5.192c-1.752,9.257-.178,26.091,14.184,25.187v-2.835c.535.183,1.075-.842.668-1.235-1.188-1.149-2.088-2.424-1.888-3.489l2.668-.272A2.389,2.389,0,0,0,962.853,744.625ZM946.219,728.15a10.592,10.592,0,0,1,.6-1.428c2.821-4.781.014-4.908-2.234-4.249A8.739,8.739,0,0,1,946.219,728.15Z" fill="#311831" fill-rule="evenodd"/>
      <path id="Path_8470" data-name="Path 8470" d="M946.159,742.725c7.725,1.888,23.415,10.815,24.376,31.414l-13.218-2.06c4.12,12.246,8.618,47.311,1.888,57.336H915.424a71.368,71.368,0,0,1,1.974-30.058l.436-1.528a119.508,119.508,0,0,1-6.6-24.93L906,778.431l-8.755-13.562L916.552,747.6l3.132-1.124a9.441,9.441,0,0,1,1.387-.5l.2-.07v.019l.079-.019,15.542-3.183Z" fill="#ff8100" fill-rule="evenodd"/>
      <path id="Path_8471" data-name="Path 8471" d="M931.053,745.717c8.412,10.3,9.5,4.812,9.9-1.253l-.288-5.3h-3.09l-6.523-3.09C930.881,738.132,931.053,738.2,931.053,745.717Z" fill="#f4b5ad"/>
      <path id="Path_8472" data-name="Path 8472" d="M946.159,742.725c7.725,1.888,23.415,10.815,24.376,31.414l-13.218-2.06c4.12,12.246,8.618,47.311,1.888,57.336H915.424a71.368,71.368,0,0,1,1.974-30.058l.436-1.528a119.508,119.508,0,0,1-6.6-24.93L906,778.431l-8.755-13.562L916.552,747.6l3.132-1.124a9.441,9.441,0,0,1,1.387-.5l.2-.07v.019l.079-.019,15.542-3.183Z" fill="#ff982f" fill-rule="evenodd"/>
      <path id="Path_8473" data-name="Path 8473" d="M920.592,829.415v-.686l1.754-7.013c1.7-6.8.761-13.951-.986-20.743-3.29-12.792-3.448-27.506-2.96-34.581,6.014-10.526,22.972-6.683,30.7-3.446,6.766,1.5,9.5,44.482,10.024,65.783l.179.539-.1.147Z" transform="translate(2 1)" fill="#ffa64b" fill-rule="evenodd"/>
      <rect id="Rectangle_1880" data-name="Rectangle 1880" width="25.089" height="33.87" rx="6" transform="translate(954.007 797.639) rotate(167.286)" fill="#fff"/>
      <rect id="Rectangle_1881" data-name="Rectangle 1881" width="12.545" height="2.927" rx="1.464" transform="translate(940.302 767.294) rotate(167.286)" fill="#fbb26f"/>
      <rect id="Rectangle_1882" data-name="Rectangle 1882" width="21.744" height="27.598" transform="translate(952.007 796.374) rotate(167.286)" fill="#50bffa"/>
      <rect id="Rectangle_1883" data-name="Rectangle 1883" width="17.981" height="4.182" transform="translate(946.141 777.979) rotate(167.286)" fill="#fff" opacity="0.7"/>
      <rect id="Rectangle_1884" data-name="Rectangle 1884" width="17.981" height="4.182" transform="translate(947.798 785.321) rotate(167.286)" fill="#fff" opacity="0.7"/>
      <rect id="Rectangle_1885" data-name="Rectangle 1885" width="17.981" height="4.182" transform="translate(949.454 792.664) rotate(167.286)" fill="#fff" opacity="0.7"/>
      <path id="Path_8474" data-name="Path 8474" d="M931.539,788.258c39,25.956,42.087,2.518,37.623-14.935l-10.3-1.716.658,16.651-25.478-8.3Z" fill="#f4b5ad"/>
      <path id="Path_8475" data-name="Path 8475" d="M923.04,780.806c1.579-4.964,7.334-2.914,11-.846l-2.257,8.463-14.1-6.206C915.141,779.114,919.655,779.96,923.04,780.806Z" fill="#f4b5ad"/>
      <ellipse id="Ellipse_635" data-name="Ellipse 635" cx="33.408" cy="9.545" rx="33.408" ry="9.545" transform="translate(669.865 937.306)" fill="#abd9ff"/>
      <path id="Path_8476" data-name="Path 8476" d="M691.075,925.64h-6.4V940.02l6.4-.593Z" fill="#fa9c80"/>
      <path id="Path_8477" data-name="Path 8477" d="M691.075,939.427c-3.712-1.061-2.651-.53-6.363-1.061-.53,1.061,0,1.122,0,5.871.322,1.516,4.969,2.4,7.253,2.652,6.171.907,8.611.322,9.289-.619.836-1.161-1.257-1.977-2.661-2.254C694.565,943.222,691.646,940.5,691.075,939.427Z" fill="#3da2f6"/>
      <path id="Path_8478" data-name="Path 8478" d="M701.161,945.133c-9.115,1.041-14.851-.749-16.45-1.718v.822a1.019,1.019,0,0,0,.2.415c1.97,1.057,7.508,2.363,16.5,1.3A.817.817,0,0,0,701.161,945.133Z" fill="#fff" fill-rule="evenodd"/>
      <path id="Path_8479" data-name="Path 8479" d="M709.533,925.226h-6.4v14.38l6.4-.592Z" fill="#fa9c80"/>
      <path id="Path_8480" data-name="Path 8480" d="M709.533,939.014c-3.712-1.061-2.651-.531-6.364-1.061-.53,1.061,0,1.122,0,5.871.322,1.515,4.969,2.4,7.252,2.652,6.171.907,8.612.322,9.289-.619.836-1.162-1.257-1.977-2.661-2.254C713.022,942.809,710.1,940.087,709.533,939.014Z" fill="#3da2f6"/>
      <path id="Path_8481" data-name="Path 8481" d="M719.618,944.72c-9.114,1.041-14.85-.748-16.45-1.718v.821a1.028,1.028,0,0,0,.2.417c1.971,1.057,7.509,2.362,16.5,1.294A.817.817,0,0,0,719.618,944.72Z" fill="#fff" fill-rule="evenodd"/>
      <path id="Path_8482" data-name="Path 8482" d="M693.332,928.44l-10.838-.866-6.636-70.516-3.095-39.269h28.508L698.888,858.9Z" fill="#07207a"/>
      <path id="Path_8483" data-name="Path 8483" d="M700.864,930.859l10.838.866,5.916-74.057,2.794-39.969H689.455l7.1,41.922Z" fill="#001359"/>
      <path id="Path_8484" data-name="Path 8484" d="M707.381,722.6c5.381,23.542-.028,16.83-4.26,18.61.078,4.141-.224,2.018,0,5.83H689.669v-8.3c-.267-11.076-.485-7.2,1.51-9.349C692.862,719.859,703.887,720.691,707.381,722.6Z" fill="#fa9c80"/>
      <path id="Path_8485" data-name="Path 8485" d="M740.789,752.646c-5.919-2.87-24.214-3.886-31.389-4.035-3.229,4.125,5.381,13.153,9.865,17.488,4.3,3.229,20.852-2.167,27.578-5.6,4.186-4.484,12.96-13.363,14.574-13s4.41-2.542,5.6-4.036l2.691-7.848c-1.57,2.242-5.022,6.189-6.278,4.036s-4.111-.9-5.381,0Z" fill="#dda282"/>
      <path id="Path_8486" data-name="Path 8486" d="M664.107,794.848c0-9.12,1.441-15.841,3.361-28.321,3.149-4.187,9.082,3.42,14.43,6.629,4.233,3.323,3.3,20.7,1.723,28.089-3.248,5.2-9.553,15.977-8.789,17.443s0,4.481-1.123,6.4l.48,5.76.479,7.68c-1.919.48-2.611-1.6-2.88-6.72-8.832,2.3-7.285-8.6-5.407-14.338Z" fill="#dda282"/>
      <path id="Path_8487" data-name="Path 8487" d="M693.929,716.772c13.229-3.811,12.332,2.915,13.9,7.175-2.512,0-4.559,2.541-4.933,4.933a8.339,8.339,0,0,1,1.794,7.623l-3.139-3.139c-.449,4.036-3.364,8.744-11.435,4.708-6.458-3.228-6.428-8.744-4.26-11.21C685.32,720.943,692.061,717.968,693.929,716.772Z" fill="#92490c"/>
      <path id="Path_8488" data-name="Path 8488" d="M705.927,747.875l-.5-.157c-.768-.245-1.547-.493-2.308-.677H689.67a24.181,24.181,0,0,0-5.019.229c-9.8.164-16.537,4.943-18.3,23.09l12.265,4.365c-.94,11.207-4.087,31.6-5.988,42.943h47.758c-2.332-3.767-1.57-22.2-.9-30.941a64.448,64.448,0,0,0-.429-20.545c7.043,2.348,11.935.791,18.142-1.2V750.405l-31.39-2.691Z" fill="#10cb95" fill-rule="evenodd"/>
      <path id="Path_8489" data-name="Path 8489" d="M677.715,783.239c-1.36,11.208-3.6,25.572-5.086,34.429h47.308c-2.466-14.723-8.924-44.349-15.022-45.067-1.662-.2-3.717-.476-5.92-.777-7.907-1.079-17.72-2.419-18.071-1.016C680.78,771.385,679.471,776.45,677.715,783.239Z" fill="#1ad39d" fill-rule="evenodd"/>
    </g>
    <path id="Path_8753" data-name="Path 8753" d="M-8061,6291.144s62.081-115.546,190.847-69.19,305.6-87.561,425.785-12.018,127.048,39.488,127.048,44.639v36.569Z" transform="translate(8061 -5211)" fill="#d6e9f8"/>
  </g>
</svg>
