<svg id="Layer_1" data-name="Layer 1" xmlns="http://www.w3.org/2000/svg" xmlns:xlink="http://www.w3.org/1999/xlink" viewBox="0 0 414.69 387.8"><defs><style>.cls-1,.cls-2{fill:none;}.cls-2{clip-path:url(#clip-path);}.cls-3{fill:#fdfdfd;}.cls-4{clip-path:url(#clip-path-3);}.cls-5{fill:#aeaeae;opacity:0.5;}.cls-5,.cls-8{isolation:isolate;}.cls-6{fill:#e3216a;}.cls-7,.cls-8{fill:#be8840;}.cls-8{opacity:0.39;}.cls-9{fill:#8ed5e8;}.cls-10{clip-path:url(#clip-path-4);}.cls-11{clip-path:url(#clip-path-5);}.cls-12{clip-path:url(#clip-path-6);}.cls-13{clip-path:url(#clip-path-7);}.cls-14{clip-path:url(#clip-path-8);}.cls-15{clip-path:url(#clip-path-9);}.cls-16{clip-path:url(#clip-path-10);}.cls-17{clip-path:url(#clip-path-11);}.cls-18{clip-path:url(#clip-path-12);}.cls-19{clip-path:url(#clip-path-13);}.cls-20{clip-path:url(#clip-path-14);}.cls-21{clip-path:url(#clip-path-15);}.cls-22{opacity:0.45;}.cls-23{clip-path:url(#clip-path-16);}.cls-24{clip-path:url(#clip-path-17);}</style><clipPath id="clip-path"><polygon class="cls-1" points="1777.44 689.72 1401.83 689.72 1458.61 584.67 1720.67 584.67 1777.44 689.72"/></clipPath><clipPath id="clip-path-3" transform="translate(-1379.3 -584.67)"><rect class="cls-1" x="1427.58" y="689.72" width="323.89" height="34.02"/></clipPath><clipPath id="clip-path-4" transform="translate(-1379.3 -584.67)"><rect class="cls-1" x="1459.99" y="840.29" width="23.91" height="86.43"/></clipPath><clipPath id="clip-path-5" transform="translate(-1379.3 -584.67)"><rect class="cls-1" x="1488.49" y="840.29" width="23.91" height="86.43"/></clipPath><clipPath id="clip-path-6" transform="translate(-1379.3 -584.67)"><rect class="cls-1" x="1664.12" y="840.29" width="23.91" height="86.43"/></clipPath><clipPath id="clip-path-7" transform="translate(-1379.3 -584.67)"><rect class="cls-1" x="1692.85" y="840.29" width="23.91" height="86.43"/></clipPath><clipPath id="clip-path-8" transform="translate(-1379.3 -584.67)"><rect class="cls-1" x="1459.99" y="741.44" width="23.91" height="53.79"/></clipPath><clipPath id="clip-path-9" transform="translate(-1379.3 -584.67)"><rect class="cls-1" x="1488.49" y="741.44" width="23.91" height="53.79"/></clipPath><clipPath id="clip-path-10" transform="translate(-1379.3 -584.67)"><rect class="cls-1" x="1665.5" y="741.44" width="23.91" height="53.79"/></clipPath><clipPath id="clip-path-11" transform="translate(-1379.3 -584.67)"><rect class="cls-1" x="1694" y="741.44" width="23.91" height="53.79"/></clipPath><clipPath id="clip-path-12" transform="translate(-1379.3 -584.67)"><rect class="cls-1" x="1563.2" y="741.44" width="23.91" height="53.79"/></clipPath><clipPath id="clip-path-13" transform="translate(-1379.3 -584.67)"><rect class="cls-1" x="1591.94" y="741.44" width="23.91" height="53.79"/></clipPath><clipPath id="clip-path-14" transform="translate(-1379.3 -584.67)"><rect class="cls-1" x="1553.09" y="845.57" width="33.33" height="86.43"/></clipPath><clipPath id="clip-path-15" transform="translate(-1379.3 -584.67)"><rect class="cls-1" x="1592.86" y="845.57" width="33.33" height="86.43"/></clipPath><clipPath id="clip-path-16" transform="translate(-1379.3 -584.67)"><polygon class="cls-2" points="1777.44 689.72 1401.83 689.72 1458.61 584.67 1720.67 584.67 1777.44 689.72"/></clipPath><clipPath id="clip-path-17" transform="translate(-1379.3 -584.67)"><rect class="cls-1" x="1394.02" y="689.72" width="410.55" height="13.33"/></clipPath></defs><title>house</title><rect id="_Path_" data-name="&lt;Path&gt;" class="cls-3" x="48.27" y="105.05" width="323.89" height="282.74"/><g id="_Clip_Group_" data-name="&lt;Clip Group&gt;"><g class="cls-4"><g id="_Group_" data-name="&lt;Group&gt;"><path id="_Path_2" data-name="&lt;Path&gt;" class="cls-5" d="M1410.11,702.13a8.28,8.28,0,1,0,8.27,8.28h0a8.24,8.24,0,0,0-8.2-8.28Z" transform="translate(-1379.3 -584.67)"/><path id="_Path_3" data-name="&lt;Path&gt;" class="cls-5" d="M1751.93,702.13h-.46V689.49H1427.58v12.64h-.46a8.28,8.28,0,1,0,8.27,8.28h.69a8.28,8.28,0,1,0,16.55,0h.69a8.28,8.28,0,1,0,16.55,0h.69a8.28,8.28,0,1,0,16.55,0h.69a8.28,8.28,0,1,0,16.56,0h.69a8.28,8.28,0,1,0,16.55,0h.69a8.28,8.28,0,1,0,16.55,0h.69a8.28,8.28,0,1,0,16.55,0h.69a8.28,8.28,0,1,0,16.55,0h.69a8.28,8.28,0,1,0,16.55,0h.69a8.28,8.28,0,1,0,16.55,0h.69a8.28,8.28,0,1,0,16.55,0h.69a8.28,8.28,0,1,0,16.55,0h.69a8.28,8.28,0,0,0,16.56,0h.69a8.28,8.28,0,1,0,16.55,0h.69a8.28,8.28,0,1,0,16.55,0h.69a8.28,8.28,0,1,0,16.55,0h.69a8.28,8.28,0,1,0,16.55,0h.69a8.28,8.28,0,1,0,16.55,0h.69a8.28,8.28,0,1,0,16.55,0C1760.2,705.81,1756.52,702.13,1751.93,702.13Z" transform="translate(-1379.3 -584.67)"/><path id="_Path_4" data-name="&lt;Path&gt;" class="cls-5" d="M1769.17,702.13a8.24,8.24,0,1,0,.07,0Z" transform="translate(-1379.3 -584.67)"/></g></g></g><path id="_Path_5" data-name="&lt;Path&gt;" class="cls-6" d="M1777.44,689.72H1401.83l56.78-105.05h262.06Z" transform="translate(-1379.3 -584.67)"/><rect id="_Path_6" data-name="&lt;Path&gt;" class="cls-7" x="76.78" y="251.71" width="60.23" height="105.74"/><rect id="_Path_7" data-name="&lt;Path&gt;" class="cls-8" x="106.89" y="251.71" width="30.11" height="105.74"/><rect id="_Path_8" data-name="&lt;Path&gt;" class="cls-9" x="80.69" y="255.62" width="23.91" height="86.43"/><rect id="_Path_9" data-name="&lt;Path&gt;" class="cls-9" x="109.19" y="255.62" width="23.91" height="86.43"/><rect id="_Path_10" data-name="&lt;Path&gt;" class="cls-7" x="71.49" y="350.1" width="73.33" height="7.36"/><g id="_Clip_Group_2" data-name="&lt;Clip Group&gt;"><g class="cls-10"><g id="_Group_2" data-name="&lt;Group&gt;"><path id="_Path_11" data-name="&lt;Path&gt;" class="cls-9" d="M1441.14,903.27l43.91-54.71h21.37l-56.32,71Z" transform="translate(-1379.3 -584.67)"/><path id="_Path_12" data-name="&lt;Path&gt;" class="cls-9" d="M1453.32,923.27l48.74-61.6,8.5.23-52.41,66.2Z" transform="translate(-1379.3 -584.67)"/></g></g></g><g id="_Group_3" data-name="&lt;Group&gt;"><g id="_Clip_Group_3" data-name="&lt;Clip Group&gt;"><g class="cls-11"><g id="_Group_4" data-name="&lt;Group&gt;"><path id="_Path_13" data-name="&lt;Path&gt;" class="cls-9" d="M1469.64,903.27l43.91-54.71h21.38l-56.32,71Z" transform="translate(-1379.3 -584.67)"/><path id="_Path_14" data-name="&lt;Path&gt;" class="cls-9" d="M1482.06,923.27l48.5-61.6,8.5.23-52.4,66.2Z" transform="translate(-1379.3 -584.67)"/></g></g></g></g><rect id="_Path_15" data-name="&lt;Path&gt;" class="cls-7" x="281.13" y="251.71" width="60.23" height="105.74"/><rect id="_Path_16" data-name="&lt;Path&gt;" class="cls-8" x="311.25" y="251.71" width="30.11" height="105.74"/><rect id="_Path_17" data-name="&lt;Path&gt;" class="cls-9" x="284.81" y="255.62" width="23.91" height="86.43"/><rect id="_Path_18" data-name="&lt;Path&gt;" class="cls-9" x="313.55" y="255.62" width="23.91" height="86.43"/><rect id="_Path_19" data-name="&lt;Path&gt;" class="cls-7" x="275.85" y="350.1" width="73.33" height="7.36"/><g id="_Clip_Group_4" data-name="&lt;Clip Group&gt;"><g class="cls-12"><g id="_Group_5" data-name="&lt;Group&gt;"><path id="_Path_20" data-name="&lt;Path&gt;" class="cls-9" d="M1645.5,903.27l43.67-54.71h21.61l-56.55,71Z" transform="translate(-1379.3 -584.67)"/><path id="_Path_21" data-name="&lt;Path&gt;" class="cls-9" d="M1657.68,923.27l48.5-61.6,8.51.23-52.19,66.2Z" transform="translate(-1379.3 -584.67)"/></g></g></g><g id="_Group_6" data-name="&lt;Group&gt;"><g id="_Clip_Group_5" data-name="&lt;Clip Group&gt;"><g class="cls-13"><g id="_Group_7" data-name="&lt;Group&gt;"><path id="_Path_22" data-name="&lt;Path&gt;" class="cls-9" d="M1674,903.27l43.91-54.71h21.37l-56.31,71Z" transform="translate(-1379.3 -584.67)"/><path id="_Path_23" data-name="&lt;Path&gt;" class="cls-9" d="M1686.18,923.27l48.74-61.6,8.5.23L1691,928.1Z" transform="translate(-1379.3 -584.67)"/></g></g></g></g><rect id="_Path_24" data-name="&lt;Path&gt;" class="cls-7" x="76.78" y="154.48" width="60.23" height="65.97"/><rect id="_Path_25" data-name="&lt;Path&gt;" class="cls-8" x="106.89" y="154.48" width="30.11" height="65.97"/><rect id="_Path_26" data-name="&lt;Path&gt;" class="cls-9" x="80.69" y="156.77" width="23.91" height="53.79"/><rect id="_Path_27" data-name="&lt;Path&gt;" class="cls-9" x="109.19" y="156.77" width="23.91" height="53.79"/><g id="_Clip_Group_6" data-name="&lt;Clip Group&gt;"><g class="cls-14"><g id="_Group_8" data-name="&lt;Group&gt;"><path id="_Path_28" data-name="&lt;Path&gt;" class="cls-9" d="M1441.14,780.75l43.91-34h21.37L1450.1,791.1Z" transform="translate(-1379.3 -584.67)"/><path id="_Path_29" data-name="&lt;Path&gt;" class="cls-9" d="M1453.32,793.4l48.74-38.62,8.5.23-52.41,41.37Z" transform="translate(-1379.3 -584.67)"/></g></g></g><g id="_Group_9" data-name="&lt;Group&gt;"><g id="_Clip_Group_7" data-name="&lt;Clip Group&gt;"><g class="cls-15"><g id="_Group_10" data-name="&lt;Group&gt;"><path id="_Path_30" data-name="&lt;Path&gt;" class="cls-9" d="M1469.64,780.75l43.91-34h21.38l-56.32,44.37Z" transform="translate(-1379.3 -584.67)"/><path id="_Path_31" data-name="&lt;Path&gt;" class="cls-9" d="M1482.06,793.4l48.5-38.62,8.5.23-52.4,41.37Z" transform="translate(-1379.3 -584.67)"/></g></g></g></g><rect id="_Path_32" data-name="&lt;Path&gt;" class="cls-7" x="282.28" y="154.48" width="60.23" height="65.97"/><rect id="_Path_33" data-name="&lt;Path&gt;" class="cls-8" x="312.4" y="154.48" width="30.11" height="65.97"/><rect id="_Path_34" data-name="&lt;Path&gt;" class="cls-9" x="286.19" y="156.77" width="23.91" height="53.79"/><rect id="_Path_35" data-name="&lt;Path&gt;" class="cls-9" x="314.7" y="156.77" width="23.91" height="53.79"/><g id="_Clip_Group_8" data-name="&lt;Clip Group&gt;"><g class="cls-16"><g id="_Group_11" data-name="&lt;Group&gt;"><path id="_Path_36" data-name="&lt;Path&gt;" class="cls-9" d="M1646.65,780.75l43.9-34h21.38l-56.32,44.37Z" transform="translate(-1379.3 -584.67)"/><path id="_Path_37" data-name="&lt;Path&gt;" class="cls-9" d="M1658.83,793.4l48.73-38.62,8.51.23-52.41,41.37Z" transform="translate(-1379.3 -584.67)"/></g></g></g><g id="_Group_12" data-name="&lt;Group&gt;"><g id="_Clip_Group_9" data-name="&lt;Clip Group&gt;"><g class="cls-17"><g id="_Group_13" data-name="&lt;Group&gt;"><path id="_Path_38" data-name="&lt;Path&gt;" class="cls-9" d="M1675.15,780.75l43.91-34h21.37l-56.32,44.37Z" transform="translate(-1379.3 -584.67)"/><path id="_Path_39" data-name="&lt;Path&gt;" class="cls-9" d="M1687.56,793.4l48.5-38.62,8.51.23-52.18,41.37Z" transform="translate(-1379.3 -584.67)"/></g></g></g></g><rect id="_Path_40" data-name="&lt;Path&gt;" class="cls-7" x="180.22" y="154.48" width="60.23" height="65.97"/><rect id="_Path_41" data-name="&lt;Path&gt;" class="cls-8" x="210.33" y="154.48" width="30.11" height="65.97"/><rect id="_Path_42" data-name="&lt;Path&gt;" class="cls-9" x="183.9" y="156.77" width="23.91" height="53.79"/><rect id="_Path_43" data-name="&lt;Path&gt;" class="cls-9" x="212.63" y="156.77" width="23.91" height="53.79"/><g id="_Clip_Group_10" data-name="&lt;Clip Group&gt;"><g class="cls-18"><g id="_Group_14" data-name="&lt;Group&gt;"><path id="_Path_44" data-name="&lt;Path&gt;" class="cls-9" d="M1544.58,780.75l43.68-34h21.61l-56.32,44.37Z" transform="translate(-1379.3 -584.67)"/><path id="_Path_45" data-name="&lt;Path&gt;" class="cls-9" d="M1556.76,793.4l48.74-38.62,8.27.23-52.18,41.37Z" transform="translate(-1379.3 -584.67)"/></g></g></g><g id="_Group_15" data-name="&lt;Group&gt;"><g id="_Clip_Group_11" data-name="&lt;Clip Group&gt;"><g class="cls-19"><g id="_Group_16" data-name="&lt;Group&gt;"><path id="_Path_46" data-name="&lt;Path&gt;" class="cls-9" d="M1573.09,780.75l43.9-34h21.38l-56.32,44.37Z" transform="translate(-1379.3 -584.67)"/><path id="_Path_47" data-name="&lt;Path&gt;" class="cls-9" d="M1585.27,793.4,1634,754.78l8.51.23-52.41,41.37Z" transform="translate(-1379.3 -584.67)"/></g></g></g></g><rect id="_Path_48" data-name="&lt;Path&gt;" class="cls-7" x="165.97" y="250.79" width="88.5" height="137"/><rect id="_Path_49" data-name="&lt;Path&gt;" class="cls-8" x="210.33" y="250.79" width="44.14" height="137"/><rect id="_Path_50" data-name="&lt;Path&gt;" class="cls-9" x="173.78" y="260.91" width="33.33" height="86.43"/><rect id="_Path_51" data-name="&lt;Path&gt;" class="cls-9" x="213.55" y="260.91" width="33.33" height="86.43"/><g id="_Clip_Group_12" data-name="&lt;Clip Group&gt;"><g class="cls-20"><g id="_Group_17" data-name="&lt;Group&gt;"><path id="_Path_52" data-name="&lt;Path&gt;" class="cls-9" d="M1542.28,914.08l48.28-60.23h23.67L1552.17,932Z" transform="translate(-1379.3 -584.67)"/><path id="_Path_53" data-name="&lt;Path&gt;" class="cls-9" d="M1555.85,936.14l53.56-68,9.19.46-57.47,72.87Z" transform="translate(-1379.3 -584.67)"/></g></g></g><g id="_Group_18" data-name="&lt;Group&gt;"><g id="_Clip_Group_13" data-name="&lt;Clip Group&gt;"><g class="cls-21"><g id="_Group_19" data-name="&lt;Group&gt;"><path id="_Path_54" data-name="&lt;Path&gt;" class="cls-9" d="M1582.05,914.08l48.27-60.23h23.45L1591.94,932Z" transform="translate(-1379.3 -584.67)"/><path id="_Path_55" data-name="&lt;Path&gt;" class="cls-9" d="M1595.39,936.14l53.56-68,9.42.46-57.7,72.87Z" transform="translate(-1379.3 -584.67)"/></g></g></g></g><g id="house"><g id="_Clip_Group_14" data-name="&lt;Clip Group&gt;" class="cls-22"><g class="cls-23"><g id="Group_1145" data-name="Group 1145"><rect id="_Path_56" data-name="&lt;Path&gt;" class="cls-6" y="81.83" width="414.69" height="22.99"/></g><g id="Group_1146" data-name="Group 1146"><rect id="_Path_57" data-name="&lt;Path&gt;" class="cls-6" y="40.92" width="414.69" height="22.99"/></g><g id="Group_1147" data-name="Group 1147"><rect id="_Path_58" data-name="&lt;Path&gt;" class="cls-6" width="414.69" height="22.99"/></g></g></g><g id="_Group_20" data-name="&lt;Group&gt;"><g id="_Clip_Group_15" data-name="&lt;Clip Group&gt;"><g class="cls-24"><g id="_Group_21" data-name="&lt;Group&gt;"><path id="_Path_59" data-name="&lt;Path&gt;" class="cls-6" d="M1418.38,689.72a8.28,8.28,0,1,1-8.27-8.27h0a8.23,8.23,0,0,1,8.27,8.2Z" transform="translate(-1379.3 -584.67)"/><circle id="_Path_60" data-name="&lt;Path&gt;" class="cls-6" cx="47.81" cy="105.05" r="8.27"/><path id="_Path_61" data-name="&lt;Path&gt;" class="cls-6" d="M1452.63,689.72a8.28,8.28,0,1,1-8.27-8.27h0a8.23,8.23,0,0,1,8.27,8.2Z" transform="translate(-1379.3 -584.67)"/><path id="_Path_62" data-name="&lt;Path&gt;" class="cls-6" d="M1469.64,689.72a8.28,8.28,0,1,1-8.27-8.27h0a8.23,8.23,0,0,1,8.27,8.2Z" transform="translate(-1379.3 -584.67)"/><circle id="_Path_63" data-name="&lt;Path&gt;" class="cls-6" cx="99.31" cy="105.05" r="8.27"/><path id="_Path_64" data-name="&lt;Path&gt;" class="cls-6" d="M1503.89,689.72a8.24,8.24,0,1,1,0-.07A.08.08,0,0,1,1503.89,689.72Z" transform="translate(-1379.3 -584.67)"/><circle id="_Path_65" data-name="&lt;Path&gt;" class="cls-6" cx="133.33" cy="105.05" r="8.27"/><path id="_Path_66" data-name="&lt;Path&gt;" class="cls-6" d="M1537.92,689.72a8.28,8.28,0,1,1-8.28-8.27h0a8.24,8.24,0,0,1,8.28,8.2Z" transform="translate(-1379.3 -584.67)"/><circle id="_Path_67" data-name="&lt;Path&gt;" class="cls-6" cx="167.58" cy="105.05" r="8.27"/><path id="_Path_68" data-name="&lt;Path&gt;" class="cls-6" d="M1572.17,689.72a8.28,8.28,0,1,1-8.28-8.27h0a8.24,8.24,0,0,1,8.28,8.2Z" transform="translate(-1379.3 -584.67)"/><circle id="_Path_69" data-name="&lt;Path&gt;" class="cls-6" cx="201.83" cy="105.05" r="8.27"/><path id="_Path_70" data-name="&lt;Path&gt;" class="cls-6" d="M1606.42,689.72a8.28,8.28,0,1,1-8.28-8.27h0a8.23,8.23,0,0,1,8.28,8.2Z" transform="translate(-1379.3 -584.67)"/><circle id="_Path_71" data-name="&lt;Path&gt;" class="cls-6" cx="236.08" cy="105.05" r="8.27"/><path id="_Path_72" data-name="&lt;Path&gt;" class="cls-6" d="M1640.67,689.72a8.28,8.28,0,1,1-8.27-8.27h0a8.23,8.23,0,0,1,8.27,8.2Z" transform="translate(-1379.3 -584.67)"/><circle id="_Path_73" data-name="&lt;Path&gt;" class="cls-6" cx="270.1" cy="105.05" r="8.27"/><path id="_Path_74" data-name="&lt;Path&gt;" class="cls-6" d="M1674.69,689.72a8.24,8.24,0,1,1,0-.07Z" transform="translate(-1379.3 -584.67)"/><circle id="_Path_75" data-name="&lt;Path&gt;" class="cls-6" cx="304.35" cy="105.05" r="8.27"/><path id="_Path_76" data-name="&lt;Path&gt;" class="cls-6" d="M1708.94,689.72a8.24,8.24,0,1,1,0-.07Z" transform="translate(-1379.3 -584.67)"/><path id="_Path_77" data-name="&lt;Path&gt;" class="cls-6" d="M1726.18,689.72a8.24,8.24,0,1,1,0-.07Z" transform="translate(-1379.3 -584.67)"/><circle id="_Path_78" data-name="&lt;Path&gt;" class="cls-6" cx="355.61" cy="105.05" r="8.27"/><path id="_Path_79" data-name="&lt;Path&gt;" class="cls-6" d="M1760.2,689.72a8.24,8.24,0,1,1,0-.07Z" transform="translate(-1379.3 -584.67)"/><path id="_Path_80" data-name="&lt;Path&gt;" class="cls-6" d="M1777.44,689.72a8.24,8.24,0,1,1,0-.07Z" transform="translate(-1379.3 -584.67)"/></g></g></g></g></g></svg>