<svg xmlns="http://www.w3.org/2000/svg" width="391.278" height="336.34" viewBox="0 0 391.278 336.34">
  <g id="Group_23759" data-name="Group 23759" transform="translate(-765.339 -232)">
    <path id="Path_3622" data-name="Path 3622" d="M203.882,222.878c12.04-13.312,30.9-16.05,48.081-14.986,53.977,3.336,102.675,35.754,144.808,72.38,15.254,13.272,30.272,27.574,40.174,45.852,20.157,37.2,14.178,88.739-13.848,119.387-9.537,10.425-21.1,18.422-32.947,25.507-21.1,12.6-43.868,22.712-67.818,25.59-17.08,2.054-34.349.388-51.344-2.477-47.436-8.005-94-25.725-133.028-55.981-17.115-13.277-33.248-29.789-40.307-51.272s-2.555-48.686,14.924-61.4c7.227-5.258,15.871-7.63,24.331-9.863,12.457-3.283,25.113-6.54,36.35-13.194,11.608-6.894,25.355-20.223,23.059-35.479C193.84,250.552,191.87,236.189,203.882,222.878Z" transform="matrix(0.99, 0.139, -0.139, 0.99, 741.04, 13.191)" fill="#e5eefe" opacity="0.37"/>
    <g id="Group_5416" data-name="Group 5416" transform="translate(-1 43.156)">
      <path id="Path_7641" data-name="Path 7641" d="M370.569,132.69H89.375a2.5,2.5,0,0,0-2.505,2.505v7.3h286.2v-7.3A2.505,2.505,0,0,0,370.569,132.69Z" transform="translate(731.13 142.31)" fill="#4f8afc"/>
      <path id="Path_7642" data-name="Path 7642" d="M86.87,166.19V330.432a5.051,5.051,0,0,0,5.051,5.051h276.1a5.051,5.051,0,0,0,5.051-5.051V166.19Z" transform="translate(731.13 118.614)" fill="#e5eefe"/>
      <circle id="Ellipse_614" data-name="Ellipse 614" cx="1.171" cy="1.171" r="1.171" transform="translate(821.362 278.658)" fill="#fff"/>
      <circle id="Ellipse_615" data-name="Ellipse 615" cx="1.171" cy="1.171" r="1.171" transform="translate(824.582 278.658)" fill="#fff"/>
      <circle id="Ellipse_616" data-name="Ellipse 616" cx="1.171" cy="1.171" r="1.171" transform="translate(827.801 278.658)" fill="#fff"/>
      <rect id="Rectangle_1677" data-name="Rectangle 1677" width="226.505" height="98.913" transform="translate(848.092 312.956)" fill="#fff"/>
      <path id="Path_7643" data-name="Path 7643" d="M340.313,349.38a22.533,22.533,0,1,0,22.533,22.533A22.533,22.533,0,0,0,340.313,349.38Zm4.041,23.075v10.67h-7.966v-10.67a6.6,6.6,0,1,1,7.966,0Z" transform="translate(567.794 -10.967)" fill="#6c63ff"/>
      <path id="Path_7644" data-name="Path 7644" d="M340.313,349.38a22.533,22.533,0,1,0,22.533,22.533A22.533,22.533,0,0,0,340.313,349.38Zm4.041,23.075v10.67h-7.966v-10.67a6.6,6.6,0,1,1,7.966,0Z" transform="translate(567.794 -10.967)" opacity="0.05"/>
      <path id="Path_7645" data-name="Path 7645" d="M324.752,327.38a28.972,28.972,0,1,0,28.971,28.972A28.971,28.971,0,0,0,324.752,327.38Zm5.194,29.668v13.716H319.7V357.048a8.487,8.487,0,1,1,10.242,0Z" transform="translate(583.355 4.595)" fill="#4f8afc"/>
      <path id="Path_7677" data-name="Path 7677" d="M0,0H93.645V9.95H0Z" transform="translate(949.077 357.145)" fill="#e5eefe"/>
      <rect id="Rectangle_1679" data-name="Rectangle 1679" width="20.192" height="9.95" transform="translate(1023 375.174)" fill="#e5eefe"/>
      <path id="Path_7646" data-name="Path 7646" d="M556.023,424.929h-1.694l1.507-1.5a.149.149,0,0,0,0-.208.146.146,0,0,0-.208,0l-1.507,1.507v-1.7a.146.146,0,0,0-.146-.146.149.149,0,0,0-.146.146v1.7l-1.5-1.516a.146.146,0,0,0-.208,0,.149.149,0,0,0,0,.208l1.507,1.5h-1.7a.149.149,0,0,0-.146.146.146.146,0,0,0,.146.146h1.7l-1.507,1.507a.15.15,0,0,0,0,.208.152.152,0,0,0,.208,0l1.5-1.507v1.695a.146.146,0,1,0,.292,0V425.42l1.507,1.507a.152.152,0,0,0,.208,0,.149.149,0,0,0,0-.208l-1.507-1.507h1.694a.142.142,0,1,0,0-.284Z" transform="translate(402.271 -62.958)" fill="#6c63ff"/>
      <path id="Path_7647" data-name="Path 7647" d="M577.023,424.929h-1.694l1.507-1.5a.149.149,0,0,0,0-.208.146.146,0,0,0-.208,0l-1.507,1.507v-1.7a.146.146,0,0,0-.146-.146.149.149,0,0,0-.146.146v1.7l-1.5-1.516a.146.146,0,0,0-.208,0,.149.149,0,0,0,0,.208l1.507,1.5h-1.7a.149.149,0,0,0-.146.146.146.146,0,0,0,.146.146h1.7l-1.507,1.507a.149.149,0,0,0,0,.208.152.152,0,0,0,.208,0l1.5-1.507v1.695a.146.146,0,1,0,.293,0V425.42l1.507,1.507a.152.152,0,0,0,.208,0,.15.15,0,0,0,0-.208l-1.507-1.507h1.694a.142.142,0,1,0,0-.284Z" transform="translate(387.417 -62.958)" fill="#6c63ff"/>
      <path id="Path_7648" data-name="Path 7648" d="M598.023,424.929h-1.694l1.507-1.5a.149.149,0,0,0,0-.208.146.146,0,0,0-.208,0l-1.507,1.507v-1.7a.146.146,0,0,0-.146-.146.149.149,0,0,0-.146.146v1.7l-1.5-1.516a.146.146,0,0,0-.208,0,.149.149,0,0,0,0,.208l1.507,1.5h-1.7a.149.149,0,0,0-.146.146.146.146,0,0,0,.146.146h1.7l-1.507,1.507a.149.149,0,0,0,0,.208.152.152,0,0,0,.208,0l1.5-1.507v1.695a.146.146,0,1,0,.293,0V425.42l1.507,1.507a.152.152,0,0,0,.208,0,.149.149,0,0,0,0-.208l-1.507-1.507h1.694a.142.142,0,1,0,0-.284Z" transform="translate(372.563 -62.958)" fill="#6c63ff"/>
      <path id="Path_7649" data-name="Path 7649" d="M619.023,424.929h-1.694l1.507-1.5a.149.149,0,0,0,0-.208.146.146,0,0,0-.208,0l-1.507,1.507v-1.7a.146.146,0,0,0-.146-.146.149.149,0,0,0-.146.146v1.7l-1.5-1.516a.146.146,0,0,0-.208,0,.149.149,0,0,0,0,.208l1.507,1.5h-1.7a.149.149,0,0,0-.146.146.146.146,0,0,0,.146.146h1.7l-1.507,1.507a.149.149,0,0,0,0,.208.152.152,0,0,0,.208,0l1.5-1.507v1.695a.146.146,0,1,0,.293,0V425.42l1.507,1.507a.152.152,0,0,0,.208,0,.149.149,0,0,0,0-.208l-1.507-1.507h1.694a.142.142,0,1,0,0-.284Z" transform="translate(357.708 -62.958)" fill="#6c63ff"/>
      <path id="Path_7650" data-name="Path 7650" d="M640.023,424.929h-1.694l1.507-1.5a.149.149,0,0,0,0-.208.147.147,0,0,0-.208,0l-1.507,1.507v-1.7a.146.146,0,0,0-.146-.146.149.149,0,0,0-.146.146v1.7l-1.5-1.516a.147.147,0,0,0-.208,0,.149.149,0,0,0,0,.208l1.507,1.5h-1.7a.149.149,0,0,0-.146.146.146.146,0,0,0,.146.146h1.7l-1.507,1.507a.149.149,0,0,0,0,.208.152.152,0,0,0,.208,0l1.5-1.507v1.695a.146.146,0,0,0,.293,0V425.42l1.507,1.507a.152.152,0,0,0,.208,0,.149.149,0,0,0,0-.208l-1.507-1.507h1.694a.142.142,0,1,0,0-.284Z" transform="translate(342.854 -62.958)" fill="#6c63ff"/>
      <path id="Path_7651" data-name="Path 7651" d="M661.023,424.929h-1.694l1.507-1.5a.149.149,0,0,0,0-.208.146.146,0,0,0-.208,0l-1.507,1.507v-1.7a.146.146,0,0,0-.146-.146.149.149,0,0,0-.146.146v1.7l-1.5-1.516a.146.146,0,0,0-.208,0,.149.149,0,0,0,0,.208l1.507,1.5h-1.7a.149.149,0,0,0-.146.146.146.146,0,0,0,.146.146h1.7l-1.507,1.507a.149.149,0,0,0,0,.208.152.152,0,0,0,.208,0l1.5-1.507v1.695a.146.146,0,1,0,.292,0V425.42l1.507,1.507a.152.152,0,0,0,.208,0,.149.149,0,0,0,0-.208l-1.507-1.507h1.694a.142.142,0,1,0,0-.284Z" transform="translate(328 -62.958)" fill="#6c63ff"/>
      <path id="Path_7652" data-name="Path 7652" d="M682.023,424.929h-1.694l1.507-1.5a.149.149,0,0,0,0-.208.146.146,0,0,0-.208,0l-1.507,1.507v-1.7a.146.146,0,0,0-.146-.146.149.149,0,0,0-.146.146v1.7l-1.5-1.516a.147.147,0,0,0-.208,0,.149.149,0,0,0,0,.208l1.507,1.5h-1.7a.149.149,0,0,0-.146.146.146.146,0,0,0,.146.146h1.7l-1.507,1.507a.149.149,0,0,0,0,.208.152.152,0,0,0,.208,0l1.5-1.507v1.695a.146.146,0,1,0,.293,0V425.42l1.507,1.507a.152.152,0,0,0,.208,0,.149.149,0,0,0,0-.208l-1.507-1.507h1.694a.142.142,0,1,0,0-.284Z" transform="translate(313.145 -62.958)" fill="#6c63ff"/>
      <path id="Path_7653" data-name="Path 7653" d="M703.023,424.929h-1.694l1.507-1.5a.149.149,0,0,0,0-.208.146.146,0,0,0-.208,0l-1.507,1.507v-1.7a.146.146,0,0,0-.146-.146.149.149,0,0,0-.146.146v1.7l-1.5-1.516a.146.146,0,0,0-.208,0,.149.149,0,0,0,0,.208l1.507,1.5h-1.7a.149.149,0,0,0-.146.146.146.146,0,0,0,.146.146h1.7l-1.507,1.507a.149.149,0,0,0,0,.208.152.152,0,0,0,.208,0l1.5-1.507v1.695a.146.146,0,1,0,.293,0V425.42l1.507,1.507a.152.152,0,0,0,.208,0,.15.15,0,0,0,0-.208l-1.507-1.507h1.694a.142.142,0,1,0,0-.284Z" transform="translate(298.291 -62.958)" fill="#6c63ff"/>
      <path id="Path_7654" data-name="Path 7654" d="M724.023,424.929h-1.694l1.507-1.5a.149.149,0,0,0,0-.208.146.146,0,0,0-.208,0l-1.507,1.507v-1.7a.146.146,0,0,0-.146-.146.149.149,0,0,0-.146.146v1.7l-1.5-1.516a.146.146,0,0,0-.208,0,.149.149,0,0,0,0,.208l1.507,1.5h-1.7a.149.149,0,0,0-.146.146.147.147,0,0,0,.146.146h1.7l-1.507,1.507a.149.149,0,0,0,0,.208.152.152,0,0,0,.208,0l1.5-1.507v1.695a.146.146,0,1,0,.293,0V425.42l1.507,1.507a.152.152,0,0,0,.208,0,.149.149,0,0,0,0-.208l-1.507-1.507h1.694a.142.142,0,1,0,0-.284Z" transform="translate(283.436 -62.958)" fill="#6c63ff"/>
      <path id="Path_7655" data-name="Path 7655" d="M745.023,424.929h-1.694l1.507-1.5a.149.149,0,0,0,0-.208.146.146,0,0,0-.208,0l-1.507,1.507v-1.7a.146.146,0,0,0-.146-.146.149.149,0,0,0-.146.146v1.7l-1.5-1.516a.146.146,0,0,0-.208,0,.149.149,0,0,0,0,.208l1.507,1.5h-1.7a.149.149,0,0,0-.146.146.146.146,0,0,0,.146.146h1.7l-1.507,1.507a.149.149,0,0,0,0,.208.152.152,0,0,0,.208,0l1.5-1.507v1.695a.146.146,0,0,0,.293,0V425.42l1.507,1.507a.152.152,0,0,0,.208,0,.149.149,0,0,0,0-.208l-1.507-1.507h1.694a.142.142,0,1,0,0-.284Z" transform="translate(268.582 -62.958)" fill="#6c63ff"/>
      <path id="Path_7656" data-name="Path 7656" d="M766.023,424.929h-1.694l1.507-1.5a.149.149,0,0,0,0-.208.147.147,0,0,0-.208,0l-1.507,1.507v-1.7a.146.146,0,0,0-.146-.146.149.149,0,0,0-.146.146v1.7l-1.5-1.516a.146.146,0,0,0-.208,0,.149.149,0,0,0,0,.208l1.507,1.5h-1.7a.149.149,0,0,0-.146.146.146.146,0,0,0,.146.146h1.7l-1.507,1.507a.15.15,0,0,0,0,.208.152.152,0,0,0,.208,0l1.5-1.507v1.695a.146.146,0,1,0,.293,0V425.42l1.507,1.507a.152.152,0,0,0,.208,0,.15.15,0,0,0,0-.208l-1.507-1.507h1.694a.142.142,0,1,0,0-.284Z" transform="translate(253.727 -62.958)" fill="#6c63ff"/>
      <g id="Ellipse_619" data-name="Ellipse 619" transform="translate(1031 378.174)" fill="#fff" stroke="#6c63ff" stroke-width="1">
        <circle cx="2.052" cy="2.052" r="2.052" stroke="none"/>
        <circle cx="2.052" cy="2.052" r="1.552" fill="none"/>
      </g>
      <g id="Group_5408" data-name="Group 5408" transform="translate(-89 -8.826)">
        <path id="Path_7703" data-name="Path 7703" d="M636.972,210.679v2.5l2.974,4.357-2.974,1.934s-1.322-5.094-2.034-5.693a6.7,6.7,0,0,1-1.729-1.9c-.61-1.1-.306-4.894,2.645-1.5v.4Z" transform="matrix(0.914, -0.407, 0.407, 0.914, 461.656, 460.936)" fill="#ffd5c2"/>
        <path id="Path_7700" data-name="Path 7700" d="M-11516.03-4816.514l5.684.1-11.034-9.97,5.315-3.992s13.258,10.828,14.082,15.672-10.781,3.7-10.781,3.7Z" transform="translate(12652.749 5228.279)" fill="#f86d70"/>
        <path id="Path_7698" data-name="Path 7698" d="M-11530.438-4752.483l.538,2.608h2.266l-.908-3.276Z" transform="translate(12666.627 5231)" fill="#e98d8d"/>
        <path id="Path_7699" data-name="Path 7699" d="M0,1.127.525,4.763,2.892,3.745,2.313,0Z" transform="translate(1143.403 476.864) rotate(13)" fill="#e98d8d"/>
        <path id="Path_7684" data-name="Path 7684" d="M636.972,210.679v2.5l2.974,4.357-2.974,1.934s-1.322-5.094-2.034-5.693a6.7,6.7,0,0,1-1.729-1.9c-.61-1.1-.306-4.894,2.645-1.5v.4Z" transform="translate(486.77 197.548)" fill="#ffd5c2"/>
        <path id="Path_7685" data-name="Path 7685" d="M801.952,250.329l-1.175-3.757c-.07-.225-.211-.372-.368-.384l-4.464-.372a.408.408,0,0,0-.376.287,1.057,1.057,0,0,0-.054.66l1.153,4.765c.07.29.252.47.445.442l4.5-.639a.49.49,0,0,0,.336-.359,1.075,1.075,0,0,0,.008-.645Z" transform="translate(341.462 160.237)" fill="#fda57d"/>
        <path id="Path_7688" data-name="Path 7688" d="M740.91,446.07a7.445,7.445,0,0,0,.522,4.571,8.026,8.026,0,0,1-.3,7.49l-.4,14.482s-.5,6.791,0,8.189-.2,8.09-.2,8.09h-5.592V484.4l-1.9-13.283v-6.791l-3.4,7.091,3.893,16.379-5.094,2.1-6.392-18.376s1.1-14.482,5.094-19.475l.75-5.444Z" transform="translate(406.297 -10.559)" fill="#8fb3f9"/>
        <path id="Path_7692" data-name="Path 7692" d="M685.815,270.4l.522.351a9.758,9.758,0,0,1,4.126,9.838h0s-2.9,5.667-2,11.334-2,4.794-2,4.794H674.184a74.419,74.419,0,0,1-1.091-10.51,20.1,20.1,0,0,1,1.091-7.036s-6.891.981-9.987-1.417l-2.5-3.814,3.8-2.612,1.3,1.852a49.061,49.061,0,0,0,6.3-1.764,9.544,9.544,0,0,1,3.273-.7Z" transform="translate(459.774 140.168)" fill="#f86d70"/>
        <ellipse id="Ellipse_623" data-name="Ellipse 623" cx="5.825" cy="5.825" rx="5.825" ry="5.825" transform="translate(1132.845 396.344)" fill="#fda57d"/>
        <path id="Path_7697" data-name="Path 7697" d="M765.433,161.026h0s-.618.191-.653,2.22l.879-.06s2.035,5.442,1.821,4.733c-.784-2.612.784-2.124,1.153-1.638s-.06,1.759-.06,1.759-1.152,2.12,4.915,1.638c0,0,4-.849,3.58-6.249-.043-.541.849-1.942-1.821-2.67h0a3.674,3.674,0,0,0-2.808-3.193,10.187,10.187,0,0,0-3.158-.277A3.971,3.971,0,0,0,765.433,161.026Z" transform="translate(368.157 237.526)" fill="#72351c"/>
        <path id="Path_7701" data-name="Path 7701" d="M-11529.1-4749.292a1.079,1.079,0,0,1,.337,1.259c-.236.456-.765.572-2.429.8-1.832.259-2.76.305-2.76.305s-.927-1.348,1.621-2.318S-11529.289-4749.28-11529.1-4749.292Z" transform="translate(12667.904 5230.081)" fill="#701919"/>
        <path id="Path_7702" data-name="Path 7702" d="M-11528.83-4749.271a1.137,1.137,0,0,1,.354,1.326c-.249.479-.806.6-2.558.845-1.929.272-2.905.321-2.905.321s-.977-1.419,1.706-2.44S-11529.034-4749.258-11528.83-4749.271Z" transform="translate(12673.924 5229.936)" fill="#c92b2b"/>
      </g>
    </g>
  </g>
</svg>
