<svg id="Layer_1" data-name="Layer 1" xmlns="http://www.w3.org/2000/svg" viewBox="0 0 288.93 603.9"><defs><style>.cls-1{fill:#906f4a;}.cls-2{fill:#d6ddea;}.cls-3{fill:#345184;}.cls-4{fill:#cfae8d;}.cls-5{fill:#3a3633;}.cls-6{fill:#b99979;}.cls-7{fill:#d1d5ed;}.cls-8{fill:#e8e8e8;}.cls-9{fill:#234063;}.cls-10{fill:#b18e6b;}.cls-11{fill:#7095c1;}.cls-12{fill:#fff;}</style></defs><title>man</title><path id="Path_1444" data-name="Path 1444" class="cls-1" d="M289.29,499.39a3,3,0,0,1-.58-2.65,3.16,3.16,0,0,1,3.78-2.38l83.65,19.48a3.16,3.16,0,0,1-1.4,6.16l-83.66-19.48A2.85,2.85,0,0,1,289.29,499.39Z" transform="translate(-131.14 -472.57)"/><g id="Group_2875" data-name="Group 2875"><g id="Group_2873" data-name="Group 2873"><path id="Path_3241" data-name="Path 3241" class="cls-2" d="M303.18,1063.89l6.11-30.21-12.58-1.8-3.6,31.29Z" transform="translate(-131.14 -472.57)"/><path id="Path_3242" data-name="Path 3242" class="cls-3" d="M290.59,1059.57a3.18,3.18,0,0,0-2.16,1.08c-4.31,3.6-17.62,10.07-24.45,11.15-7.2,1.08-7.56,4.68,2.51,4.68,10.43,0,18-1.08,22.3-.72,4.68,0,3.24.72,14.75.72,8.63,0,6.11-11.15,2.88-16.19-1.08-1.44-2.16-2.52-4-2.16Z" transform="translate(-131.14 -472.57)"/></g><g id="Group_2874" data-name="Group 2874"><path id="Path_3243" data-name="Path 3243" class="cls-2" d="M374.75,1011,351,991.24l-7.55,10.43,25.89,18Z" transform="translate(-131.14 -472.57)"/><path id="Path_3244" data-name="Path 3244" class="cls-3" d="M365.39,1018.22c-.71,1.8,0,5,.36,6.11,1.8,5.39,3.6,20.14,2.16,27-1.44,7.2,1.8,9,5.4-.72s5-17.26,6.83-21.58,1.8-2.87,5.75-13.66c2.16-5.4-6.47-10.07-12.22-8.64-1.8.36-2.16.72-3.6,3.24A65.44,65.44,0,0,0,365.39,1018.22Z" transform="translate(-131.14 -472.57)"/></g><path id="Path_3245" data-name="Path 3245" class="cls-4" d="M298.14,593.83a9.94,9.94,0,0,0-14,1l-.36.43a381.12,381.12,0,0,1-27.69,29.85c-8.27,7.91-12.95,12.94-18.34,14.38-14-3.23-38.84-38.84-51.43-62.22l-.36-.36c-.36-.36-.36-.72-.72-1.08l-.72-.71-.72-.72-.72-.73c-.36-.36-.36-.36-.72-.36a1.33,1.33,0,0,0-1.08-.36,1.16,1.16,0,0,1-.71-.36c-.36,0-.72-.36-1.08-.36h-.36c-4.68-1.08-12.23,2.16-19.06-.36-7.56-2.87-17.63-6.82-16.91-1.07,1.08,7.55,5.4,13.31,10.79,15.47,5.76,2.15,20.14.36,24.82,1.43C188.45,605,209,656.77,235.2,660.36H237c7.91,0,19.06-6.83,33.81-20.86a369.54,369.54,0,0,0,28.41-30.93C302.82,603.9,302.46,597.42,298.14,593.83Z" transform="translate(-131.14 -472.57)"/><path id="Path_3246" data-name="Path 3246" class="cls-5" d="M299.58,512.91c-13.67-7.55-15.83,19.42-11.51,28.41,4.68,9.35,18.7,17.62,22.66,10.07C315.76,541.32,317.93,523,299.58,512.91Z" transform="translate(-131.14 -472.57)"/><path id="Path_3247" data-name="Path 3247" class="cls-6" d="M299.22,608.57a371.26,371.26,0,0,1-28.41,30.93L255.7,625.12a386.83,386.83,0,0,0,27.69-29.85,10.25,10.25,0,0,1,14.39-1.44C302.46,597.42,302.82,603.9,299.22,608.57Z" transform="translate(-131.14 -472.57)"/><path id="Path_3248" data-name="Path 3248" class="cls-7" d="M303.18,611.81c-8.64,8.27-18,17.26-26.62,26.26l-20.5-19.79c10.79-10.43,20.5-20.14,27.33-27a14.23,14.23,0,0,1,20.11.32l0,0C308.93,597.07,308.57,606.42,303.18,611.81Z" transform="translate(-131.14 -472.57)"/><path id="Path_3249" data-name="Path 3249" class="cls-4" d="M343.1,576.93c0,9-1.08,20.5-6.12,28.77-6.11,10.07-7.55,11.87-7.55,12.23A11.74,11.74,0,0,1,319,623.68a12.32,12.32,0,0,1-10.43-18.35s1.08-1.8,7.91-12.59c1.08-1.8,1.8-5.39,2.16-9.71a81,81,0,0,0-.72-16.17c-1.08-6.48,3.6-13,10.07-13.67,6.47-1.08,12.94,3.6,13.66,10.07C342.38,565.06,343.1,570.45,343.1,576.93Z" transform="translate(-131.14 -472.57)"/><path id="Path_3250" data-name="Path 3250" class="cls-8" d="M373,597.07c-6.12,34.52-17.63,121.2-15.11,156.08h-87s5.39-128.39,13.3-159.68a8.85,8.85,0,0,1,8.28-6.47H364a8.79,8.79,0,0,1,9.08,8.49A10.54,10.54,0,0,1,373,597.07Z" transform="translate(-131.14 -472.57)"/><path id="Path_3251" data-name="Path 3251" class="cls-3" d="M353.89,809.62s10.43-19.42,3.6-56.47H270.81s-1.08,28.06.72,56.47Z" transform="translate(-131.14 -472.57)"/><path id="Path_3252" data-name="Path 3252" class="cls-3" d="M371.51,1003.11l-12.95,12.59c-6.47-3.24-17.26-10.07-28.77-19.42a417.14,417.14,0,0,1-33.45-29.86C281.24,950.24,269,933,266.49,917.87c-5.39-34.52,4.68-115.45,5.76-124.44,1.43-9.35,11.14-14,20.5-12.59S311.45,791.27,310,801c-3.24,22.66-12.95,87-9.35,111.86a9.26,9.26,0,0,0,1.08,3.95c3.95,11.51,16.9,29.13,32,46.76C346.33,977.57,360,992,371.51,1003.11Z" transform="translate(-131.14 -472.57)"/><path id="Path_3253" data-name="Path 3253" class="cls-9" d="M333.74,963.19c-1.08,10.79-2.52,22.3-3.95,33.09a419,419,0,0,1-33.45-29.85c1.44-16.19,2.88-31.29,4.32-41l1.08-8.64C305.69,927.94,318.64,945.57,333.74,963.19Z" transform="translate(-131.14 -472.57)"/><path id="Path_3254" data-name="Path 3254" class="cls-3" d="M289.87,1048.78c.36-1.07,6.83-91.35,11.15-123.71,6.83-51.07,17.62-132.71,17.62-133.79,1.44-9.35,15.47-14.75,24.82-13.31a17.06,17.06,0,0,1,14.12,19.57c0,.19-.06.38-.1.57,0,.72-14,83.08-24.45,134.15-2.88,36-21.94,116.52-22.66,120.48" transform="translate(-131.14 -472.57)"/><path id="Path_3255" data-name="Path 3255" class="cls-10" d="M343.1,576.93A38.65,38.65,0,0,1,321.88,583h-3.6a81,81,0,0,0-.72-16.18c-1.08-6.48,3.6-13,10.07-13.67,6.47-1.08,12.95,3.6,13.67,10.07C342.38,565.06,343.1,570.45,343.1,576.93Z" transform="translate(-131.14 -472.57)"/><path id="Path_3256" data-name="Path 3256" class="cls-4" d="M288.43,538.8c0,21.22,11.87,38.84,32.73,38.84,16.54,0,42.44-17.26,42.44-38.84A38.92,38.92,0,0,0,324.75,500C303.53,500,288.43,517.22,288.43,538.8Z" transform="translate(-131.14 -472.57)"/><path id="Path_3257" data-name="Path 3257" class="cls-4" d="M420.06,682.3c.36-8.63-10.79-29.85-23.74-50.35-7.91-13-16.18-25.89-23-36a10.43,10.43,0,0,0-14.39-2.88A10.78,10.78,0,0,0,356,607.49c7.56,11.51,15.83,23.74,22.66,35.25,9,15.11,15.11,24.82,18,32-10.79,4-38.12,11.87-62.58,14a12.5,12.5,0,0,0-7.19,3.6h0c-.72,1.07-7.55,9.71-11.15,20.86-1.8,5.39-3.95,17.26,1.8,16.18,5.76-.72,8.63-3.24,11.51-4.32,4.32-1.44,5-1.44,6.48-5.75s1.07-16.9,2.87-19.42C417.18,692.73,420.06,689.49,420.06,682.3Z" transform="translate(-131.14 -472.57)"/><path id="Path_3258" data-name="Path 3258" class="cls-11" d="M306.05,1052.74l-1.8-.36c0-.72,13.31-82.72,21.22-122.28C333,890.54,346.69,796,346.69,795.23c3.6-13.67,2.88-25.89,1.08-43.16h1.8c1.44,14.39,2.88,29.13-1.08,43.88,0,.72-13.66,95.31-21.22,134.87C319.72,970,306.41,1051.66,306.05,1052.74Z" transform="translate(-131.14 -472.57)"/><path id="Path_3259" data-name="Path 3259" class="cls-5" d="M358.92,507.87c-11.51-10.43-20.14,15.11-18,24.46,2.16,10.43,13.67,21.94,19.42,15.47C367.55,539.16,374.39,521.9,358.92,507.87Z" transform="translate(-131.14 -472.57)"/><path id="Path_3260" data-name="Path 3260" class="cls-5" d="M321.88,575.49c7.19-5.75-6.84-13-12.59-12.59-6.11.36-13.67,6.12-10.43,9.71C303.18,577.64,312.53,583,321.88,575.49Z" transform="translate(-131.14 -472.57)"/><path id="Path_3261" data-name="Path 3261" class="cls-5" d="M351.37,514c-9.35,6.83-57.9,7.91-66.18-4.32a21.81,21.81,0,0,0,9.71-.36s-9.35-4-12.58-8.27a54.43,54.43,0,0,0,22.3-4c10.78-4.67,32.72-10.79,46.75,1.44C365.39,511.11,351.37,514,351.37,514Z" transform="translate(-131.14 -472.57)"/><path id="Path_3262" data-name="Path 3262" class="cls-4" d="M366.12,550a13.11,13.11,0,0,1-6.84,9.35,5.49,5.49,0,0,1-7.91-5.75l2.52-12.23c.72-4.32,6.83-6.11,9.35-2.52A13.65,13.65,0,0,1,366.12,550Z" transform="translate(-131.14 -472.57)"/><path id="Path_3263" data-name="Path 3263" class="cls-4" d="M307.85,587c-2.16,7.55,5,11.86,17.63,10.07,8.63-1.08,18-5,25.17-10.07Z" transform="translate(-131.14 -472.57)"/><path id="Path_3264" data-name="Path 3264" class="cls-6" d="M396.68,632,379.42,643.1c-7.19-11.51-15.1-24.09-22.66-35.25A10.37,10.37,0,0,1,374,596.35C380.14,606.06,388.77,619,396.68,632Z" transform="translate(-131.14 -472.57)"/><path id="Path_3265" data-name="Path 3265" class="cls-7" d="M353.17,609.65c6.83,10.07,14,20.5,20.86,30.93l24.1-15.46c-8.28-12.59-16.19-23.74-21.95-31.65a14.37,14.37,0,0,0-19.78-3.6,13.93,13.93,0,0,0-3.53,19.37Z" transform="translate(-131.14 -472.57)"/><rect id="Rectangle_863" data-name="Rectangle 863" class="cls-11" x="179.95" y="279.14" width="1.8" height="58.62"/><path id="Path_3266" data-name="Path 3266" class="cls-11" d="M311.81,800.63A9.67,9.67,0,0,1,302.1,791V751.71h1.8v38.85a8,8,0,0,0,7.91,7.91Z" transform="translate(-131.14 -472.57)"/></g><g id="Group_2876" data-name="Group 2876"><rect id="Rectangle_864" data-name="Rectangle 864" class="cls-12" x="167.02" y="499.79" width="11.03" height="56.08" transform="translate(-500.79 -64.79) rotate(-59.41)"/><path id="Path_3267" data-name="Path 3267" class="cls-12" d="M196,556.75A13,13,0,0,1,191.54,539h0a12.93,12.93,0,0,1,24,7.9l-12.8-7.62-5.56,9.43,12.8,7.63A12.85,12.85,0,0,1,196,556.75Z" transform="translate(-131.14 -472.57)"/><path id="Path_3268" data-name="Path 3268" class="cls-12" d="M137.52,522.18a13,13,0,1,0,13.15-22.34h0a12.83,12.83,0,0,0-13.9.44l12.8,7.63L144,517.33l-12.8-7.62A12.86,12.86,0,0,0,137.52,522.18Z" transform="translate(-131.14 -472.57)"/></g><path id="Path_3234" data-name="Path 3234" class="cls-1" d="M371,517.78l-5.55-33.73L317,472.57,300,501.08Z" transform="translate(-131.14 -472.57)"/><path class="cls-12" d="M268.12,832" transform="translate(-131.14 -472.57)"/></svg>