<svg id="pie-chart" xmlns="http://www.w3.org/2000/svg" width="143.521" height="143.099" viewBox="0 0 143.521 143.099">
  <path id="Path_3112" data-name="Path 3112" d="M71.5,70.689l66.985,28.433c13.85-37.03-1.537-80.545-38.214-94.219-36.35-13.555-78.787,2.224-94.4,38.14-15.851,36.466,1.539,78.866,38.14,94.4a71.745,71.745,0,0,0,54.713.626Z" transform="translate(0.001 -0.085)" fill="#4f8afc"/>
  <path id="Path_3113" data-name="Path 3113" d="M52.631,75.7a48.866,48.866,0,0,0,23.21-22.151.222.222,0,0,0-.11-.3L26.7,29.515,52.337,75.578A.221.221,0,0,0,52.631,75.7Z" transform="translate(67.403 67.177)" fill="#4f8afc"/>
</svg>
