<svg xmlns="http://www.w3.org/2000/svg" width="73.745" height="73.744" viewBox="0 0 73.745 73.744">
  <path id="stethoscope" d="M25.987,68.866a12.61,12.61,0,0,0,8.206,3.625c12.31,0,15.045-9.061,15.5-16.31.912-10.421,3.647-9.967,5.015-9.967,3.191,0,4.1,1.812,4.1,4.984a9.334,9.334,0,0,0-4.559,7.7,9.118,9.118,0,1,0,9.118-9.061H62.46c-.912-4.078-3.191-8.155-8.206-8.155-7.295,0-9.118,6.343-9.574,13.139-.456,9.514-3.647,13.139-10.486,13.139a6.988,6.988,0,0,1-4.559-1.812c-2.735-2.265-2.28-10.421-2.28-10.421,9.118,0,18.237-8.155,21.428-21.747l-.912-.453a73.6,73.6,0,0,0,2.28-16.31c0-4.984-1.368-8.608-4.559-11.327a14.976,14.976,0,0,0-9.574-3.625A4.8,4.8,0,0,0,31.914,0a4.555,4.555,0,0,0-4.559,4.531,4.294,4.294,0,0,0,4.559,4.531A3.611,3.611,0,0,0,35.561,6.8,10.988,10.988,0,0,1,42.4,9.514c2.28,1.812,3.191,4.078,3.191,7.7a77.592,77.592,0,0,1-2.28,15.857l-.912-.453c-1.368,4.984-5.927,16.31-15.045,16.31H22.8c-9.118,0-13.677-11.327-15.045-16.31l-.912.453a77.593,77.593,0,0,1-2.28-15.857c0-3.625.912-5.89,3.191-7.7C9.574,7.7,12.31,7.249,14.589,6.8a3.611,3.611,0,0,0,3.647,2.265A4.294,4.294,0,0,0,22.8,4.531,4.294,4.294,0,0,0,18.237,0a4.8,4.8,0,0,0-4.1,2.265A14.976,14.976,0,0,0,4.559,5.89C1.368,8.608,0,12.233,0,17.216A81.24,81.24,0,0,0,2.28,33.98l-.912.453C4.559,47.572,13.677,55.727,22.8,55.727c0,0-.456,9.967,3.191,13.139Zm37.841-5.437A4.531,4.531,0,1,1,68.387,58.9,4.555,4.555,0,0,1,63.828,63.429Z" transform="translate(0 1.265) rotate(-1)" fill="#4f8afc"/>
</svg>
