<svg xmlns="http://www.w3.org/2000/svg" width="411.222" height="556.43" viewBox="0 0 411.222 556.43">
  <g id="Symbol_1_1" data-name="Symbol 1 – 1" transform="translate(-0.236 -678.535)">
    <g id="Group_2878" data-name="Group 2878" transform="translate(0.236 811.854)">
      <path id="Path_3269" data-name="Path 3269" d="M268.547,134.273A134.273,134.273,0,1,1,134.273,0,134.156,134.156,0,0,1,268.547,134.273Z" fill="#2a2f30"/>
      <path id="Path_3270" data-name="Path 3270" d="M97.747,175.794a77.947,77.947,0,1,1,77.947-77.947C175.978,140.518,140.7,175.794,97.747,175.794Z" transform="translate(36.527 36.711)" fill="#5c6bc0"/>
      <path id="Path_3271" data-name="Path 3271" d="M91.844,160.971a68.986,68.986,0,1,1,69.128-68.844C160.971,129.963,129.963,160.971,91.844,160.971Z" transform="translate(42.43 42.43)" fill="#fff"/>
      <path id="Path_3272" data-name="Path 3272" d="M90.183,157.166a66.283,66.283,0,1,1,66.283-66.283A66.35,66.35,0,0,1,90.183,157.166Z" transform="translate(44.09 45.381)" fill="#929ddc"/>
      <path id="Path_3273" data-name="Path 3273" d="M59.6,27.6H49.927A6.922,6.922,0,0,0,43.1,34.427l2.276,11.379c.284,1.138.569,2.56,1.707,2.56H62.444c1.138,0,1.422-1.422,1.707-2.56l2.276-11.379A6.922,6.922,0,0,0,59.6,27.6Z" transform="translate(79.51 50.916)" fill="#d1d5ed"/>
      <path id="Path_3274" data-name="Path 3274" d="M40.273,33.345l-6.827,6.827a7.048,7.048,0,0,0,0,9.672L43.117,56.1c.853.569,1.991,1.422,2.845.569l5.405-5.405,5.405-5.405c.853-.853,0-1.991-.569-2.845l-6.258-9.672A7.048,7.048,0,0,0,40.273,33.345Z" transform="translate(58.156 57.972)" fill="#d1d5ed"/>
      <path id="Path_3275" data-name="Path 3275" d="M27.6,49.927V59.6a6.922,6.922,0,0,0,6.827,6.827l11.379-2.276c1.138-.284,2.56-.569,2.56-1.707V47.083c0-1.138-1.422-1.422-2.56-1.707L34.427,43.1A6.922,6.922,0,0,0,27.6,49.927Z" transform="translate(50.916 79.51)" fill="#d1d5ed"/>
      <path id="Path_3276" data-name="Path 3276" d="M33.345,70.834l6.827,6.827a6.7,6.7,0,0,0,9.388,0l6.259-9.672c.569-.853,1.422-1.991.569-2.845l-5.121-5.405-5.405-5.405c-.853-.853-1.991,0-2.845.569l-9.672,6.259A7.048,7.048,0,0,0,33.345,70.834Z" transform="translate(57.972 99.568)" fill="#d1d5ed"/>
      <path id="Path_3277" data-name="Path 3277" d="M49.927,80.267H59.6a6.922,6.922,0,0,0,6.827-6.827L64.151,62.06c-.284-1.138-.569-2.56-1.707-2.56H47.083c-1.138,0-1.422,1.422-1.707,2.56L43.1,73.439A6.739,6.739,0,0,0,49.927,80.267Z" transform="translate(79.51 109.764)" fill="#d1d5ed"/>
      <path id="Path_3278" data-name="Path 3278" d="M70.834,77.477l6.827-6.827a6.7,6.7,0,0,0,0-9.388L67.989,55c-.853-.569-1.991-1.422-2.845-.569l-5.405,5.121L54.334,64.96c-.853.853,0,1.991.569,2.845l6.259,9.672A7.048,7.048,0,0,0,70.834,77.477Z" transform="translate(99.568 99.753)" fill="#d1d5ed"/>
      <path id="Path_3279" data-name="Path 3279" d="M80.267,59.6V49.927A6.922,6.922,0,0,0,73.439,43.1L62.06,45.376c-1.138.284-2.56.569-2.56,1.707V62.444c0,1.138,1.422,1.422,2.56,1.707l11.379,2.276A6.739,6.739,0,0,0,80.267,59.6Z" transform="translate(109.764 79.51)" fill="#d1d5ed"/>
      <path id="Path_3280" data-name="Path 3280" d="M77.477,40.273l-6.827-6.827a6.7,6.7,0,0,0-9.388,0L55,43.117c-.569.853-1.422,1.991-.569,2.845l5.405,5.405,5.405,5.405c.853.853,1.991,0,2.845-.569l9.672-6.258A7.353,7.353,0,0,0,77.477,40.273Z" transform="translate(99.753 58.156)" fill="#d1d5ed"/>
      <path id="Path_3281" data-name="Path 3281" d="M55.172,44.136A4.836,4.836,0,1,1,50.336,39.3,4.63,4.63,0,0,1,55.172,44.136Z" transform="translate(83.937 72.5)" fill="#d1d5ed"/>
      <path id="Path_3282" data-name="Path 3282" d="M45.835,43.761a4.769,4.769,0,1,1-5.974,3.129A4.688,4.688,0,0,1,45.835,43.761Z" transform="translate(73.077 80.271)" fill="#d1d5ed"/>
      <path id="Path_3283" data-name="Path 3283" d="M42.612,52.5a4.97,4.97,0,0,1,6.827-1.138c2.276,1.422,2.56,4.552,1.138,6.827a4.97,4.97,0,0,1-6.827,1.138A5.207,5.207,0,0,1,42.612,52.5Z" transform="translate(77.153 93.151)" fill="#d1d5ed"/>
      <path id="Path_3284" data-name="Path 3284" d="M50.144,58.291a4.724,4.724,0,0,1,1.138-6.827A4.97,4.97,0,0,1,58.109,52.6a4.724,4.724,0,0,1-1.138,6.827A5.207,5.207,0,0,1,50.144,58.291Z" transform="translate(90.673 93.335)" fill="#d1d5ed"/>
      <path id="Path_3285" data-name="Path 3285" d="M57.735,52.964a4.769,4.769,0,1,1,3.129-5.974A4.688,4.688,0,0,1,57.735,52.964Z" transform="translate(95.029 80.456)" fill="#d1d5ed"/>
    </g>
    <g id="Group_2879" data-name="Group 2879" transform="translate(199.834 711.233)">
      <path id="Path_3205" data-name="Path 3205" d="M125.772,215.144h87.085a4.81,4.81,0,0,0,4.872-4.872h0a4.81,4.81,0,0,0-4.872-4.872H125.772a4.81,4.81,0,0,0-4.872,4.872h0A4.81,4.81,0,0,0,125.772,215.144Z" transform="translate(-6.106 308.586)" fill="#e2e2e2" opacity="0.74"/>
      <g id="Group_2864" data-name="Group 2864" transform="translate(0 0)">
        <g id="Group_2859" data-name="Group 2859" transform="translate(140.485 474.706)">
          <path id="Path_3206" data-name="Path 3206" d="M134.558,221.122,130.6,195.849l11.266-3.349,1.827,26.8Z" transform="translate(-126.755 -192.5)" fill="#d6ddea"/>
          <path id="Path_3207" data-name="Path 3207" d="M146.58,201.422a3.289,3.289,0,0,1,2.131.914c3.958,3.349,16.138,9.439,22.533,10.353,6.7.913,7,4.263-2.436,4.263s-16.443-.913-20.706-.609c-4.263,0-3.045.609-13.4.609-7.917,0-5.481-10.048-2.74-14.92a3.976,3.976,0,0,1,3.654-2.131Z" transform="translate(-129.337 -177.367)" fill="#fd5b73"/>
        </g>
        <g id="Group_2860" data-name="Group 2860" transform="translate(100.011 459.786)">
          <path id="Path_3208" data-name="Path 3208" d="M119.9,207.7l15.834-20.1,10.353,6.09-18.574,19.488Z" transform="translate(-108.162 -187.6)" fill="#d6ddea"/>
          <path id="Path_3209" data-name="Path 3209" d="M137.527,202.32a4.4,4.4,0,0,1,.609,2.131c.3,5.176,4.263,18.574,8.83,22.837,4.872,4.263,1.827,5.481-6.09,1.827-8.526-3.958-10.353-12.789-13.4-15.529-3.045-3.045-2.74-1.827-9.744-9.439-5.481-5.785,3.654-10.962,9.135-11.875a3.477,3.477,0,0,1,3.958,1.522Z" transform="translate(-116.045 -178.265)" fill="#fd5b73"/>
        </g>
        <g id="Group_2862" data-name="Group 2862">
          <g id="Group_2861" data-name="Group 2861" transform="translate(93.114 43.419)">
            <path id="Path_3210" data-name="Path 3210" d="M118.111,54.3s-3.045,20.706,3.045,30.145,7,10.962,7,10.962" transform="translate(-106.479 -43.824)" fill="#ed8c62"/>
            <path id="Path_3211" data-name="Path 3211" d="M140.637,111.882a12.407,12.407,0,0,1-5.481,1.522,10.348,10.348,0,0,1-9.135-5.176s-1.218-1.827-6.7-10.657c-3.958-6.09-5.176-14.616-5.481-21.924a83.231,83.231,0,0,1,.913-15.529,10.765,10.765,0,0,1,21.315,3.045,54.033,54.033,0,0,0-.609,10.048,45.132,45.132,0,0,0,.913,9.439A7.015,7.015,0,0,0,137.592,86c6.09,9.744,7,11.266,7,11.266A10.934,10.934,0,0,1,140.637,111.882Z" transform="translate(-113.78 -50.859)" fill="#cfae8d"/>
          </g>
          <path id="Path_3213" data-name="Path 3213" d="M191.661,143.933c-1.218-5.785-8.221-20.706-16.138-36.235C167,91.255,157.558,73.9,153.3,66.287a9.2,9.2,0,1,0-16.138,8.83c6.7,12.18,13.7,24.968,19.488,36.539,6.7,13.093,13.4,21.315,16.138,27.709-4.872,4.263-17.052,4.567-26.8,3.958-2.74-.3-13.093-.913-19.792,5.176-2.74,2.436-5.785,7-5.481,14.007.3,4.872.913,7,5.176,9.135a10.715,10.715,0,0,0,6.09.913c4.872-.609,5.481-3.349,5.481-9.135a21.667,21.667,0,0,1,2.131-8.221,264.967,264.967,0,0,0,27.1,5.176c12.18,1.522,17.356-.914,21.924-6.09A12.5,12.5,0,0,0,191.661,143.933Z" transform="translate(-6.529 14.404)" fill="#cfae8d"/>
          <path id="Path_3214" data-name="Path 3214" d="M114.324,159.637s-9.439-17.052-3.349-49.937H187.4a469.578,469.578,0,0,1-.609,49.937Z" transform="translate(-30.588 112.885)" fill="#2a2f30"/>
          <path id="Path_3215" data-name="Path 3215" d="M165.036,108.044l-8.83,1.827-9.744,1.827c-6.09-11.571-12.789-24.359-19.488-36.539a9.2,9.2,0,0,1,16.138-8.83C147.071,74.245,156.51,91.6,165.036,108.044Z" transform="translate(3.959 14.363)" fill="#b89674"/>
          <path id="Path_3216" data-name="Path 3216" d="M166.022,68.579a9.078,9.078,0,0,0-10.962-6.7c-21.924,5.481-37.148,10.353-47.806,14.92C82.9,87.153,83.2,94.766,83.2,98.724c0,4.567.913,13.093,53.591,32.276,0,1.522-1.522,7.612-2.74,9.439-2.436,4.567,0,8.526,2.74,12.789a6.943,6.943,0,0,0,5.481,3.349c3.349,0,7.308-3.958,7.917-7.612,2.131-12.18,1.522-19.488.913-21.01h0a.3.3,0,0,0-.3-.3c-.3-.3-.3-.914-.609-1.218l-.609-.609c-.3-.3-.3-.609-.609-.609a4.2,4.2,0,0,0-1.218-.914l-.3-.3a14.846,14.846,0,0,0-2.131-.913c-17.965-7.308-34.408-19.183-41.716-24.36a73.933,73.933,0,0,1,10.657-4.872c11.266-4.567,27.709-9.744,44.761-14.007C164.2,78.323,167.24,73.451,166.022,68.579Z" transform="translate(-83.2 14.548)" fill="#cfae8d"/>
          <path id="Path_3217" data-name="Path 3217" d="M168.257,103.958l-12.18,2.436-9.439,1.827h0l-8.221,1.522c-10.353-20.4-13.093-25.273-13.4-32.276-.3-7.917,1.827-11.875,7-14.616a10.962,10.962,0,0,1,14.616,4.263C146.334,67.115,157.6,82.948,168.257,103.958Z" transform="translate(2.26 14.49)" fill="#e8e8e8"/>
          <path id="Path_3218" data-name="Path 3218" d="M208.585,249.561c-1.218,7.612-5.176,15.529-10.962,25.577-9.439,16.747-24.055,35.017-37.453,50.546-9.135,10.657-17.661,20.1-22.837,26.491a52.553,52.553,0,0,0-5.176,6.394L121.5,344.563c3.958-5.785,7.612-13.4,12.484-20.4,0-.3.3-.3.3-.609,8.83-13.4,18.27-28.318,25.882-42.02.3-.3.609-.914.913-1.218C169,266,175.091,253.215,176.309,245.6c2.131-13.4-17.965-54.809-37.757-91.653-2.131-4.263-4.567-8.221-6.7-12.484a8.593,8.593,0,0,1-1.218-4.567c-.609-6.7,4.263-14.616,10.353-17.965,7.308-3.958,17.052-6.09,21.01,1.218C170.219,135.376,213.457,216.98,208.585,249.561Z" transform="translate(-4.879 124.358)" fill="#2a2f30"/>
          <path id="Path_3219" data-name="Path 3219" d="M151.886,213.952c-9.135,10.657-17.661,20.1-22.837,26.491q-1.37-11.419-2.74-23.751c-.3-1.522-.3-3.045-.609-4.872,8.83-13.4,18.27-28.318,25.882-42.02C151.886,183.5,151.886,199.031,151.886,213.952Z" transform="translate(3.71 235.786)" fill="#2d548c"/>
          <path id="Path_3220" data-name="Path 3220" d="M182.289,247.87c-3.654-30.754-29.536-112.967-33.494-122.1-3.349-7.612-21.924-9.439-29.84-6.09a15.428,15.428,0,0,0-7.917,20.1c10.353,23.446,39.584,86.476,42.629,108.7,1.827,13.4,3.958,40.193,8.221,62.726,3.045,15.834,5.785,31.363,8.221,42.629,1.827,9.744,1.827,7.917,2.131,8.83l18.27-2.74C190.815,360.533,186.856,284.1,182.289,247.87Z" transform="translate(-28.824 130.007)" fill="#2a2f30"/>
          <path id="Path_3221" data-name="Path 3221" d="M143.373,79.541C126.321,83.8,109.879,88.98,98.612,93.548L91,76.8c10.657-4.567,25.882-9.439,47.805-14.92a9.078,9.078,0,0,1,10.962,6.7A8.67,8.67,0,0,1,143.373,79.541Z" transform="translate(-67.249 14.548)" fill="#b89674"/>
          <path id="Path_3222" data-name="Path 3222" d="M137.065,61.716c5.785-.913,10.048,1.827,11.571,7.612s-2.436,10.048-7.308,13.093c-6.394,3.654-8.221,4.263-34.712,13.4L92,75.418C125.494,62.629,127.321,63.238,137.065,61.716Z" transform="translate(-65.204 14.408)" fill="#e8e8e8"/>
          <path id="Path_3223" data-name="Path 3223" d="M136.069,82.55h-1.522a33.921,33.921,0,0,1-20.706-7,83.231,83.231,0,0,1,.913-15.529,10.765,10.765,0,1,1,21.315,3.045,54.033,54.033,0,0,0-.609,10.048C135.46,76.765,135.46,80.114,136.069,82.55Z" transform="translate(-20.666 -7.645)" fill="#b89674"/>
          <path id="Path_3224" data-name="Path 3224" d="M177.128,73.444c-4.263,19.792-15.225,34.1-34.1,34.1s-30.754-14.311-34.1-34.1C105.876,54.87,124.45,36.6,143.329,36.6,161.9,36.6,181.391,54.87,177.128,73.444Z" transform="translate(-31.275 -36.6)" fill="#cfae8d"/>
          <path id="Path_3225" data-name="Path 3225" d="M173.452,381.108V380.5c-5.176-31.972-13.093-80.386-17.052-110.836-2.74-22.228-30.449-88-40.5-111.445,0-.3,0-.3-.3-.609v-.3c-1.522-4.567-6.7-21.315-1.827-47.806l1.522.3c-4.872,26.186.3,42.629,1.827,46.892v.609c10.353,23.446,37.757,89.521,40.8,112.054,3.958,30.449,11.875,78.864,17.052,110.836v.609Z" transform="translate(-24.859 112.476)" fill="#658bc1"/>
          <path id="Path_3212" data-name="Path 3212" d="M118.692,208.366c2.131-30.754-8.221-107.486-13.4-137.936a7.532,7.532,0,0,1,7.612-8.83h63.335a7.867,7.867,0,0,1,7.308,5.481c7.308,27.709,11.875,141.285,11.875,141.285Z" transform="translate(-38.306 14.523)" fill="#e8e8e8"/>
        </g>
        <path id="Path_3226" data-name="Path 3226" d="M150.075,61.5c0,4.567-1.827,12.484-14.007,12.484-8.83,0-19.792-3.654-24.055-10.962L111.1,61.5Z" transform="translate(-26.146 14.319)" fill="#c8d6db"/>
        <path id="Path_3227" data-name="Path 3227" d="M112.3,61.5c3.349,5.785,13.093,9.439,21.315,9.439,8.526,0,10.962-4.263,10.962-9.439Z" transform="translate(-23.692 14.319)" fill="#cfae8d"/>
        <rect id="Rectangle_862" data-name="Rectangle 862" width="1.522" height="52.373" transform="matrix(0.987, -0.16, 0.16, 0.987, 118.836, 222.14)" fill="#658bc1"/>
        <path id="Path_3231" data-name="Path 3231" d="M124.9,152.134l-.3-1.522s3.349-.609,4.872-3.045a7.28,7.28,0,0,0,.913-5.176L125.209,109.5l1.522-.3,5.176,32.885c.3,2.436,0,4.872-1.218,6.394A8.359,8.359,0,0,1,124.9,152.134Z" transform="translate(1.461 111.863)" fill="#658bc1"/>
        <path id="Path_3232" data-name="Path 3232" d="M108.992,52.588a12.789,12.789,0,0,0,0,10.048,4.688,4.688,0,0,0,8.526-.3l4.567-9.744c1.522-3.654-1.827-7.612-5.481-6.7A12.736,12.736,0,0,0,108.992,52.588Z" transform="translate(-32.564 -17.876)" fill="#cfae8d"/>
      </g>
    </g>
    <g id="male-head-hair-and-beard" transform="translate(273.672 699.665)">
      <g id="Group_2880" data-name="Group 2880" transform="translate(0 0)">
        <path id="Path_3286" data-name="Path 3286" d="M62.595,8.4s.148-1.644,3.268-2.523C62.807,4.5,60.244,7.719,60.244,7.719L55.7,6.622a3,3,0,0,1,2.347-4.305c-2.7-1.568-5.471,2.873-5.471,2.873S47.248-1.712,45.606.4A3.117,3.117,0,0,1,47.6,4.5S9.308-6.706,0,26.364c2.487-3.821,3.128-3.008,3.128-3.008s-3.5,20.777,1.143,34.032c1.022,1.063,10.644,8.576,10.644,8.576S4.413,51.318,6.122,44.589c1.195-4.7,6.022-8.313,6.6-10.868.947-5.59-1.141-11.02,5.492-15.121s16.888,1.2,20.746,1,12.257-4.06,18.833-.658c7.044,3.644,5.034,12.719,5.232,14.322.378,2,3.268,4,5.187,7.282s-2.755,19.778-2.755,19.778,2.589.97,3.442-.12,4.856-30.5,4.5-31.522.281-2.461,1.778-.751C76.448,17.14,62.595,8.4,62.595,8.4Z" transform="matrix(0.999, 0.035, -0.035, 0.999, 2.302, 0)" fill="#3a3633"/>
        <path id="Path_3287" data-name="Path 3287" d="M67.175,24.158c-.821,2.609-5.829,10.719-7.543,11.586S46.267,31.612,42.454,31.5s-14.337,2.824-16.648,2.122S7.592,15.1,6.619,17.173s5.4,9.479,5.6,11.017.068,3.5,2.168,5.439,6.2,5.66,8.81,8.1c0-1.956,1.044-1.849,1.044-1.849S32.6,48.042,34.84,46.9c-2.614-1.2-1.57-2.342-1.57-2.342s6.2,8.374,8.212,8.7,9.109-8.977,9.109-8.977,1.8,2.011,0,3.21c2.542.165,12.544-7.07,16.13-12.617S71.952,19.1,71.952,19.1,68,21.543,67.175,24.158Z" transform="translate(-1.938 39.389)" fill="#3a3633"/>
      </g>
    </g>
    <g id="baseball-cap_1_" data-name="baseball-cap(1)" transform="translate(256.542 678.535)">
      <g id="Group_2881" data-name="Group 2881" transform="translate(0 0)">
        <path id="Path_3288" data-name="Path 3288" d="M61.087,33.321c-17.893,0-33.409-3-43.131-8.517-3.346,1.624-13.883,6.877-16.671,10.2A7.589,7.589,0,0,0,0,38.334a11.2,11.2,0,0,0,.755,2.648c23.66,10,36.889,6.191,50.116,3.584C64.942,41.8,77.7,32.794,77.7,32.794c.106-.118.233-.236.346-.349C72.245,33.02,66.551,33.321,61.087,33.321Z" transform="translate(0 21.661)" fill="#906f4a"/>
        <path id="Path_3289" data-name="Path 3289" d="M50.273,8.427l-.2,0c-.166-2.225-2.857-4-6.179-4-3.43,0-6.21,1.883-6.21,4.209,0,.038.014.072.014.111C6.257,12.023,7.544,34.029,8.184,45.908a35.753,35.753,0,0,1-.176,5.465c12.822,7.3,36.507,9.984,62.332,6.893a102.4,102.4,0,0,1,11.317-6.46s.4-12.2,0-16.245C79.528,14.339,61.38,9.45,50.273,8.427Z" transform="translate(9.51 -4.437)" fill="#906f4a"/>
      </g>
    </g>
  </g>
</svg>
