<svg id="Group_23827" data-name="Group 23827" xmlns="http://www.w3.org/2000/svg" width="88.539" height="62.662" viewBox="0 0 88.539 62.662">
  <path id="Path_1776" data-name="Path 1776" d="M88.03,25.1a2.277,2.277,0,0,0-1.757-.837H77.656c-2.126-5.609-4.9-11.1-8.046-13.178-10.893-7.166-39.786-7.166-50.679,0-3.151,2.077-5.91,7.579-8.048,13.178H2.267A2.269,2.269,0,0,0,.048,26.987l1.276,6.184a2.266,2.266,0,0,0,2.219,1.807H6.1a15.308,15.308,0,0,0-3.675,10A14.986,14.986,0,0,0,7.157,56.236c.034.029.068.05.1.079v8.653a3.4,3.4,0,0,0,3.4,3.4h7.948a3.4,3.4,0,0,0,3.4-3.4V61.491H66.532v3.478a3.4,3.4,0,0,0,3.4,3.4h7.948a3.406,3.406,0,0,0,3.4-3.4V56.485a15.553,15.553,0,0,0,.993-21.512H85a2.259,2.259,0,0,0,2.219-1.809L88.5,26.983A2.285,2.285,0,0,0,88.03,25.1ZM22.666,16.761c8.683-5.715,34.524-5.715,43.2,0,1.687,1.106,3.856,5.579,5.844,11.056H16.826C18.81,22.342,20.979,17.871,22.666,16.761ZM12.5,45.835a6.69,6.69,0,1,1,6.69,6.69A6.689,6.689,0,0,1,12.5,45.835Zm56.945,6.69a6.689,6.689,0,1,1,6.69-6.69A6.691,6.691,0,0,1,69.441,52.525Z" transform="translate(0 -5.707)" fill="#4f8afc"/>
</svg>
