<svg xmlns="http://www.w3.org/2000/svg" width="88.246" height="74.717" viewBox="0 0 88.246 74.717">
  <defs>
    <style>
      .cls-1 {
        fill: #4fb1fc;
      }
    </style>
  </defs>
  <g id="accident_1_" data-name="accident (1)" transform="translate(0 -35.102)">
    <g id="XMLID_21_" transform="translate(0 35.103)">
      <g id="XMLID_1225_" transform="translate(53.826 54.08)">
        <path id="XMLID_1227_" class="cls-1" d="M301.129,330.168a3.373,3.373,0,0,0,2.263-4.2l-1.726-5.762a3.373,3.373,0,0,0-4.2-2.263l-5.693,1.705-1.089,1.089,7.4.948L289,322.854l-5.458-6.3a2.409,2.409,0,0,0-3.64,3.156l6.3,7.272a2.433,2.433,0,0,0,2.127.811h0l10.035-1.289-9.223,3.455a4.454,4.454,0,0,1-3.337-.388,6.76,6.76,0,0,1-2.059-1.894l-3.816,3.816,0,0a6.073,6.073,0,0,0,7.012,2.844C292.129,332.82,299.959,330.519,301.129,330.168Z" transform="translate(-279.309 -315.73)"/>
      </g>
      <path id="XMLID_1218_" class="cls-1" d="M51.539,153.5a4.71,4.71,0,0,1,2.354-4.557l-3.9-3.9L61.9,133.136l5.391,8.431-.071.071L59.361,149.5a48.533,48.533,0,0,1,3.24,3.671l9.71-9.71a2.145,2.145,0,0,0,.29-2.668l-9.853-15.412-6.763-6.9a4.762,4.762,0,0,0-7.422-5.867l-1.814,1.814h0A11.362,11.362,0,0,1,30.68,130.5h0L18.068,143.109A11.362,11.362,0,0,1,2,159.176l-.6.6a4.762,4.762,0,0,0,5.419,7.665l1.62,1.62a7.516,7.516,0,0,0,10.629,0l4.775-4.775,20.354,5.741a2.094,2.094,0,0,0,2.1-.547l9.618-9.618C52.582,156.031,51.727,155.434,51.539,153.5ZM43.97,164.891,33.189,161.85,46.541,148.5l4.1,4.1-3.454.656-7.264,7.264,10.231-1.8Z" transform="translate(0 -96.55)"/>
      <circle id="XMLID_1219_" class="cls-1" cx="7.267" cy="7.267" r="7.267" transform="translate(31.447 18.644)"/>
      <circle id="XMLID_1220_" class="cls-1" cx="7.267" cy="7.267" r="7.267" transform="translate(2.767 47.325)"/>
      <circle id="XMLID_1221_" class="cls-1" cx="4.993" cy="4.993" r="4.993" transform="translate(78.261 54.56)"/>
      <path id="XMLID_1222_" class="cls-1" d="M6.243,51.787a5.026,5.026,0,0,0,2.45-.634,5.2,5.2,0,0,0,4.957,3.966v0a3.3,3.3,0,1,0,4.78-2.941,5.178,5.178,0,0,0,.514-2.228,3.85,3.85,0,0,0-1.967-7.144A5.718,5.718,0,1,0,5.9,40.82a5.77,5.77,0,0,0,.066.873,5.051,5.051,0,0,0,.279,10.094Z" transform="translate(-0.962 -35.103)"/>
      <circle id="XMLID_1223_" class="cls-1" cx="2.12" cy="2.12" r="2.12" transform="translate(17.719 24.996)"/>
    </g>
  </g>
</svg>
