<svg id="accident" xmlns="http://www.w3.org/2000/svg" width="136.221" height="81.581" viewBox="0 0 136.221 81.581">
  <defs>
    <style>
      .cls-1 {
        fill: rgba(252,112,64,0.76);
      }
    </style>
  </defs>
  <g id="XMLID_928_" transform="translate(0 0)">
    <path id="XMLID_930_" class="cls-1" d="M134.561,162.735l-18.994-14.7a6.755,6.755,0,0,1-4.435,3.346l-13.492,3a6.544,6.544,0,0,1-6.632-2.437l-7.6-12.295L93.8,150.1a3.417,3.417,0,0,0,3.138.931l13.492-3A3.577,3.577,0,0,0,113,143.46c-.011-.035-.024-.069-.036-.1a3.437,3.437,0,0,0-3.981-2.3h0l-11.681,2.6h0l-9.413-9.465,9.952,5.842.8-.177-6.818-9.549a4.737,4.737,0,0,0-6.763-1.055l-6.941,5.287a5.1,5.1,0,0,0-1.022,6.984l14.63,20.486H84.3L69.487,134.682a3.057,3.057,0,0,0-2.68-1.622H14.032a3.1,3.1,0,0,0-3,2.49L5.256,162.008v14.3a7.083,7.083,0,0,0,1.577,13.921h3.55c0-9.362,7.384-16.959,16.422-16.959s16.422,7.593,16.422,16.959H68.548c0-9.363,7.385-16.959,16.422-16.959s16.422,7.594,16.422,16.959h1.1a6.947,6.947,0,0,0,6.833-7.056,7.047,7.047,0,0,0-4.555-6.653v-3.385a11.284,11.284,0,0,0-2.979-7.678l9.646,2.122,6.33,21.068a4.123,4.123,0,0,0,5.188,2.82,4.308,4.308,0,0,0,2.731-5.357l-7.05-23.464a4.2,4.2,0,0,0-3.1-2.919l-7.038-1.549,4-1.827,17.093,13.23a4.06,4.06,0,0,0,5.8-.858A4.374,4.374,0,0,0,134.561,162.735ZM45.271,140.3H64.5l7.849,14.474H45.271V140.3Zm-28.074,0H38.263v14.474H14.113Z" transform="translate(0 -118.221)"/>
    <ellipse id="XMLID_937_" class="cls-1" cx="9.386" cy="9.385" rx="9.386" ry="9.385" transform="translate(14.754 62.81)"/>
    <ellipse id="XMLID_1074_" class="cls-1" cx="9.386" cy="9.385" rx="9.386" ry="9.385" transform="translate(75.888 62.81)"/>
    <ellipse id="XMLID_1075_" class="cls-1" cx="6.448" cy="6.448" rx="6.448" ry="6.448" transform="translate(69.733)"/>
  </g>
</svg>
