<svg xmlns="http://www.w3.org/2000/svg" width="1119.714" height="802.5" viewBox="0 0 1119.714 802.5">
  <g id="bikeins" transform="translate(-800.77 -162.915)">
    <path id="Path_9095" data-name="Path 9095" d="M1119.23,802.833H0C82.516,440.521,320.691,312.061,494.568,261.966c14.508-4.179,9.7-24.605,12.268-38.382C543.7,25.922,809.712-68.774,1119.246,59.852Z" transform="translate(800.77 161.898)" fill="#eff5ff"/>
    <path id="Path_8609" data-name="Path 8609" d="M78.717,601.869S54.848,641.446,35.251,696.2-4.312,823.54-4.312,823.54l1119.293.081-.407-429.047.353-267.88-51.152-.019V253.269h-65.5V605.416H969.3V253.269L894,110.182l-86,143.087V605.416H773.236V253.269H697.482V126.675L563.4,126.662l-10.246,11.444-12.1,16.634.91,98.53V605.416H513.445V339.3H370.4V605.416H308.91v-184.1l-21.137-49.251L266.128,386.95l-21.208,16.015L223.6,420.588,204.458,438.3l.18,167.117H165.869l.446-125.7-52.136,60.623Z" transform="translate(805.082 140.818)" fill="#8fb6ff" opacity="0.57"/>
    <rect id="Rectangle_1888" data-name="Rectangle 1888" width="114.113" height="28.528" transform="translate(1188.842 491.812)" fill="#fff" opacity="0.5"/>
    <rect id="Rectangle_1889" data-name="Rectangle 1889" width="114.113" height="28.528" transform="translate(1188.842 536.372)" fill="#fff" opacity="0.5"/>
    <rect id="Rectangle_1890" data-name="Rectangle 1890" width="114.113" height="28.528" transform="translate(1188.842 580.041)" fill="#fff" opacity="0.5"/>
    <rect id="Rectangle_1891" data-name="Rectangle 1891" width="114.113" height="28.528" transform="translate(1188.842 623.71)" fill="#fff" opacity="0.5"/>
    <rect id="Rectangle_1892" data-name="Rectangle 1892" width="114.113" height="28.528" transform="translate(1188.842 667.38)" fill="#fff" opacity="0.5"/>
    <rect id="Rectangle_1893" data-name="Rectangle 1893" width="114.113" height="28.528" transform="translate(1188.842 711.94)" fill="#fff" opacity="0.5"/>
    <rect id="Rectangle_1894" data-name="Rectangle 1894" width="82.911" height="28.528" transform="translate(1828.722 416.059)" fill="#fff" opacity="0.5"/>
    <rect id="Rectangle_1895" data-name="Rectangle 1895" width="82.911" height="28.528" transform="translate(1828.722 475.77)" fill="#fff" opacity="0.5"/>
    <rect id="Rectangle_1896" data-name="Rectangle 1896" width="82.911" height="28.528" transform="translate(1828.722 536.372)" fill="#fff" opacity="0.5"/>
    <rect id="Rectangle_1897" data-name="Rectangle 1897" width="82.911" height="28.528" transform="translate(1828.722 596.083)" fill="#fff" opacity="0.5"/>
    <rect id="Rectangle_1898" data-name="Rectangle 1898" width="82.911" height="28.528" transform="translate(1828.722 656.686)" fill="#fff" opacity="0.5"/>
    <rect id="Rectangle_1899" data-name="Rectangle 1899" width="82.911" height="28.528" transform="translate(1828.722 716.396)" fill="#fff" opacity="0.5"/>
    <rect id="Rectangle_1900" data-name="Rectangle 1900" width="57.948" height="28.528" transform="translate(1364.416 293.112)" fill="#ebf4fc"/>
    <rect id="Rectangle_1901" data-name="Rectangle 1901" width="57.948" height="28.528" transform="translate(1433.038 293.112)" fill="#ebf4fc"/>
    <rect id="Rectangle_1902" data-name="Rectangle 1902" width="57.948" height="28.528" transform="translate(1364.416 351.892)" fill="#ebf4fc"/>
    <rect id="Rectangle_1903" data-name="Rectangle 1903" width="57.948" height="28.528" transform="translate(1433.038 351.892)" fill="#ebf4fc"/>
    <rect id="Rectangle_1904" data-name="Rectangle 1904" width="57.948" height="28.528" transform="translate(1364.416 410.711)" fill="#ebf4fc"/>
    <rect id="Rectangle_1905" data-name="Rectangle 1905" width="57.948" height="28.528" transform="translate(1433.038 410.711)" fill="#ebf4fc"/>
    <rect id="Rectangle_1906" data-name="Rectangle 1906" width="57.948" height="28.528" transform="translate(1501.661 410.711)" fill="#ebf4fc"/>
    <rect id="Rectangle_1907" data-name="Rectangle 1907" width="57.948" height="28.528" transform="translate(1501.661 469.531)" fill="#ebf4fc"/>
    <rect id="Rectangle_1908" data-name="Rectangle 1908" width="57.948" height="28.528" transform="translate(1501.661 527.46)" fill="#ebf4fc"/>
    <rect id="Rectangle_1909" data-name="Rectangle 1909" width="57.948" height="28.528" transform="translate(1501.661 585.389)" fill="#ebf4fc"/>
    <rect id="Rectangle_1910" data-name="Rectangle 1910" width="57.948" height="28.528" transform="translate(1501.661 644.208)" fill="#ebf4fc"/>
    <rect id="Rectangle_1911" data-name="Rectangle 1911" width="57.948" height="28.528" transform="translate(1501.661 702.137)" fill="#ebf4fc"/>
    <rect id="Rectangle_1912" data-name="Rectangle 1912" width="57.948" height="28.528" transform="translate(1364.416 469.531)" fill="#ebf4fc"/>
    <rect id="Rectangle_1913" data-name="Rectangle 1913" width="57.948" height="28.528" transform="translate(1433.038 469.531)" fill="#ebf4fc"/>
    <rect id="Rectangle_1914" data-name="Rectangle 1914" width="57.948" height="28.528" transform="translate(1364.416 528.351)" fill="#ebf4fc"/>
    <rect id="Rectangle_1915" data-name="Rectangle 1915" width="57.948" height="28.528" transform="translate(1433.038 528.351)" fill="#ebf4fc"/>
    <rect id="Rectangle_1916" data-name="Rectangle 1916" width="57.948" height="28.528" transform="translate(1364.416 586.279)" fill="#ebf4fc"/>
    <rect id="Rectangle_1917" data-name="Rectangle 1917" width="57.948" height="28.528" transform="translate(1433.038 586.279)" fill="#ebf4fc"/>
    <rect id="Rectangle_1918" data-name="Rectangle 1918" width="57.948" height="28.528" transform="translate(1364.416 644.208)" fill="#ebf4fc"/>
    <rect id="Rectangle_1919" data-name="Rectangle 1919" width="57.948" height="28.528" transform="translate(1433.038 644.208)" fill="#ebf4fc"/>
    <rect id="Rectangle_1920" data-name="Rectangle 1920" width="57.948" height="28.528" transform="translate(1364.416 702.137)" fill="#ebf4fc"/>
    <rect id="Rectangle_1921" data-name="Rectangle 1921" width="57.948" height="28.528" transform="translate(1433.038 702.137)" fill="#ebf4fc"/>
    <rect id="Rectangle_1922" data-name="Rectangle 1922" width="22.288" height="25.854" transform="translate(1023.144 588.953)" fill="#ebf4fc"/>
    <rect id="Rectangle_1923" data-name="Rectangle 1923" width="22.288" height="25.854" transform="translate(1072.994 588.953)" fill="#ebf4fc"/>
    <rect id="Rectangle_1926" data-name="Rectangle 1926" width="22.288" height="25.854" transform="translate(1023.144 645.1)" fill="#ebf4fc"/>
    <rect id="Rectangle_1927" data-name="Rectangle 1927" width="22.288" height="25.854" transform="translate(1072.994 645.1)" fill="#ebf4fc"/>
    <rect id="Rectangle_1928" data-name="Rectangle 1928" width="22.288" height="25.854" transform="translate(1023.144 700.355)" fill="#ebf4fc"/>
    <rect id="Rectangle_1929" data-name="Rectangle 1929" width="22.288" height="25.854" transform="translate(1072.994 700.355)" fill="#ebf4fc"/>
    <path id="Path_8498" data-name="Path 8498" d="M971.669,295H912v89.5h59.669Z" transform="translate(710.864 121.052)" fill="#ebf4fc"/>
    <path id="Path_8499" data-name="Path 8499" d="M940.1,302.723h-22.95v34.424H940.1Z" transform="translate(710.314 120.218)" fill="#ebf4fc"/>
    <path id="Path_8500" data-name="Path 8500" d="M970.989,302.723H948.04v34.424h22.949Z" transform="translate(706.953 120.218)" fill="#ebf4fc"/>
    <path id="Path_8501" data-name="Path 8501" d="M970.989,349.059H948.04v34.425h22.949Z" transform="translate(706.953 115.177)" fill="#ebf4fc"/>
    <path id="Path_8502" data-name="Path 8502" d="M940.1,349.059h-22.95v34.425H940.1Z" transform="translate(710.314 115.177)" fill="#ebf4fc"/>
    <path id="Path_8503" data-name="Path 8503" d="M971.669,295H912v89.5h59.669Z" transform="translate(710.864 121.052)" fill="#ebf4fc"/>
    <path id="Path_8504" data-name="Path 8504" d="M940.1,302.723h-22.95v34.424H940.1Z" transform="translate(710.314 120.218)" fill="#ebf4fc"/>
    <path id="Path_8505" data-name="Path 8505" d="M970.989,302.723H948.04v34.424h22.949Z" transform="translate(706.953 120.218)" fill="#ebf4fc"/>
    <path id="Path_8506" data-name="Path 8506" d="M970.989,302.723l-11.475,17.212L948.04,337.147V302.723Z" transform="translate(706.953 120.218)" fill="#ebf4fc"/>
    <path id="Path_8507" data-name="Path 8507" d="M970.989,349.059H948.04v34.425h22.949Z" transform="translate(706.953 115.177)" fill="#ebf4fc"/>
    <path id="Path_8508" data-name="Path 8508" d="M970.989,349.059H948.04v34.425h22.949Z" transform="translate(706.953 115.177)" fill="#ebf4fc"/>
    <path id="Path_8509" data-name="Path 8509" d="M940.1,349.059h-22.95v34.425H940.1Z" transform="translate(710.314 115.177)" fill="#ebf4fc"/>
    <path id="Path_8510" data-name="Path 8510" d="M917.147,383.484V349.059H940.1l-10.328,16.065Z" transform="translate(710.314 115.177)" fill="#ebf4fc"/>
    <path id="Path_8511" data-name="Path 8511" d="M1055.669,429H996v89.5h59.669Z" transform="translate(701.726 106.47)" fill="#ebf4fc"/>
    <path id="Path_8512" data-name="Path 8512" d="M1024.1,436.723H1001.15v34.424H1024.1Z" transform="translate(701.176 105.64)" fill="#ebf4fc"/>
    <path id="Path_8513" data-name="Path 8513" d="M1054.987,436.723H1032.04v34.424h22.947Z" transform="translate(697.76 105.64)" fill="#ebf4fc"/>
    <path id="Path_8514" data-name="Path 8514" d="M1054.987,483.059H1032.04v34.425h22.947Z" transform="translate(697.76 100.599)" fill="#ebf4fc"/>
    <path id="Path_8515" data-name="Path 8515" d="M1024.1,483.059H1001.15v34.425H1024.1Z" transform="translate(701.176 100.599)" fill="#ebf4fc"/>
    <path id="Path_8516" data-name="Path 8516" d="M1055.669,429H996v89.5h59.669Z" transform="translate(701.726 106.47)" fill="#ebf4fc"/>
    <path id="Path_8517" data-name="Path 8517" d="M1024.1,436.723H1001.15v34.424H1024.1Z" transform="translate(701.176 105.64)" fill="#ebf4fc"/>
    <path id="Path_8518" data-name="Path 8518" d="M1054.987,436.723H1032.04v34.424h22.947Z" transform="translate(697.76 105.64)" fill="#ebf4fc"/>
    <path id="Path_8519" data-name="Path 8519" d="M1054.987,436.723l-11.474,17.212-11.474,17.212V436.723Z" transform="translate(697.76 105.64)" fill="#ebf4fc"/>
    <path id="Path_8520" data-name="Path 8520" d="M1054.987,483.059H1032.04v34.425h22.947Z" transform="translate(697.76 100.599)" fill="#ebf4fc"/>
    <path id="Path_8521" data-name="Path 8521" d="M1054.987,483.059H1032.04v34.425h22.947Z" transform="translate(697.76 100.599)" fill="#ebf4fc"/>
    <path id="Path_8522" data-name="Path 8522" d="M1024.1,483.059H1001.15v34.425H1024.1Z" transform="translate(701.176 100.599)" fill="#ebf4fc"/>
    <path id="Path_8523" data-name="Path 8523" d="M1001.15,517.484V483.059H1024.1l-10.324,16.065Z" transform="translate(701.176 100.599)" fill="#ebf4fc"/>
    <path id="Path_8524" data-name="Path 8524" d="M976.669,564H917v89.5h59.669Z" transform="translate(710.32 91.779)" fill="#ebf4fc"/>
    <path id="Path_8525" data-name="Path 8525" d="M945.1,571.723h-22.95v34.424H945.1Z" transform="translate(709.77 90.952)" fill="#ebf4fc"/>
    <path id="Path_8526" data-name="Path 8526" d="M975.989,571.723H953.04v34.424h22.949Z" transform="translate(706.409 90.952)" fill="#ebf4fc"/>
    <path id="Path_8527" data-name="Path 8527" d="M975.989,618.059H953.04v34.425h22.949Z" transform="translate(706.409 85.911)" fill="#ebf4fc"/>
    <path id="Path_8528" data-name="Path 8528" d="M945.1,618.059h-22.95v34.425H945.1Z" transform="translate(709.77 85.911)" fill="#ebf4fc"/>
    <path id="Path_8529" data-name="Path 8529" d="M976.669,564H917v89.5h59.669Z" transform="translate(710.32 91.779)" fill="#ebf4fc"/>
    <path id="Path_8530" data-name="Path 8530" d="M945.1,571.723h-22.95v34.424H945.1Z" transform="translate(709.77 90.952)" fill="#ebf4fc"/>
    <path id="Path_8531" data-name="Path 8531" d="M975.989,571.723H953.04v34.424h22.949Z" transform="translate(706.409 90.952)" fill="#ebf4fc"/>
    <path id="Path_8532" data-name="Path 8532" d="M975.989,571.723l-11.475,17.211L953.04,606.147V571.723Z" transform="translate(706.409 90.952)" fill="#ebf4fc"/>
    <path id="Path_8533" data-name="Path 8533" d="M975.989,618.059H953.04v34.425h22.949Z" transform="translate(706.409 85.911)" fill="#ebf4fc"/>
    <path id="Path_8534" data-name="Path 8534" d="M975.989,618.059H953.04v34.425h22.949Z" transform="translate(706.409 85.911)" fill="#ebf4fc"/>
    <path id="Path_8535" data-name="Path 8535" d="M945.1,618.059h-22.95v34.425H945.1Z" transform="translate(709.77 85.911)" fill="#ebf4fc"/>
    <path id="Path_8536" data-name="Path 8536" d="M922.147,652.484V618.059H945.1l-10.328,16.065Z" transform="translate(709.77 85.911)" fill="#ebf4fc"/>
    <rect id="Rectangle_1932" data-name="Rectangle 1932" width="114.113" height="28.528" transform="translate(1188.842 491.974)" fill="#fff" opacity="0.5"/>
    <rect id="Rectangle_1933" data-name="Rectangle 1933" width="114.113" height="28.528" transform="translate(1188.842 536.534)" fill="#fff" opacity="0.5"/>
    <rect id="Rectangle_1934" data-name="Rectangle 1934" width="114.113" height="28.528" transform="translate(1188.842 580.204)" fill="#fff" opacity="0.5"/>
    <rect id="Rectangle_1935" data-name="Rectangle 1935" width="114.113" height="28.528" transform="translate(1188.842 623.873)" fill="#fff" opacity="0.5"/>
    <rect id="Rectangle_1936" data-name="Rectangle 1936" width="114.113" height="28.528" transform="translate(1188.842 667.542)" fill="#fff" opacity="0.5"/>
    <rect id="Rectangle_1937" data-name="Rectangle 1937" width="114.113" height="28.528" transform="translate(1188.842 712.103)" fill="#fff" opacity="0.5"/>
    <rect id="Rectangle_1938" data-name="Rectangle 1938" width="82.911" height="28.528" transform="translate(1828.722 416.221)" fill="#fff" opacity="0.5"/>
    <rect id="Rectangle_1939" data-name="Rectangle 1939" width="82.911" height="28.528" transform="translate(1828.722 475.933)" fill="#fff" opacity="0.5"/>
    <rect id="Rectangle_1940" data-name="Rectangle 1940" width="82.911" height="28.528" transform="translate(1828.722 536.534)" fill="#fff" opacity="0.5"/>
    <rect id="Rectangle_1941" data-name="Rectangle 1941" width="82.911" height="28.528" transform="translate(1828.722 596.246)" fill="#fff" opacity="0.5"/>
    <rect id="Rectangle_1942" data-name="Rectangle 1942" width="82.911" height="28.528" transform="translate(1828.722 656.848)" fill="#fff" opacity="0.5"/>
    <rect id="Rectangle_1943" data-name="Rectangle 1943" width="82.911" height="28.528" transform="translate(1828.722 716.559)" fill="#fff" opacity="0.5"/>
    <rect id="Rectangle_1944" data-name="Rectangle 1944" width="57.948" height="28.528" transform="translate(1364.416 293.275)" fill="#ebf4fc"/>
    <rect id="Rectangle_1945" data-name="Rectangle 1945" width="57.948" height="28.528" transform="translate(1433.038 293.275)" fill="#ebf4fc"/>
    <rect id="Rectangle_1946" data-name="Rectangle 1946" width="57.948" height="28.528" transform="translate(1364.416 352.054)" fill="#ebf4fc"/>
    <rect id="Rectangle_1947" data-name="Rectangle 1947" width="57.948" height="28.528" transform="translate(1433.038 352.054)" fill="#ebf4fc"/>
    <rect id="Rectangle_1948" data-name="Rectangle 1948" width="57.948" height="28.528" transform="translate(1364.416 410.874)" fill="#ebf4fc"/>
    <rect id="Rectangle_1949" data-name="Rectangle 1949" width="57.948" height="28.528" transform="translate(1433.038 410.874)" fill="#ebf4fc"/>
    <rect id="Rectangle_1950" data-name="Rectangle 1950" width="57.948" height="28.528" transform="translate(1501.661 410.874)" fill="#ebf4fc"/>
    <rect id="Rectangle_1951" data-name="Rectangle 1951" width="57.948" height="28.528" transform="translate(1501.661 469.693)" fill="#ebf4fc"/>
    <rect id="Rectangle_1952" data-name="Rectangle 1952" width="57.948" height="28.528" transform="translate(1501.661 527.622)" fill="#ebf4fc"/>
    <rect id="Rectangle_1953" data-name="Rectangle 1953" width="57.948" height="28.528" transform="translate(1501.661 585.551)" fill="#ebf4fc"/>
    <rect id="Rectangle_1954" data-name="Rectangle 1954" width="57.948" height="28.528" transform="translate(1501.661 644.371)" fill="#ebf4fc"/>
    <rect id="Rectangle_1955" data-name="Rectangle 1955" width="57.948" height="28.528" transform="translate(1501.661 702.3)" fill="#ebf4fc"/>
    <rect id="Rectangle_1956" data-name="Rectangle 1956" width="57.948" height="28.528" transform="translate(1364.416 469.693)" fill="#ebf4fc"/>
    <rect id="Rectangle_1957" data-name="Rectangle 1957" width="57.948" height="28.528" transform="translate(1433.038 469.693)" fill="#ebf4fc"/>
    <rect id="Rectangle_1958" data-name="Rectangle 1958" width="57.948" height="28.528" transform="translate(1364.416 528.514)" fill="#ebf4fc"/>
    <rect id="Rectangle_1959" data-name="Rectangle 1959" width="57.948" height="28.528" transform="translate(1433.038 528.514)" fill="#ebf4fc"/>
    <rect id="Rectangle_1960" data-name="Rectangle 1960" width="57.948" height="28.528" transform="translate(1364.416 586.442)" fill="#ebf4fc"/>
    <rect id="Rectangle_1961" data-name="Rectangle 1961" width="57.948" height="28.528" transform="translate(1433.038 586.442)" fill="#ebf4fc"/>
    <rect id="Rectangle_1962" data-name="Rectangle 1962" width="57.948" height="28.528" transform="translate(1364.416 644.371)" fill="#ebf4fc"/>
    <rect id="Rectangle_1963" data-name="Rectangle 1963" width="57.948" height="28.528" transform="translate(1433.038 644.371)" fill="#ebf4fc"/>
    <rect id="Rectangle_1964" data-name="Rectangle 1964" width="57.948" height="28.528" transform="translate(1364.416 702.3)" fill="#ebf4fc"/>
    <rect id="Rectangle_1965" data-name="Rectangle 1965" width="57.948" height="28.528" transform="translate(1433.038 702.3)" fill="#ebf4fc"/>
    <rect id="Rectangle_1966" data-name="Rectangle 1966" width="22.288" height="25.854" transform="translate(1023.144 589.116)" fill="#ebf4fc"/>
    <rect id="Rectangle_1967" data-name="Rectangle 1967" width="22.288" height="25.854" transform="translate(1072.994 589.116)" fill="#ebf4fc"/>
    <rect id="Rectangle_1970" data-name="Rectangle 1970" width="22.288" height="25.854" transform="translate(1023.144 645.263)" fill="#ebf4fc"/>
    <rect id="Rectangle_1971" data-name="Rectangle 1971" width="22.288" height="25.854" transform="translate(1072.994 645.263)" fill="#ebf4fc"/>
    <rect id="Rectangle_1972" data-name="Rectangle 1972" width="22.288" height="25.854" transform="translate(1023.144 700.518)" fill="#ebf4fc"/>
    <rect id="Rectangle_1973" data-name="Rectangle 1973" width="22.288" height="25.854" transform="translate(1072.994 700.518)" fill="#ebf4fc"/>
    <path id="Path_8610" data-name="Path 8610" d="M971.669,295.182H912v89.5h59.669Z" transform="translate(710.864 121.031)" fill="#ebf4fc"/>
    <path id="Path_8611" data-name="Path 8611" d="M940.1,302.9h-22.95V337.33H940.1Z" transform="translate(710.314 120.198)" fill="#ebf4fc"/>
    <path id="Path_8612" data-name="Path 8612" d="M970.989,302.9H948.04V337.33h22.949Z" transform="translate(706.953 120.198)" fill="#ebf4fc"/>
    <path id="Path_8613" data-name="Path 8613" d="M970.989,349.241H948.04v34.425h22.949Z" transform="translate(706.953 115.157)" fill="#ebf4fc"/>
    <path id="Path_8614" data-name="Path 8614" d="M940.1,349.241h-22.95v34.425H940.1Z" transform="translate(710.314 115.157)" fill="#ebf4fc"/>
    <path id="Path_8615" data-name="Path 8615" d="M971.669,295.182H912v89.5h59.669Z" transform="translate(710.864 121.031)" fill="#ebf4fc"/>
    <path id="Path_8616" data-name="Path 8616" d="M940.1,302.9h-22.95V337.33H940.1Z" transform="translate(710.314 120.198)" fill="#ebf4fc"/>
    <path id="Path_8617" data-name="Path 8617" d="M970.989,302.9H948.04V337.33h22.949Z" transform="translate(706.953 120.198)" fill="#ebf4fc"/>
    <path id="Path_8618" data-name="Path 8618" d="M970.989,302.9l-11.475,17.212L948.04,337.33V302.9Z" transform="translate(706.953 120.198)" fill="#ebf4fc"/>
    <path id="Path_8619" data-name="Path 8619" d="M970.989,349.241H948.04v34.425h22.949Z" transform="translate(706.953 115.157)" fill="#ebf4fc"/>
    <path id="Path_8620" data-name="Path 8620" d="M970.989,349.241H948.04v34.425h22.949Z" transform="translate(706.953 115.157)" fill="#ebf4fc"/>
    <path id="Path_8621" data-name="Path 8621" d="M940.1,349.241h-22.95v34.425H940.1Z" transform="translate(710.314 115.157)" fill="#ebf4fc"/>
    <path id="Path_8622" data-name="Path 8622" d="M917.147,383.666V349.241H940.1l-10.328,16.065Z" transform="translate(710.314 115.157)" fill="#ebf4fc"/>
    <path id="Path_8623" data-name="Path 8623" d="M1055.669,429.182H996v89.5h59.669Z" transform="translate(701.726 106.45)" fill="#ebf4fc"/>
    <path id="Path_8624" data-name="Path 8624" d="M1024.1,436.9H1001.15V471.33H1024.1Z" transform="translate(701.176 105.619)" fill="#ebf4fc"/>
    <path id="Path_8625" data-name="Path 8625" d="M1054.987,436.9H1032.04V471.33h22.947Z" transform="translate(697.76 105.619)" fill="#ebf4fc"/>
    <path id="Path_8626" data-name="Path 8626" d="M1054.987,483.241H1032.04v34.425h22.947Z" transform="translate(697.76 100.579)" fill="#ebf4fc"/>
    <path id="Path_8627" data-name="Path 8627" d="M1024.1,483.241H1001.15v34.425H1024.1Z" transform="translate(701.176 100.579)" fill="#ebf4fc"/>
    <path id="Path_8628" data-name="Path 8628" d="M1055.669,429.182H996v89.5h59.669Z" transform="translate(701.726 106.45)" fill="#ebf4fc"/>
    <path id="Path_8629" data-name="Path 8629" d="M1024.1,436.9H1001.15V471.33H1024.1Z" transform="translate(701.176 105.619)" fill="#ebf4fc"/>
    <path id="Path_8630" data-name="Path 8630" d="M1054.987,436.9H1032.04V471.33h22.947Z" transform="translate(697.76 105.619)" fill="#ebf4fc"/>
    <path id="Path_8631" data-name="Path 8631" d="M1054.987,436.9l-11.474,17.212L1032.04,471.33V436.9Z" transform="translate(697.76 105.619)" fill="#ebf4fc"/>
    <path id="Path_8632" data-name="Path 8632" d="M1054.987,483.241H1032.04v34.425h22.947Z" transform="translate(697.76 100.579)" fill="#ebf4fc"/>
    <path id="Path_8633" data-name="Path 8633" d="M1054.987,483.241H1032.04v34.425h22.947Z" transform="translate(697.76 100.579)" fill="#ebf4fc"/>
    <path id="Path_8634" data-name="Path 8634" d="M1024.1,483.241H1001.15v34.425H1024.1Z" transform="translate(701.176 100.579)" fill="#ebf4fc"/>
    <path id="Path_8635" data-name="Path 8635" d="M1001.15,517.666V483.241H1024.1l-10.324,16.065Z" transform="translate(701.176 100.579)" fill="#ebf4fc"/>
    <path id="Path_8636" data-name="Path 8636" d="M976.669,564.182H917v89.5h59.669Z" transform="translate(710.32 91.76)" fill="#ebf4fc"/>
    <path id="Path_8637" data-name="Path 8637" d="M945.1,571.905h-22.95V606.33H945.1Z" transform="translate(709.77 90.933)" fill="#ebf4fc"/>
    <path id="Path_8638" data-name="Path 8638" d="M975.989,571.905H953.04V606.33h22.949Z" transform="translate(706.409 90.933)" fill="#ebf4fc"/>
    <path id="Path_8639" data-name="Path 8639" d="M975.989,618.241H953.04v34.425h22.949Z" transform="translate(706.409 85.892)" fill="#ebf4fc"/>
    <path id="Path_8640" data-name="Path 8640" d="M945.1,618.241h-22.95v34.425H945.1Z" transform="translate(709.77 85.892)" fill="#ebf4fc"/>
    <path id="Path_8641" data-name="Path 8641" d="M976.669,564.182H917v89.5h59.669Z" transform="translate(710.32 91.76)" fill="#ebf4fc"/>
    <path id="Path_8642" data-name="Path 8642" d="M945.1,571.905h-22.95V606.33H945.1Z" transform="translate(709.77 90.933)" fill="#ebf4fc"/>
    <path id="Path_8643" data-name="Path 8643" d="M975.989,571.905H953.04V606.33h22.949Z" transform="translate(706.409 90.933)" fill="#ebf4fc"/>
    <path id="Path_8644" data-name="Path 8644" d="M975.989,571.905l-11.475,17.212L953.04,606.33V571.905Z" transform="translate(706.409 90.933)" fill="#ebf4fc"/>
    <path id="Path_8645" data-name="Path 8645" d="M975.989,618.241H953.04v34.425h22.949Z" transform="translate(706.409 85.892)" fill="#ebf4fc"/>
    <path id="Path_8646" data-name="Path 8646" d="M975.989,618.241H953.04v34.425h22.949Z" transform="translate(706.409 85.892)" fill="#ebf4fc"/>
    <path id="Path_8647" data-name="Path 8647" d="M945.1,618.241h-22.95v34.425H945.1Z" transform="translate(709.77 85.892)" fill="#ebf4fc"/>
    <path id="Path_8648" data-name="Path 8648" d="M922.147,652.666V618.241H945.1l-10.328,16.065Z" transform="translate(709.77 85.892)" fill="#ebf4fc"/>
    <path id="Path_9946" data-name="Path 9946" d="M277.195,911.979C107.878,862.874,60.635,888.1,9.213,925.3l1119.714.349V899.235c-160.713-46.583-382.357-27.22-443.116,12.745C533.636,845.145,414.32,866.381,277.195,911.979Z" transform="translate(791.557 39.557)" fill="#d6e9f8"/>
    <path id="Intersection_3" data-name="Intersection 3" d="M-3541.062-6592.915q11.609-33.042,25.089-63H-2451v63Z" transform="translate(4371 7455.914)" fill="#d5e3ff"/>
    <path id="Intersection_5" data-name="Intersection 5" d="M-3572.054-7257q1.769-4.53,3.577-9H-2492v9Z" transform="translate(4412 8093)" fill="#ebf4fc" opacity="0.54"/>
    <g id="Group_24125" data-name="Group 24125" transform="translate(-4784 -7269)">
      <rect id="Rectangle_2368" data-name="Rectangle 2368" width="3.16" height="37.682" transform="translate(6581.543 8196.527)" fill="#5fdde3"/>
      <path id="Path_9835" data-name="Path 9835" d="M1165.6,887.655c-15.366,24.083-1.271,29.013,6.237,30.6a3.907,3.907,0,0,0,1.425.035c15.792-2.54,15.323-13.68,12.832-22.04,0-26.581-9.692-29.938-13.131-31.82a1.728,1.728,0,0,0-.922-.231C1162.865,864.726,1160.4,879.861,1165.6,887.655Z" transform="translate(5411.887 7279.587)" fill="#1d9ca2"/>
      <path id="Path_9836" data-name="Path 9836" d="M1171.64,918.067c1.433-9.085,4.1-29.656-1.689-33.607-2.4-3.275-5.554-10.336-2.995-16.687a8.159,8.159,0,0,1,6.151-3.457,1.727,1.727,0,0,1,.922.231c.2.11.427.225.665.351,3.874,2,12.465,6.445,12.465,31.459,2.491,8.357,2.96,19.494-12.832,22.033a3.925,3.925,0,0,1-1.425-.035C1172.5,918.27,1172.075,918.174,1171.64,918.067Z" transform="translate(5410.816 7279.569)" fill="#3db9bf" fill-rule="evenodd"/>
      <rect id="Rectangle_2369" data-name="Rectangle 2369" width="3.16" height="37.682" transform="translate(5653.271 8196.527)" fill="#5fdde3"/>
      <path id="Path_9837" data-name="Path 9837" d="M77.6,887.655c-15.367,24.083-1.269,29.013,6.237,30.6a3.908,3.908,0,0,0,1.425.035c15.788-2.54,15.323-13.68,12.828-22.04,0-26.581-9.69-29.938-13.127-31.82a1.727,1.727,0,0,0-.919-.231C74.863,864.726,72.4,879.861,77.6,887.655Z" transform="translate(5571.619 7279.587)" fill="#1d9ca2"/>
      <path id="Path_9838" data-name="Path 9838" d="M83.641,918.067c1.436-9.085,4.1-29.656-1.693-33.607-2.39-3.275-5.549-10.336-2.992-16.687a8.159,8.159,0,0,1,6.155-3.457,1.725,1.725,0,0,1,.919.231c.2.11.425.225.666.351,3.874,2,12.461,6.445,12.461,31.459,2.5,8.357,2.96,19.494-12.828,22.033a3.923,3.923,0,0,1-1.425-.035C84.5,918.27,84.077,918.174,83.641,918.067Z" transform="translate(5570.548 7279.569)" fill="#3db9bf" fill-rule="evenodd"/>
      <path id="Path_9949" data-name="Path 9949" d="M109.677,967.039c0-1.916-.179-3.926.485-5.762a8.359,8.359,0,0,1,2.258-3.226,8.581,8.581,0,0,1,5.46-2.2" transform="translate(5565.901 7266.13)" fill="none" stroke="#1d9ca2" stroke-linecap="round" stroke-linejoin="round" stroke-width="1"/>
      <path id="Path_9950" data-name="Path 9950" d="M109.594,968a16.726,16.726,0,0,1,1.474-2.519c.225-.4.405-.817.646-1.209a9.711,9.711,0,0,1,3.418-3.007,4.968,4.968,0,0,1,2.551-.87,4.876,4.876,0,0,1,2.275.821" transform="translate(5565.91 7265.463)" fill="none" stroke="#1d9ca2" stroke-linecap="round" stroke-linejoin="round" stroke-width="1"/>
      <path id="Path_9951" data-name="Path 9951" d="M109.332,969.113c.351-.546.779-1.025,1.135-1.566a2.582,2.582,0,0,1,1-.911,15.425,15.425,0,0,1,1.69-.8,20.029,20.029,0,0,1,2.908-.766,6.434,6.434,0,0,1,2.556-.055c.528.13,1.188.175,1.52.671" transform="translate(5565.949 7264.802)" fill="none" stroke="#1d9ca2" stroke-linecap="round" stroke-linejoin="round" stroke-width="1"/>
      <path id="Path_9952" data-name="Path 9952" d="M107.376,968.508c-1.124-1.589-1.881-3.38-3.256-4.788a4.52,4.52,0,0,0-1.595-1.293,11.066,11.066,0,0,0-3.181-.588c-1.058-.061-2.118-.042-3.177-.042a2.381,2.381,0,0,0-1.168.224" transform="translate(5568.053 7265.258)" fill="none" stroke="#1d9ca2" stroke-linecap="round" stroke-linejoin="round" stroke-width="1"/>
      <path id="Path_9953" data-name="Path 9953" d="M107.536,967.405a41.061,41.061,0,0,0-1.181-5.177c-.328-1.111-.741-2.194-1.056-3.305a1.563,1.563,0,0,0-.195-.593c-.331-.433-.72-.846-1.023-1.3-.753-1.121-2.15-1.552-3.355-1.989a18.039,18.039,0,0,0-3.629-.762" transform="translate(5567.745 7266.361)" fill="none" stroke="#1d9ca2" stroke-linecap="round" stroke-linejoin="round" stroke-width="1"/>
      <path id="Path_9954" data-name="Path 9954" d="M108.972,966.211a50.931,50.931,0,0,1-.654-8.163,9.633,9.633,0,0,0-.537-4.4,7.261,7.261,0,0,0-2.454-2.441A6.868,6.868,0,0,0,103,950" transform="translate(5566.878 7266.99)" fill="none" stroke="#1d9ca2" stroke-linecap="round" stroke-linejoin="round" stroke-width="1"/>
      <path id="Path_9955" data-name="Path 9955" d="M109.068,964.248c0-1.48-.019-2.961,0-4.441.026-1.654.227-3.3.294-4.949a11.6,11.6,0,0,1,2.444-6.64c.268-.337.73-1.04,1.193-1.147a5.6,5.6,0,0,1,1.243-.046,3.519,3.519,0,0,1,1.148.046,5.053,5.053,0,0,1,1.255,1.064,8.371,8.371,0,0,1,2.037,2.022" transform="translate(5565.989 7267.43)" fill="none" stroke="#1d9ca2" stroke-linecap="round" stroke-linejoin="round" stroke-width="1"/>
      <path id="Path_9956" data-name="Path 9956" d="M1199.676,967.039c0-1.916-.179-3.926.486-5.762a8.3,8.3,0,0,1,2.261-3.226,8.557,8.557,0,0,1,5.452-2.2" transform="translate(5405.876 7266.13)" fill="none" stroke="#1d9ca2" stroke-linecap="round" stroke-linejoin="round" stroke-width="1"/>
      <path id="Path_9957" data-name="Path 9957" d="M1199.59,968a16.958,16.958,0,0,1,1.476-2.519c.23-.4.41-.817.648-1.209a9.732,9.732,0,0,1,3.413-3.007,4.989,4.989,0,0,1,2.56-.87,4.847,4.847,0,0,1,2.27.821" transform="translate(5405.886 7265.463)" fill="none" stroke="#1d9ca2" stroke-linecap="round" stroke-linejoin="round" stroke-width="1"/>
      <path id="Path_9958" data-name="Path 9958" d="M1199.33,969.113c.35-.546.785-1.025,1.135-1.566a2.582,2.582,0,0,1,1.007-.911,15.208,15.208,0,0,1,1.689-.8,19.882,19.882,0,0,1,2.909-.766,6.407,6.407,0,0,1,2.551-.055c.529.13,1.194.175,1.519.671" transform="translate(5405.924 7264.802)" fill="none" stroke="#1d9ca2" stroke-linecap="round" stroke-linejoin="round" stroke-width="1"/>
      <path id="Path_9959" data-name="Path 9959" d="M1197.38,968.508c-1.126-1.589-1.885-3.38-3.259-4.788a4.5,4.5,0,0,0-1.6-1.293,11.045,11.045,0,0,0-3.182-.588c-1.058-.061-2.116-.042-3.174-.042a2.389,2.389,0,0,0-1.169.224" transform="translate(5408.027 7265.258)" fill="none" stroke="#1d9ca2" stroke-linecap="round" stroke-linejoin="round" stroke-width="1"/>
      <path id="Path_9960" data-name="Path 9960" d="M1197.534,967.405a41.332,41.332,0,0,0-1.177-5.177c-.333-1.111-.742-2.194-1.058-3.305a1.546,1.546,0,0,0-.2-.593c-.333-.433-.717-.846-1.024-1.3-.751-1.121-2.15-1.552-3.353-1.989a18.041,18.041,0,0,0-3.626-.762" transform="translate(5407.719 7266.361)" fill="none" stroke="#1d9ca2" stroke-linecap="round" stroke-linejoin="round" stroke-width="1"/>
      <path id="Path_9961" data-name="Path 9961" d="M1198.972,966.211a51.323,51.323,0,0,1-.657-8.163,9.632,9.632,0,0,0-.537-4.4,7.268,7.268,0,0,0-2.449-2.441A6.908,6.908,0,0,0,1193,950" transform="translate(5406.853 7266.99)" fill="none" stroke="#1d9ca2" stroke-linecap="round" stroke-linejoin="round" stroke-width="1"/>
      <path id="Path_9962" data-name="Path 9962" d="M1199.069,964.248c0-1.48-.017-2.961,0-4.441.026-1.654.23-3.3.3-4.949a11.568,11.568,0,0,1,2.44-6.64c.273-.337.734-1.04,1.194-1.147a5.641,5.641,0,0,1,1.246-.046,3.5,3.5,0,0,1,1.143.046,4.941,4.941,0,0,1,1.254,1.064,8.333,8.333,0,0,1,2.039,2.022" transform="translate(5405.963 7267.43)" fill="none" stroke="#1d9ca2" stroke-linecap="round" stroke-linejoin="round" stroke-width="1"/>
      <path id="Path_9963" data-name="Path 9963" d="M432.677,950.039c0-1.916-.179-3.926.485-5.762a8.36,8.36,0,0,1,2.258-3.226,8.581,8.581,0,0,1,5.46-2.2" transform="translate(5518.481 7268.626)" fill="none" stroke="#1d9ca2" stroke-linecap="round" stroke-linejoin="round" stroke-width="1"/>
      <path id="Path_9964" data-name="Path 9964" d="M432.594,951a16.725,16.725,0,0,1,1.474-2.519c.225-.4.405-.817.646-1.209a9.711,9.711,0,0,1,3.418-3.007,4.968,4.968,0,0,1,2.551-.87,4.876,4.876,0,0,1,2.275.821" transform="translate(5518.49 7267.959)" fill="none" stroke="#1d9ca2" stroke-linecap="round" stroke-linejoin="round" stroke-width="1"/>
      <path id="Path_9965" data-name="Path 9965" d="M432.332,952.113c.351-.546.779-1.025,1.135-1.566a2.583,2.583,0,0,1,1-.911,15.425,15.425,0,0,1,1.69-.8,20.038,20.038,0,0,1,2.908-.766,6.435,6.435,0,0,1,2.556-.055c.528.13,1.189.175,1.52.671" transform="translate(5518.528 7267.297)" fill="none" stroke="#1d9ca2" stroke-linecap="round" stroke-linejoin="round" stroke-width="1"/>
      <path id="Path_9966" data-name="Path 9966" d="M430.376,951.508c-1.125-1.589-1.881-3.379-3.256-4.788a4.521,4.521,0,0,0-1.595-1.293,11.066,11.066,0,0,0-3.181-.588c-1.058-.061-2.118-.042-3.177-.042a2.382,2.382,0,0,0-1.168.224" transform="translate(5520.632 7267.754)" fill="none" stroke="#1d9ca2" stroke-linecap="round" stroke-linejoin="round" stroke-width="1"/>
      <path id="Path_9967" data-name="Path 9967" d="M430.536,950.405a41.053,41.053,0,0,0-1.181-5.177c-.328-1.111-.741-2.194-1.056-3.305a1.562,1.562,0,0,0-.195-.593c-.331-.433-.72-.846-1.023-1.3-.753-1.121-2.15-1.552-3.355-1.989a18.031,18.031,0,0,0-3.629-.762" transform="translate(5520.325 7268.857)" fill="none" stroke="#1d9ca2" stroke-linecap="round" stroke-linejoin="round" stroke-width="1"/>
      <path id="Path_9968" data-name="Path 9968" d="M431.972,949.211a50.928,50.928,0,0,1-.654-8.163,9.633,9.633,0,0,0-.537-4.4,7.26,7.26,0,0,0-2.454-2.441A6.866,6.866,0,0,0,426,933" transform="translate(5519.458 7269.486)" fill="none" stroke="#1d9ca2" stroke-linecap="round" stroke-linejoin="round" stroke-width="1"/>
      <path id="Path_9969" data-name="Path 9969" d="M432.068,947.248c0-1.48-.019-2.961,0-4.441.026-1.654.227-3.3.294-4.949a11.6,11.6,0,0,1,2.444-6.64c.268-.337.73-1.04,1.193-1.147a5.6,5.6,0,0,1,1.243-.046,3.517,3.517,0,0,1,1.148.046,5.053,5.053,0,0,1,1.255,1.064,8.371,8.371,0,0,1,2.037,2.022" transform="translate(5518.568 7269.926)" fill="none" stroke="#1d9ca2" stroke-linecap="round" stroke-linejoin="round" stroke-width="1"/>
      <path id="Path_10009" data-name="Path 10009" d="M628.012,943.433,622,959.18h97.919l-8.876-15.747Z" transform="translate(5490.683 7267.954)" fill="#9fcff3" opacity="0.4"/>
      <path id="Path_10010" data-name="Path 10010" d="M637.688,922.846l-6.079,3.118h80.274l-5.929-3.118Z" transform="translate(5489.272 7270.977)" fill="#ffdada"/>
      <path id="Path_10011" data-name="Path 10011" d="M632.341,955.319l6.858-4.52" transform="translate(5489.165 7266.873)" fill="none" stroke="#ffdada" stroke-width="2"/>
      <rect id="Rectangle_2454" data-name="Rectangle 2454" width="2.494" height="24.628" transform="translate(6120.415 8200.992)" fill="#ffdada"/>
      <rect id="Rectangle_2455" data-name="Rectangle 2455" width="2.494" height="24.628" transform="translate(6126.96 8199.122)" fill="#ffdada"/>
      <path id="Path_10012" data-name="Path 10012" d="M723.236,955.321l-6.858-4.52" transform="translate(5476.827 7266.872)" fill="none" stroke="#fadbde" stroke-width="2"/>
      <rect id="Rectangle_2456" data-name="Rectangle 2456" width="2.494" height="24.628" transform="translate(6201.154 8225.622) rotate(180)" fill="#fadbde"/>
      <rect id="Rectangle_2457" data-name="Rectangle 2457" width="2.494" height="24.628" transform="translate(6194.607 8223.752) rotate(180)" fill="#fadbde"/>
      <rect id="Rectangle_2458" data-name="Rectangle 2458" width="3.117" height="37.097" transform="translate(6126.959 8156.725)" fill="#ffadad"/>
      <rect id="Rectangle_2459" data-name="Rectangle 2459" width="3.117" height="36.474" transform="translate(6192.113 8157.349)" fill="#ffadad"/>
      <rect id="Rectangle_2460" data-name="Rectangle 2460" width="71.389" height="4.053" rx="2.026" transform="translate(6125.09 8156.414)" fill="#fff"/>
      <rect id="Rectangle_2461" data-name="Rectangle 2461" width="71.389" height="4.053" rx="2.026" transform="translate(6125.089 8162.648)" fill="#fff"/>
      <rect id="Rectangle_2462" data-name="Rectangle 2462" width="71.389" height="4.053" rx="2.026" transform="translate(6125.089 8168.883)" fill="#fff"/>
      <rect id="Rectangle_2463" data-name="Rectangle 2463" width="71.389" height="4.053" rx="2.026" transform="translate(6125.089 8175.429)" fill="#fff"/>
      <rect id="Rectangle_2464" data-name="Rectangle 2464" width="71.389" height="4.053" rx="2.026" transform="translate(6125.089 8181.665)" fill="#fff"/>
      <rect id="Rectangle_2465" data-name="Rectangle 2465" width="71.389" height="4.053" rx="2.026" transform="translate(6125.089 8187.898)" fill="#fff"/>
      <rect id="Rectangle_2466" data-name="Rectangle 2466" width="80.741" height="3.741" transform="translate(6120.414 8197.251)" fill="#fff"/>
      <path id="Path_10017" data-name="Path 10017" d="M801.646,949.912s.264,5.546-1.321,6.514c-2.2,1.232,1.937.968,2.905.968.968-.089,2.025-7.834,2.025-7.834h-3.521Z" transform="translate(5464.596 7267.054)" fill="#3db9bf" fill-rule="evenodd"/>
      <path id="Path_10018" data-name="Path 10018" d="M773.448,940.152a.526.526,0,0,0,.352-.089l1.056-.264a3.105,3.105,0,0,0,.793-.352,2.216,2.216,0,0,0,.616-.352l-.088-.264a4.744,4.744,0,0,1-.968.44,2.8,2.8,0,0,1-.793.264,5.378,5.378,0,0,1-.616.177c-.176,0-.264.088-.44.088H773.1v.088a.086.086,0,0,0,.088.088C773.272,940.152,773.36,940.152,773.448,940.152Z" transform="translate(5468.5 7268.629)" fill="#1f2c61" fill-rule="evenodd"/>
      <path id="Path_10019" data-name="Path 10019" d="M779.321,933.145a.651.651,0,0,0-.352.792.588.588,0,0,0,.616.352c.088,0,.176,0,.176-.088a.652.652,0,0,0,.352-.793c-.088-.176-.176-.264-.352-.264A.39.39,0,0,0,779.321,933.145Z" transform="translate(5467.643 7269.474)" fill="#1f2c61" fill-rule="evenodd"/>
      <path id="Path_10020" data-name="Path 10020" d="M771.5,937.605c0-.352-.352-.528-.793-.528a.7.7,0,0,0-.7.7.943.943,0,0,0,.88.792h.088A1.019,1.019,0,0,0,771.5,937.605Z" transform="translate(5468.955 7268.887)" fill="#1f2c61" fill-rule="evenodd"/>
      <path id="Path_10021" data-name="Path 10021" d="M809.8,943.877l.793-1.584a5.855,5.855,0,0,0,.792-2.376c0-.088,0-.088-.088-.177-.264-.352-.793.177-1.144.44a23.256,23.256,0,0,1-2.289,1.849A3.342,3.342,0,0,1,809.8,943.877Z" transform="translate(5463.396 7268.513)" fill="#3db9bf" fill-rule="evenodd"/>
      <path id="Path_10022" data-name="Path 10022" d="M804.481,941.407a2.282,2.282,0,0,0-1.233-.968c-1.5-.616-3.169-.088-4.665.177a13.123,13.123,0,0,1-3.7.264c-5.281-.616-7.922.44-9.506-4.929a13.478,13.478,0,0,0-1.937-4.665,3.4,3.4,0,0,0-4.137-.968,11.837,11.837,0,0,0-3.521,2.728,6.2,6.2,0,0,1-1.672,1.409c-.88.528-1.76.792-2.641,1.32a1.924,1.924,0,0,0-.44.352c.44,0,.793.176.793.528a.848.848,0,0,1-.616.88,5.055,5.055,0,0,0,1.672,1.144h.264a.793.793,0,0,0,.44-.088,2.245,2.245,0,0,0,.616-.177l.793-.264a10.577,10.577,0,0,0,.968-.44l.088.264a3.862,3.862,0,0,0-.616.352c-.265.088-.528.264-.793.352a3.578,3.578,0,0,1-1.672.352c.264,0,.616.528.88.7a2.234,2.234,0,0,0,1.056.176c1.584,0,2.992-.7,4.489,0a10.073,10.073,0,0,1,1.321,3.521,19.144,19.144,0,0,1,.352,3.785c.176,1.937-.264,1.849-.7,3.786a9.983,9.983,0,0,1-.528,2.2c-.264.528-.88.968-.792,1.584s1.936.616,2.288.616c.44-.088,1.056-.264,1.144-.792.352-1.5,1.672-5.722,1.672-5.722s2.025,4.4.7,5.634c-.88.793,1.76.528,2.728.352s.352-4.49.265-5.986c6.25,2.113,13.643-.264,13.643-.264s1.76,3.873-.44,5.546c-1.76,1.32,2.905,1.232,3.344.7a12.906,12.906,0,0,0,.617-3.433c.176-1.76-.089-1.672-.177-3.52a25.906,25.906,0,0,1,.177-3.7A3.667,3.667,0,0,0,804.481,941.407Zm-25.791-7.658c-.088,0-.088.089-.176.089a.591.591,0,0,1-.617-.352c-.176-.264,0-.616.352-.793a.562.562,0,0,1,.528,0,1.217,1.217,0,0,1,.352.264A1.051,1.051,0,0,1,778.69,933.749Z" transform="translate(5468.803 7269.926)" fill="#fff" fill-rule="evenodd"/>
      <path id="Path_10023" data-name="Path 10023" d="M783.054,942.568a18.136,18.136,0,0,1-2.2,0c-.7,0-.528-1.672-.177-1.584.088,0,.352.44.352.44a7.3,7.3,0,0,0,6.162-2.816c.176-.352,1.056.352.792.88A6.082,6.082,0,0,1,783.054,942.568Z" transform="translate(5467.432 7268.676)" fill="#1f2c61" fill-rule="evenodd"/>
      <path id="Path_10024" data-name="Path 10024" d="M782.609,933.351c-1.32-.264.44-2.993,2.112-2.376s5.721,2.728,5.105,5.1C788.947,938.28,784.018,933.527,782.609,933.351Z" transform="translate(5467.171 7269.796)" fill="#3db9bf" fill-rule="evenodd"/>
    </g>
    <g id="Group_24126" data-name="Group 24126" transform="translate(-4810 -7222)">
      <path id="Path_10026" data-name="Path 10026" d="M369.393,648.746c-.306-3.959-.209-6.321-2.737-10.87,4.089-7.593,22.076,3.042,15.77,9.347A14.011,14.011,0,0,1,371.5,651.2,2.519,2.519,0,0,1,369.393,648.746Z" transform="translate(5528.17 7313.2)" fill="#ca4939"/>
      <path id="Path_10027" data-name="Path 10027" d="M375.991,649.251l5.428-1.1,2.924,6.064c-.925,1.441-3.682,1.028-5.469,1.3-.558.084-.9.927-1.4.648Z" transform="translate(5526.8 7311.305)" fill="#ef8f88" fill-rule="evenodd"/>
      <path id="Path_10028" data-name="Path 10028" d="M374.283,650.561a6.366,6.366,0,0,0,6.662-5.962l.427-7.2-10.7-.806a66.9,66.9,0,0,0,.156,9.531C371.365,648.944,372.637,650.446,374.283,650.561Z" transform="translate(5527.597 7313.002)" fill="#f4b5ad" fill-rule="evenodd"/>
      <path id="Path_10029" data-name="Path 10029" d="M382.2,645.571a1.673,1.673,0,0,0,1.456,2.183c.994.05,2.3-1.548,2.415-2.666.252-1.139-.8-1.581-1.781-1.533C383.28,643.407,382.433,644.335,382.2,645.571Z" transform="translate(5525.896 7311.982)" fill="#f4b5ad" fill-rule="evenodd"/>
      <path id="Path_10030" data-name="Path 10030" d="M380.633,633.19c6-1.4,3.3,8.464,0,13.579-3.807,1.565-2.7-6.933-2.659-9.956-.479,2.056-4.283,3.207-6.125,3.526l1.209-1.793c-5.148,1.172-7.387-1.037-7.863-2.287C376.514,627.611,380.2,630.61,380.633,633.19Z" transform="translate(5528.385 7313.894)" fill="#231f20"/>
      <path id="Path_10031" data-name="Path 10031" d="M411.354,710.177c-.315-.027-.636-.034-.956-.034H376.811A15.311,15.311,0,0,0,361.5,725.451l-.092,20.083H338.46c-14.764,1.379-11.229-31.191-7.244-58.957h-9.563c-13.775,24.589-12.691,69.674,4.372,69.674h99.681v-30.8A15.3,15.3,0,0,0,411.354,710.177Z" transform="translate(5536.167 7305.664)" fill="#fff"/>
      <path id="Path_10032" data-name="Path 10032" d="M311.908,676.29c-2.114.1-3.809,2.66-3.809,5.816s1.694,5.721,3.809,5.817Z" transform="translate(5536.767 7307.174)" fill="#7dcccf"/>
      <path id="Path_10033" data-name="Path 10033" d="M334.723,764.429H329.5a20.872,20.872,0,0,0-20.772-20.868,20.459,20.459,0,0,0-3.5.3,21.6,21.6,0,0,1,7.656-1.4A21.946,21.946,0,0,1,334.723,764.429Z" transform="translate(5537.189 7297.459)" fill="#7dcccf"/>
      <path id="Path_10034" data-name="Path 10034" d="M434.787,707.6a7.852,7.852,0,0,1-7.855,7.855H377.006a7.855,7.855,0,1,1,0-15.711h49.925A7.856,7.856,0,0,1,434.787,707.6Z" transform="translate(5527.804 7303.73)" fill="#7dcccf"/>
      <path id="Path_10035" data-name="Path 10035" d="M431.419,764.429H426.2a20.873,20.873,0,0,0-20.773-20.868,20.459,20.459,0,0,0-3.5.3,21.6,21.6,0,0,1,7.657-1.4A21.946,21.946,0,0,1,431.419,764.429Z" transform="translate(5522.993 7297.459)" fill="#7dcccf"/>
      <path id="Path_10036" data-name="Path 10036" d="M419.111,765.525a15.793,15.793,0,1,1-15.8-15.786A15.793,15.793,0,0,1,419.111,765.525Z" transform="translate(5525.106 7296.391)" fill="#2f4859"/>
      <path id="Path_10037" data-name="Path 10037" d="M404.778,774.287a7.3,7.3,0,1,0-7.3-7.3A7.3,7.3,0,0,0,404.778,774.287Z" transform="translate(5523.645 7294.93)" fill="#ebf0f3"/>
      <path id="Path_10038" data-name="Path 10038" d="M344.1,681.451a1.878,1.878,0,0,1-1.879,1.879h-13.6v-3.757h13.6A1.878,1.878,0,0,1,344.1,681.451Z" transform="translate(5533.754 7306.692)" fill="#2f4859"/>
      <path id="Path_10039" data-name="Path 10039" d="M331.9,674.632h-13.69V689.09H331.9a2.02,2.02,0,0,0,2.02-2.02V676.653A2.02,2.02,0,0,0,331.9,674.632Z" transform="translate(5535.283 7307.417)" fill="#fff"/>
      <path id="Path_10040" data-name="Path 10040" d="M317.332,673.6V689.45a1.243,1.243,0,0,1-1.243,1.243h-2.664a1.243,1.243,0,0,1-1.237-1.243V673.6a1.237,1.237,0,0,1,1.237-1.236h2.664A1.237,1.237,0,0,1,317.332,673.6Z" transform="translate(5536.167 7307.75)" fill="#2a2b2a"/>
      <path id="Path_10041" data-name="Path 10041" d="M306.621,781.312a15.786,15.786,0,1,0-15.794-15.786A15.79,15.79,0,0,0,306.621,781.312Z" transform="translate(5539.303 7296.39)" fill="#2f4859"/>
      <path id="Path_10042" data-name="Path 10042" d="M308.084,774.287a7.3,7.3,0,1,0-7.3-7.3A7.3,7.3,0,0,0,308.084,774.287Z" transform="translate(5537.841 7294.93)" fill="#ebf0f3"/>
      <path id="Path_10043" data-name="Path 10043" d="M326.533,764.635H285a20.767,20.767,0,1,1,41.533,0Z" transform="translate(5540.159 7297.271)" fill="#7dcccf"/>
      <path id="Path_10044" data-name="Path 10044" d="M423.227,764.635H381.694a20.767,20.767,0,1,1,41.533,0Z" transform="translate(5525.962 7297.271)" fill="#7dcccf"/>
      <path id="Path_10045" data-name="Path 10045" d="M356.807,739.468,352.3,750.4a2.969,2.969,0,0,1-3.768-.689l1.669-11.6Z" transform="translate(5530.832 7298.098)" fill="#f5baa9"/>
      <path id="Path_10046" data-name="Path 10046" d="M344.834,748.135c-.079-.106,4.617-11.382,4.617-11.382l-4.085-3.211-3.927,13.451C342.352,748.91,343.489,749.248,344.834,748.135Z" transform="translate(5531.873 7298.769)" fill="#f5baa9"/>
      <path id="Path_10047" data-name="Path 10047" d="M351.911,754.586c-15.441,2.688-17.558-2.781-17.312-3.23,2.7-.245,4.8-1.2,6.044-3.124.367,1.287,3.471,1.1,3.471,1.1l.2,1.8h.021c1.491.857,2.348-.857,2.348-.857l4.083.081C352.342,751.662,351.911,754.586,351.911,754.586Z" transform="translate(5532.879 7296.612)" fill="#ce412d"/>
      <path id="Path_10048" data-name="Path 10048" d="M345.418,729.042l4.669,3.714L359,701.025s-6.738-3.768-9.71,14.8Z" transform="translate(5531.289 7303.588)" fill="#2d93ba"/>
      <path id="Path_10049" data-name="Path 10049" d="M402.646,688.662s4.139,12.84-22.392,13.478l-10.4-.637s-6.9-1.274-11.248,25.045l-1.247,6.208-7.4-2.229,4.543-26.936a15.026,15.026,0,0,1,8.871-11.33,23.14,23.14,0,0,1,12.533-1.689c12.315,1.774,11.462-6.84,11.462-6.84Z" transform="translate(5530.622 7306.081)" fill="#1c75a1"/>
      <path id="Path_10050" data-name="Path 10050" d="M353.05,673.99l23.124,5.773-.491-14.258h7.11v20.216l-22.87-6.205L351.7,677.5l.009-2.461A1.081,1.081,0,0,1,353.05,673.99Z" transform="translate(5530.366 7308.757)" fill="#e1e6e9"/>
      <path id="Path_10051" data-name="Path 10051" d="M413.108,682.122s-.955,8.278-18.255,3.929c-11.09-9.351-18.116-19.039-18.466-29.291,0,0,8.344-1.391,7.819-5.252,0,0,9.055-1.541,20.306,16.606C404.512,668.113,403.981,673.952,413.108,682.122Z" transform="translate(5526.742 7310.817)" fill="#80b8fa"/>
      <path id="Path_10052" data-name="Path 10052" d="M359.261,680.787l-2.589,1.55c-7.564-2.337-10.42,1.653-11.35,3.674a1.1,1.1,0,0,1-1.627.437c-1.9-1.322-2.117-3.675-.965-6.861a3.187,3.187,0,0,1,2.566-2.247C349.112,677.084,354.88,677.206,359.261,680.787Z" transform="translate(5531.787 7307.032)" fill="#f4b5ad"/>
      <path id="Path_10053" data-name="Path 10053" d="M388.958,691.2a4.735,4.735,0,0,1-5.454,2.484c-5.686-1.5-16.173-7.2-25.708-12.057l.532-4.511,21.6,6.553a1.833,1.833,0,0,0,2.361-1.876l-.722-10.831,8.6-1.537S392.352,684.28,388.958,691.2Z" transform="translate(5529.471 7308.182)" fill="#f4b5ad"/>
      <path id="Path_10054" data-name="Path 10054" d="M394.987,667.735c-.244,2.144-10.168,4.308-10.168,4.308-3.45-6.82-4.288-11.822-.674-13.721a5.11,5.11,0,0,1,5.268.429C393.517,661.609,394.987,667.735,394.987,667.735Z" transform="translate(5525.947 7309.891)" fill="#faca65"/>
      <path id="Path_10055" data-name="Path 10055" d="M309.96,679.036a7.288,7.288,0,0,0,0,6.948,4.486,4.486,0,0,1-.936-1.613,5.863,5.863,0,0,1,0-3.722A4.477,4.477,0,0,1,309.96,679.036Z" transform="translate(5536.676 7306.771)" fill="#fff"/>
      <path id="Path_10056" data-name="Path 10056" d="M379.667,647.969s-3.76.573-2.883-3.636a9.1,9.1,0,0,0-2.958-9.214c-5.518,4.335-8.1,2.967-9.553.98a3.007,3.007,0,0,1,1.182-4.321c4.92-2.635,15.193-6.826,18.825,1.674C384.28,633.452,389.014,642.711,379.667,647.969Z" transform="translate(5528.594 7314.207)" fill="#e56353"/>
    </g>
    <g id="Group_24127" data-name="Group 24127" transform="translate(-4697 -7227)">
      <path id="Path_9899" data-name="Path 9899" d="M900.434,714.092c-.044,1.879-4.022,3.333-8.89,3.183s-8.829-1.767-8.785-3.646,4.023-3.332,8.891-3.183C896.6,710.508,900.479,712.214,900.434,714.092Z" transform="translate(5452.4 7302.161)" fill="#98dee1"/>
      <path id="Path_9902" data-name="Path 9902" d="M809.63,693.52s-26.9,14.5-15.547,14.765l14.085.2S807.385,700.055,809.63,693.52Z" transform="translate(5465.83 7304.644)" fill="#e0e9ef"/>
      <path id="Path_9920" data-name="Path 9920" d="M819.22,690.565c2.931-2.539,10.119-5.514,13.841-6.962.594-.183,1.2.229,1.043.83-.526,3.255-2.117,12.336-2.959,12.866,0,0-9.328,2.682-12.959.543C818.1,697.929,817.125,692.319,819.22,690.565Z" transform="translate(5461.924 7306.106)" fill="#d6e3dd"/>
      <path id="Path_9921" data-name="Path 9921" d="M832.459,694s3.824,7,.307,10.063c0,0-10.208,1.506-10.445-5.4C822.318,698.578,822.951,692.419,832.459,694Z" transform="translate(5461.273 7304.612)" fill="#2a2b2a"/>
      <path id="Path_10057" data-name="Path 10057" d="M866.746,612.746c.306-3.959.209-6.321,2.737-10.87-4.089-7.593-22.076,3.043-15.77,9.347a14.011,14.011,0,0,0,10.925,3.974A2.518,2.518,0,0,0,866.746,612.746Z" transform="translate(5456.859 7318.485)" fill="#ca4939"/>
      <path id="Path_10058" data-name="Path 10058" d="M861.653,613.251l-5.428-1.1-2.924,6.064c.925,1.441,3.682,1.028,5.469,1.3.558.084.9.927,1.4.648Z" transform="translate(5456.725 7316.59)" fill="#ef8f88" fill-rule="evenodd"/>
      <path id="Path_10059" data-name="Path 10059" d="M862.938,614.561a6.365,6.365,0,0,1-6.661-5.962l-.427-7.2,10.7-.806a66.9,66.9,0,0,1-.156,9.531C865.857,612.944,864.584,614.446,862.938,614.561Z" transform="translate(5456.351 7318.287)" fill="#f4b5ad" fill-rule="evenodd"/>
      <path id="Path_10060" data-name="Path 10060" d="M856.2,609.571a1.673,1.673,0,0,1-1.456,2.183c-.994.05-2.3-1.548-2.415-2.666-.252-1.139.8-1.581,1.781-1.533C855.122,607.407,855.967,608.335,856.2,609.571Z" transform="translate(5456.873 7317.267)" fill="#f4b5ad" fill-rule="evenodd"/>
      <path id="Path_10061" data-name="Path 10061" d="M855.178,597.19c-6-1.4-3.3,8.464,0,13.579,3.808,1.565,2.7-6.933,2.659-9.956.479,2.056,4.283,3.207,6.125,3.526l-1.209-1.793c5.148,1.172,7.387-1.037,7.863-2.287C859.3,591.611,855.608,594.609,855.178,597.19Z" transform="translate(5456.972 7319.18)" fill="#231f20"/>
      <path id="Path_10062" data-name="Path 10062" d="M808.192,674.177c.315-.027.636-.034.956-.034h33.587a15.311,15.311,0,0,1,15.315,15.308l.092,20.083h22.945c14.764,1.379,11.229-31.191,7.244-58.957h9.563c13.776,24.589,12.691,69.674-4.372,69.674H793.841v-30.8A15.3,15.3,0,0,1,808.192,674.177Z" transform="translate(5465.455 7310.949)" fill="#fff"/>
      <path id="Path_10063" data-name="Path 10063" d="M926.518,640.29c2.114.1,3.809,2.66,3.809,5.816s-1.694,5.721-3.809,5.817Z" transform="translate(5445.976 7312.459)" fill="#7dcccf"/>
      <path id="Path_10064" data-name="Path 10064" d="M899.283,728.429H904.5a20.872,20.872,0,0,1,20.772-20.868,20.477,20.477,0,0,1,3.5.3,21.61,21.61,0,0,0-7.657-1.4A21.946,21.946,0,0,0,899.283,728.429Z" transform="translate(5449.974 7302.744)" fill="#7dcccf"/>
      <path id="Path_10065" data-name="Path 10065" d="M793,671.6a7.852,7.852,0,0,0,7.855,7.855H850.78a7.855,7.855,0,1,0,0-15.711H800.855A7.856,7.856,0,0,0,793,671.6Z" transform="translate(5465.578 7309.015)" fill="#7dcccf"/>
      <path id="Path_10066" data-name="Path 10066" d="M802.588,728.429h5.218a20.873,20.873,0,0,1,20.773-20.868,20.459,20.459,0,0,1,3.5.3,21.6,21.6,0,0,0-7.657-1.4A21.946,21.946,0,0,0,802.588,728.429Z" transform="translate(5464.17 7302.744)" fill="#7dcccf"/>
      <path id="Path_10067" data-name="Path 10067" d="M814.535,729.525a15.793,15.793,0,1,0,15.8-15.786A15.793,15.793,0,0,0,814.535,729.525Z" transform="translate(5462.417 7301.676)" fill="#2f4859"/>
      <path id="Path_10068" data-name="Path 10068" d="M831.791,738.287a7.3,7.3,0,1,1,7.3-7.3A7.3,7.3,0,0,1,831.791,738.287Z" transform="translate(5460.955 7300.215)" fill="#ebf0f3"/>
      <path id="Path_10069" data-name="Path 10069" d="M892.315,645.451a1.878,1.878,0,0,0,1.879,1.879h13.6v-3.757h-13.6A1.878,1.878,0,0,0,892.315,645.451Z" transform="translate(5450.997 7311.977)" fill="#2f4859"/>
      <path id="Path_10070" data-name="Path 10070" d="M904.476,638.632h13.69V653.09h-13.69a2.02,2.02,0,0,1-2.02-2.02V640.653A2.02,2.02,0,0,1,904.476,638.632Z" transform="translate(5449.508 7312.703)" fill="#fff"/>
      <path id="Path_10071" data-name="Path 10071" d="M920.864,637.6V653.45a1.243,1.243,0,0,0,1.243,1.243h2.664a1.243,1.243,0,0,0,1.237-1.243V637.6a1.237,1.237,0,0,0-1.237-1.236h-2.664A1.237,1.237,0,0,0,920.864,637.6Z" transform="translate(5446.806 7313.035)" fill="#2a2b2a"/>
      <path id="Path_10072" data-name="Path 10072" d="M927.025,745.312a15.786,15.786,0,1,1,15.793-15.786A15.79,15.79,0,0,1,927.025,745.312Z" transform="translate(5448.22 7301.675)" fill="#2f4859"/>
      <path id="Path_10073" data-name="Path 10073" d="M928.485,738.287a7.3,7.3,0,1,1,7.3-7.3A7.3,7.3,0,0,1,928.485,738.287Z" transform="translate(5446.759 7300.215)" fill="#ebf0f3"/>
      <path id="Path_10074" data-name="Path 10074" d="M905.4,728.635h41.533a20.767,20.767,0,1,0-41.533,0Z" transform="translate(5449.076 7302.556)" fill="#7dcccf"/>
      <path id="Path_10075" data-name="Path 10075" d="M808.707,728.635H850.24a20.767,20.767,0,1,0-41.533,0Z" transform="translate(5463.272 7302.556)" fill="#7dcccf"/>
      <path id="Path_10076" data-name="Path 10076" d="M880.85,703.468l4.51,10.93a2.969,2.969,0,0,0,3.768-.689l-1.669-11.6Z" transform="translate(5452.681 7303.383)" fill="#f5baa9"/>
      <path id="Path_10077" data-name="Path 10077" d="M892.869,712.135c.079-.106-4.617-11.381-4.617-11.381l4.086-3.211,3.926,13.451C895.351,712.91,894.213,713.248,892.869,712.135Z" transform="translate(5451.594 7304.054)" fill="#f5baa9"/>
      <path id="Path_10078" data-name="Path 10078" d="M884.179,718.586c15.441,2.688,17.558-2.781,17.312-3.23-2.694-.245-4.8-1.2-6.044-3.124-.367,1.287-3.471,1.1-3.471,1.1l-.2,1.8h-.021c-1.491.857-2.348-.857-2.348-.857l-4.083.081C883.748,715.662,884.179,718.586,884.179,718.586Z" transform="translate(5452.2 7301.897)" fill="#ce412d"/>
      <path id="Path_10079" data-name="Path 10079" d="M891.326,693.042l-4.67,3.714-8.914-31.731s6.738-3.768,9.71,14.8Z" transform="translate(5453.137 7308.874)" fill="#2d93ba"/>
      <path id="Path_10080" data-name="Path 10080" d="M827.328,652.662s-4.139,12.84,22.392,13.478l10.4-.636s6.9-1.274,11.249,25.045l1.246,6.208,7.4-2.229-4.543-26.936a15.026,15.026,0,0,0-8.87-11.33,23.144,23.144,0,0,0-12.534-1.689c-12.315,1.774-11.462-6.84-11.462-6.84Z" transform="translate(5460.573 7311.367)" fill="#1c75a1"/>
      <path id="Path_10081" data-name="Path 10081" d="M880.68,637.99l-23.124,5.773.491-14.258h-7.11v20.216l22.87-6.205,8.225-2.02-.009-2.461A1.081,1.081,0,0,0,880.68,637.99Z" transform="translate(5457.072 7314.042)" fill="#e1e6e9"/>
      <path id="Path_10082" data-name="Path 10082" d="M819.654,646.122s.955,8.278,18.256,3.929C849,640.7,856.025,631.012,856.374,620.76c0,0-8.344-1.391-7.819-5.252,0,0-9.055-1.541-20.306,16.606C828.25,632.113,828.781,637.952,819.654,646.122Z" transform="translate(5461.665 7316.102)" fill="#3d5afe"/>
      <path id="Path_10083" data-name="Path 10083" d="M876.854,644.787l2.589,1.55c7.564-2.337,10.42,1.653,11.35,3.674a1.1,1.1,0,0,0,1.627.437c1.9-1.322,2.117-3.675.965-6.861a3.187,3.187,0,0,0-2.566-2.247C887,641.085,881.235,641.206,876.854,644.787Z" transform="translate(5453.267 7312.317)" fill="#f4b5ad"/>
      <path id="Path_10084" data-name="Path 10084" d="M844.434,655.2a4.735,4.735,0,0,0,5.454,2.484c5.686-1.5,16.173-7.2,25.708-12.057l-.532-4.511-21.6,6.553a1.833,1.833,0,0,1-2.361-1.876l.722-10.831-8.6-1.537S841.04,648.28,844.434,655.2Z" transform="translate(5458.306 7313.467)" fill="#f4b5ad"/>
      <path id="Path_10085" data-name="Path 10085" d="M841.825,631.735c.244,2.144,10.168,4.308,10.168,4.308,3.45-6.82,4.288-11.822.674-13.721a5.11,5.11,0,0,0-5.268.429C843.3,625.609,841.825,631.735,841.825,631.735Z" transform="translate(5458.41 7315.176)" fill="#faca65"/>
      <path id="Path_10086" data-name="Path 10086" d="M928.908,643.036a7.288,7.288,0,0,1,0,6.948,4.486,4.486,0,0,0,.936-1.613,5.861,5.861,0,0,0,0-3.722A4.475,4.475,0,0,0,928.908,643.036Z" transform="translate(5445.625 7312.056)" fill="#fff"/>
      <path id="Path_10087" data-name="Path 10087" d="M855.678,611.969s3.76.572,2.883-3.636a9.1,9.1,0,0,1,2.958-9.214c5.518,4.335,8.1,2.967,9.553.98a3.007,3.007,0,0,0-1.182-4.32c-4.92-2.635-15.193-6.826-18.825,1.674C851.066,597.452,846.331,606.711,855.678,611.969Z" transform="translate(5457.229 7319.492)" fill="#e56353"/>
    </g>
  </g>
</svg>
