<svg xmlns="http://www.w3.org/2000/svg" width="129.121" height="63.704" viewBox="0 0 129.121 63.704">
  <defs>
    <style>
      .cls-1 {
        fill: #fc4fd4;
      }
    </style>
  </defs>
  <g id="car-accident" transform="translate(0 -77.173)">
    <path id="Path_3311" data-name="Path 3311" class="cls-1" d="M216.725,77.173H201.344a8.565,8.565,0,0,0-6.55,3.568l-11.3,17.5a9.369,9.369,0,0,1-5.266,3.542l-13.773,2.6a5.62,5.62,0,0,0-4.4,5.309V126.95a4.623,4.623,0,0,0,4.618,4.618h11.314a12.911,12.911,0,0,0,24.8,0h15.938a4.623,4.623,0,0,0,4.618-4.618V81.79A4.623,4.623,0,0,0,216.725,77.173Zm-28.337,57.205a6.415,6.415,0,1,1,6.415-6.416A6.416,6.416,0,0,1,188.389,134.378Zm28.2-35.494a3.077,3.077,0,0,1-3.068,3.068H192.63c-1.687,0-2.349-1.178-1.469-2.618l8.184-13.4a6.089,6.089,0,0,1,4.667-2.618h9.512a3.076,3.076,0,0,1,3.068,3.068V98.884Z" transform="translate(-92.223 0)"/>
    <path id="Path_3312" data-name="Path 3312" class="cls-1" d="M56.884,104.387l-13.773-2.6a9.372,9.372,0,0,1-5.266-3.542l-11.3-17.5A8.565,8.565,0,0,0,20,77.173H4.618A4.623,4.623,0,0,0,0,81.79v45.16a4.623,4.623,0,0,0,4.618,4.618H20.557a12.911,12.911,0,0,0,24.8,0H56.667a4.623,4.623,0,0,0,4.618-4.618V109.7A5.62,5.62,0,0,0,56.884,104.387ZM7.82,101.952a3.077,3.077,0,0,1-3.068-3.068V86.38A3.077,3.077,0,0,1,7.82,83.312h9.512A6.089,6.089,0,0,1,22,85.93l8.184,13.4c.879,1.44.218,2.618-1.469,2.618H7.82Zm25.134,32.426a6.415,6.415,0,1,1,6.415-6.416A6.416,6.416,0,0,1,32.954,134.378Z" transform="translate(0 0)"/>
    <path id="Path_3313" data-name="Path 3313" class="cls-1" d="M131.267,115.164h.06a1.824,1.824,0,0,0,1.822-1.766l.314-9.858a1.825,1.825,0,0,0-1.765-1.881h-.06a1.824,1.824,0,0,0-1.822,1.766l-.314,9.858A1.825,1.825,0,0,0,131.267,115.164Z" transform="translate(-74.614 -14.107)"/>
    <path id="Path_3314" data-name="Path 3314" class="cls-1" d="M148.349,105.4a1.825,1.825,0,0,0-2.448.813l-4.189,8.353a1.824,1.824,0,1,0,3.261,1.635l4.189-8.353A1.824,1.824,0,0,0,148.349,105.4Z" transform="translate(-81.538 -16.154)"/>
    <path id="Path_3315" data-name="Path 3315" class="cls-1" d="M160.374,123.442a1.824,1.824,0,0,0-2.549-.394l-6.992,5.122a1.824,1.824,0,1,0,2.156,2.943l6.992-5.122A1.823,1.823,0,0,0,160.374,123.442Z" transform="translate(-86.475 -26.229)"/>
  </g>
</svg>
