<svg xmlns="http://www.w3.org/2000/svg" width="156" height="156" viewBox="0 0 156 156">
  <g id="Group_24204" data-name="Group 24204" transform="translate(-1546 -1696)">
    <circle id="Ellipse_668" data-name="Ellipse 668" cx="78" cy="78" r="78" transform="translate(1546 1696)" fill="#4f8afc"/>
    <g id="give-money_1_" data-name="give-money (1)" transform="translate(1584 1716.491)">
      <g id="Layer_5_58_" transform="translate(0 22.509)">
        <g id="Group_24197" data-name="Group 24197" transform="translate(0)">
          <g id="Group_24195" data-name="Group 24195" transform="translate(37.579)">
            <path id="Path_10135" data-name="Path 10135" d="M243.112,76.106c-2.383-.955-3.072-1.533-3.072-2.577,0-.835.632-1.81,2.415-1.81a6.706,6.706,0,0,1,2.8.627.879.879,0,0,0,.411.1.831.831,0,0,0,.777-.532l.433-1.107a.685.685,0,0,0-.37-.881,16.777,16.777,0,0,0-2.888-.753.15.15,0,0,1-.137-.152l-.006-1.606a.89.89,0,0,0-.9-.878H241.8a.89.89,0,0,0-.9.878l0,1.689c0,.129-.14.186-.192.2a4.663,4.663,0,0,0-3.892,4.538c0,2.759,2.281,4.006,4.743,4.942,1.969.773,2.772,1.557,2.772,2.706,0,1.251-1.137,2.124-2.767,2.124a9.753,9.753,0,0,1-3.293-.891.88.88,0,0,0-.379-.086.841.841,0,0,0-.8.552l-.414,1.12a.728.728,0,0,0,.369.909,14.662,14.662,0,0,0,3.494.971c.027,0,.163.052.163.176v1.682a.89.89,0,0,0,.9.878h.8a.89.89,0,0,0,.9-.878v-1.77a.167.167,0,0,1,.147-.186,4.879,4.879,0,0,0,4.124-4.785C247.582,78.9,246.244,77.344,243.112,76.106Z" transform="translate(-221.017 -56.641)" fill="#fff"/>
            <path id="Path_10136" data-name="Path 10136" d="M188.252,22.509A21.091,21.091,0,1,0,209.343,43.6,21.091,21.091,0,0,0,188.252,22.509Zm0,37.295a16.2,16.2,0,1,1,16.2-16.2A16.2,16.2,0,0,1,188.252,59.8Z" transform="translate(-167.161 -22.509)" fill="#fff"/>
          </g>
          <g id="Group_24196" data-name="Group 24196" transform="translate(0 44.2)">
            <path id="Path_10137" data-name="Path 10137" d="M151.066,227.324a53.666,53.666,0,0,1-16.805,5.729c-5.473.858-15.77-1.212-15.77-3.657,0-.926,9.031,2.283,14.493.825,4.189-1.118,3.594-5.036,1.316-5.553s-15.536-5.376-21.2-5.544c-2.67-.079-9.263.929-12.453,1.448-1.093.178-1.778.158-1.846,1.2-.317,4.86-.943,14.8-1.284,19.991-.007.11.145,1.585,1.363.547,1.332-1.136,3.2-2.4,4.93-2,2.712.615,26.173,4.913,29.409,4.161,4.629-1.076,17.735-8.843,20.247-11.257C157.356,229.475,154.328,225.524,151.066,227.324Z" transform="translate(-75.59 -219.121)" fill="#fff"/>
            <path id="Path_10138" data-name="Path 10138" d="M16.731,222.644l-12.291-.606a2.213,2.213,0,0,0-2.154,1.589L.052,243.917a1.34,1.34,0,0,0,1.3,1.74H14.971A1.814,1.814,0,0,0,16.829,244l1.5-19.549A1.677,1.677,0,0,0,16.731,222.644ZM9.5,242.968a3.4,3.4,0,1,1,3.4-3.4A3.4,3.4,0,0,1,9.5,242.968Z" transform="translate(0 -221.381)" fill="#fff"/>
          </g>
        </g>
      </g>
    </g>
  </g>
</svg>
