<svg xmlns="http://www.w3.org/2000/svg" width="156" height="156" viewBox="0 0 156 156">
  <g id="Group_24203" data-name="Group 24203" transform="translate(-784 -1696)">
    <circle id="Ellipse_670" data-name="Ellipse 670" cx="78" cy="78" r="78" transform="translate(784 1696)" fill="#4f8afc"/>
    <g id="Group_24194" data-name="Group 24194" transform="translate(-93 -213.835)">
      <g id="Group_24193" data-name="Group 24193" transform="translate(924 1947.836)">
        <path id="Path_3114" data-name="Path 3114" d="M58.808,80.208H3.237A3.224,3.224,0,0,1,0,76.971V3.237A3.224,3.224,0,0,1,3.237,0H58.628a3.224,3.224,0,0,1,3.237,3.237V76.971A2.973,2.973,0,0,1,58.808,80.208Z" fill="#fff"/>
        <g id="Group_24192" data-name="Group 24192" transform="translate(4.512 10.108)">
          <g id="Group_24188" data-name="Group 24188" transform="translate(0)">
            <g id="Ellipse_666" data-name="Ellipse 666" fill="#4f8afc" stroke="#fff" stroke-width="1">
              <ellipse cx="4.01" cy="4.01" rx="4.01" ry="4.01" stroke="none"/>
              <ellipse cx="4.01" cy="4.01" rx="3.51" ry="3.51" fill="none"/>
            </g>
            <rect id="Rectangle_2489" data-name="Rectangle 2489" width="36.094" height="7.52" rx="3" transform="translate(16.413)" fill="#4f8afc"/>
          </g>
          <g id="Group_24189" data-name="Group 24189" transform="translate(0 18.003)">
            <g id="Ellipse_666-2" data-name="Ellipse 666" fill="#4f8afc" stroke="#fff" stroke-width="1">
              <ellipse cx="4.01" cy="4.01" rx="4.01" ry="4.01" stroke="none"/>
              <ellipse cx="4.01" cy="4.01" rx="3.51" ry="3.51" fill="none"/>
            </g>
            <rect id="Rectangle_2489-2" data-name="Rectangle 2489" width="36.094" height="7.52" rx="3" transform="translate(16.413)" fill="#4f8afc"/>
          </g>
          <g id="Group_24190" data-name="Group 24190" transform="translate(0 36.006)">
            <g id="Ellipse_666-3" data-name="Ellipse 666" fill="#4f8afc" stroke="#fff" stroke-width="1">
              <ellipse cx="4.01" cy="4.01" rx="4.01" ry="4.01" stroke="none"/>
              <ellipse cx="4.01" cy="4.01" rx="3.51" ry="3.51" fill="none"/>
            </g>
            <rect id="Rectangle_2489-3" data-name="Rectangle 2489" width="36.094" height="7.52" rx="3" transform="translate(16.413)" fill="#4f8afc"/>
          </g>
          <g id="Group_24191" data-name="Group 24191" transform="translate(0 54.009)">
            <g id="Ellipse_666-4" data-name="Ellipse 666" fill="#4f8afc" stroke="#fff" stroke-width="1">
              <ellipse cx="4.01" cy="4.01" rx="4.01" ry="4.01" stroke="none"/>
              <ellipse cx="4.01" cy="4.01" rx="3.51" ry="3.51" fill="none"/>
            </g>
            <rect id="Rectangle_2489-4" data-name="Rectangle 2489" width="36.094" height="7.52" rx="3" transform="translate(16.413)" fill="#4f8afc"/>
          </g>
        </g>
      </g>
    </g>
  </g>
</svg>
