<svg xmlns="http://www.w3.org/2000/svg" width="156" height="156" viewBox="0 0 156 156">
  <g id="Group_24201" data-name="Group 24201" transform="translate(-784 -1347)">
    <circle id="Ellipse_669" data-name="Ellipse 669" cx="78" cy="78" r="78" transform="translate(784 1347)" fill="#4f8afc"/>
    <g id="delivery-truck-with-circular-clock" transform="translate(821 1320.134)">
      <path id="Path_10132" data-name="Path 10132" d="M81.654,123.376H79.07V108.922a8.522,8.522,0,0,0-1.457-4.755l-6.477-9.593a8.516,8.516,0,0,0-7.051-3.743H54.045a2.127,2.127,0,0,0-2.127,2.128v30.416H35.476a8.733,8.733,0,0,1,2.946,5.359H55.757a8.73,8.73,0,0,1,17.282,0h8.614a1.066,1.066,0,0,0,1.064-1.062v-3.233A1.067,1.067,0,0,0,81.654,123.376ZM71.062,106.083H57.81a1.06,1.06,0,0,1-1.063-1.064V97.671a1.067,1.067,0,0,1,1.063-1.064h8.072a1.077,1.077,0,0,1,.872.446l5.179,7.36A1.063,1.063,0,0,1,71.062,106.083ZM64.4,123.376A6.62,6.62,0,1,0,71.019,130,6.616,6.616,0,0,0,64.4,123.376Zm0,9.933A3.307,3.307,0,1,1,67.712,130,3.311,3.311,0,0,1,64.4,133.309ZM9.25,123.376a1.067,1.067,0,0,0-1.064,1.063v3.233a1.066,1.066,0,0,0,1.064,1.062H21.14a8.771,8.771,0,0,1,2.935-5.359Zm20.526,0A6.62,6.62,0,1,0,36.391,130,6.623,6.623,0,0,0,29.775,123.376Zm0,9.933A3.307,3.307,0,1,1,33.083,130,3.311,3.311,0,0,1,29.775,133.309Zm15.91-49.07H33.36a17.852,17.852,0,0,1,.925,5.711A18.223,18.223,0,0,1,10.8,107.38v11.751a1.067,1.067,0,0,0,1.064,1.063H47.813a1.067,1.067,0,0,0,1.064-1.063v-31.7A3.186,3.186,0,0,0,45.686,84.238ZM16.08,73.867A16.079,16.079,0,1,0,32.16,89.946,16.079,16.079,0,0,0,16.08,73.867Zm0,28.5A12.42,12.42,0,1,1,28.5,89.946,12.421,12.421,0,0,1,16.08,102.367Zm4.744-9.8a1.607,1.607,0,0,1-.417-.055l-5.182-1.4a1.6,1.6,0,0,1-1.18-1.541V81.6a1.6,1.6,0,1,1,3.191,0v6.754l4,1.079a1.6,1.6,0,0,1-.414,3.135Z" transform="translate(0 -0.001)" fill="#fff"/>
    </g>
  </g>
</svg>
