<svg xmlns="http://www.w3.org/2000/svg" width="62.329" height="83.105" viewBox="0 0 62.329 83.105">
  <defs>
    <style>
      .cls-1 {
        fill: rgba(67,68,203,0.68);
      }
    </style>
  </defs>
  <g id="fire" transform="translate(-64 0)">
    <g id="Group_2956" data-name="Group 2956" transform="translate(64 0)">
      <path id="Path_3292" data-name="Path 3292" class="cls-1" d="M126.151,48.657c-.952-12.394-6.723-20.161-11.813-27.015-4.714-6.345-8.785-11.825-8.785-19.908a1.734,1.734,0,0,0-.94-1.54,1.715,1.715,0,0,0-1.8.132A44.033,44.033,0,0,0,86.56,23.816c-1.547,6.125-1.752,13.011-1.78,17.559-7.061-1.508-8.66-12.07-8.677-12.185a1.731,1.731,0,0,0-2.47-1.314c-.37.179-9.088,4.609-9.6,22.295C64,50.76,64,51.35,64,51.94A31.2,31.2,0,0,0,95.164,83.1a.242.242,0,0,0,.069,0h.022A31.2,31.2,0,0,0,126.329,51.94C126.329,51.076,126.151,48.657,126.151,48.657ZM95.164,79.64c-5.728,0-10.388-4.964-10.388-11.065,0-.208,0-.418.013-.675a14.035,14.035,0,0,1,1.094-5.5c1,2.157,2.8,4.14,5.717,4.14a1.73,1.73,0,0,0,1.731-1.731A34.634,34.634,0,0,1,94,56.936,16.742,16.742,0,0,1,97.5,50.3a22.308,22.308,0,0,0,3.569,6.548c2,2.847,4.075,5.791,4.438,10.81.022.3.044.6.044.918C105.552,74.676,100.893,79.64,95.164,79.64Z" transform="translate(-64 0)"/>
    </g>
  </g>
</svg>
