<svg xmlns="http://www.w3.org/2000/svg" width="127.72" height="62.254" viewBox="0 0 127.72 62.254">
  <defs>
    <style>
      .cls-1 {
        fill: #89dc67;
      }
    </style>
  </defs>
  <g id="frontal-crash" transform="translate(0 -156.849)">
    <path id="Path_3316" data-name="Path 3316" class="cls-1" d="M92.764,174.63l.5-2.024c.167-.334.334-.668.668-.668a1.139,1.139,0,0,1,1.19.334l14.254,5.76L94.1,176.007C93.119,175.986,92.6,175.3,92.764,174.63Zm2.212-9.829,15.109,11.687L98.545,161.378c-.5-.856-1.023-1.19-1.523-1.19-.334,0-.5.167-.856.334l-1.857,1.857C93.619,163.11,93.953,163.945,94.976,164.8Zm29.864-1.857h-3.9a2.858,2.858,0,0,0-2.88,2.88v50.4a2.859,2.859,0,0,0,2.88,2.88h3.9a2.858,2.858,0,0,0,2.88-2.88v-50.4A2.832,2.832,0,0,0,124.84,162.943Zm-20.014-5.8a.613.613,0,0,0-.5.167l-1.857,1.023c-.668.334-.668,1.19.167,2.024l9.349,12.229-5.948-14.254C105.682,157.663,105.327,157.141,104.826,157.141Zm7.116,33.432V204.16c0,3.214-2.546,4.57-5.259,4.57H95.143a11.154,11.154,0,0,1-22.247,0H32.89a11.064,11.064,0,0,1-22.08,0H4.9c-4.236,0-4.9-1.857-4.9-4.57V191.1a12.275,12.275,0,0,1,1.357-6.261l11.52-22.894a9.938,9.938,0,0,1,8.139-5.092l44.43.167a9.491,9.491,0,0,1,7.972,5.092l10.706,16.8,21.2,4.57C110.753,184.313,111.776,187.861,111.943,190.574ZM27.986,208.042a6,6,0,0,0-5.927-5.927,5.9,5.9,0,0,0-5.927,5.927,5.927,5.927,0,0,0,11.854,0ZM39.86,163.277h-16.3c-2.546.167-3.736,1.19-5.092,4.07L13.21,178.887H39.839v-15.61Zm35.29,15.589L68.2,167.326c-1.357-2.212-3.381-4.07-6.261-4.07H47v15.61Zm14.9,29.175a5.927,5.927,0,1,0-5.927,5.926A5.857,5.857,0,0,0,90.051,208.042Z" transform="translate(0 0)"/>
  </g>
</svg>
