<svg xmlns="http://www.w3.org/2000/svg" width="74.009" height="75.286" viewBox="0 0 74.009 75.286">
  <defs>
    <style>
      .cls-1 {
        fill: rgba(206,9,9,0.53);
      }
    </style>
  </defs>
  <g id="hacker" transform="translate(0 0)">
    <path id="Path_3298" data-name="Path 3298" class="cls-1" d="M264.4,0H232.5V3.828h32A1.276,1.276,0,0,1,265.771,5.1V51.041a1.276,1.276,0,0,1-1.276,1.276h-32v8.932h31.9a5.1,5.1,0,0,0,5.1-5.1V5.1A5.1,5.1,0,0,0,264.4,0Zm0,0" transform="translate(-195.495)"/>
    <path id="Path_3299" data-name="Path 3299" class="cls-1" d="M243.984,400H232.5v3.828h15.234Zm0,0" transform="translate(-195.495 -336.199)"/>
    <path id="Path_3300" data-name="Path 3300" class="cls-1" d="M51.314,35.234a20.417,20.417,0,0,0-39.9,0Zm0,0" transform="translate(-9.67 -16.094)"/>
    <path id="Path_3301" data-name="Path 3301" class="cls-1" d="M269.5,445.1l-5.1-5.1H232.5v5.1Zm0,0" transform="translate(-195.495 -369.819)"/>
    <path id="Path_3302" data-name="Path 3302" class="cls-1" d="M.5,165.839v23.753H24.744V176.486a10.143,10.143,0,0,0-2.989-7.219l-2.277-2.276a3.827,3.827,0,0,1,.317-5.7l3.2-2.559a3.807,3.807,0,0,1,3.222-.748l7.307,1.618a5.37,5.37,0,0,0,6.536-5.232v-3.062a1.276,1.276,0,0,1,.8-1.186l4.991-1.994-3.062-5.095a1.129,1.129,0,0,1-.084-.2l-9.9,3.3a1.277,1.277,0,0,1-1.252-.255L20.43,136H1.859c-.051.584-.083,1.173-.083,1.767v4.155A19.118,19.118,0,0,0,8.46,156.454a3.2,3.2,0,0,1-.127,4.977Zm0,0" transform="translate(-0.5 -114.307)"/>
    <path id="Path_3303" data-name="Path 3303" class="cls-1" d="M167.793,136H149.539l8.422,7.489,9.915-3.305v-2.417c0-.594-.032-1.183-.083-1.767Zm-5.021,3.828h-2.552v-2.552h2.552Zm0,0" transform="translate(-125.767 -114.308)"/>
    <path id="Path_3304" data-name="Path 3304" class="cls-1" d="M263.219,42.552V40h-30.68a22.828,22.828,0,0,1,7.2,12.76h8.077v2.552h-7.724q.066.877.068,1.767v4.26l3.646,6.076a1.276,1.276,0,0,1-.619,1.843l-5.579,2.23v2.2a7.863,7.863,0,0,1-5.1,7.393v2.3h30.719V74.453h-1.371V71.9h1.371V64.244h-1.371V61.692h1.371V59.14h-5.2V56.588h5.2v-6.38h-1.371V47.656h1.371V45.1h-7.751V42.552Zm-12.855,0h2.552V45.1h-2.552Zm2.552,14.036h2.552V59.14h-2.552Zm-7.656-6.38h-2.552V47.656h2.552Zm-2.552-5.1V42.552h5.1V45.1Zm7.656,2.552v2.552h-2.552V47.656Zm-2.552,8.932h2.552V59.14h-2.552Zm0,5.1h2.552v2.552h-2.552Zm0,5.1h8.932v2.552h-8.932Zm5.1,7.656h-5.1V71.9h5.1Zm6.38,0h-3.828V71.9H259.3Zm2.552-5.1H259.3V66.8h2.552ZM259.3,61.692v2.552h-6.38V61.692Zm0-14.036v2.552h-6.38V47.656Zm0,0" transform="translate(-195.495 -33.62)"/>
  </g>
</svg>
